<svg width="30" height="30" viewBox="0 0 30 30" fill="none" xmlns="http://www.w3.org/2000/svg">
<path d="M3.25 15C3.25 19.7137 3.25 24.5712 4.8975 26.035C6.545 27.5 9.1975 27.5 14.5 27.5C19.8038 27.5 22.455 27.5 24.1025 26.035C25.75 24.5712 25.75 19.7137 25.75 15" stroke="#D2AB2D" stroke-width="2"/>
<path d="M17.825 17.7525L25.335 15.5C26.0787 15.2762 26.4513 15.165 26.6875 14.8975C26.7338 14.8453 26.7756 14.7892 26.8125 14.73C27 14.4263 27 14.0388 27 13.2613C27 10.1988 27 8.6675 26.1587 7.63375C25.997 7.43483 25.8152 7.25304 25.6162 7.09125C24.5825 6.25 23.0513 6.25 19.9888 6.25H9.0125C5.95 6.25 4.41875 6.25 3.385 7.09125C3.185 7.25375 3.00375 7.435 2.8425 7.63375C2 8.6675 2 10.1988 2 13.2613C2 14.0388 2 14.4263 2.1875 14.73C2.225 14.7888 2.26625 14.845 2.3125 14.8975C2.55 15.165 2.92125 15.2762 3.665 15.5L11.175 17.7525M7.625 6.25C8.65375 6.225 9.7 5.56875 10.05 4.6L10.0938 4.47125L10.125 4.375C10.1775 4.21625 10.205 4.1375 10.2325 4.0675C10.4091 3.62852 10.7066 3.24866 11.0905 2.97206C11.4744 2.69547 11.9289 2.53351 12.4013 2.505C12.475 2.5 12.56 2.5 12.725 2.5H16.2725C16.4388 2.5 16.5225 2.5 16.5975 2.505C17.0698 2.53351 17.5243 2.69547 17.9082 2.97206C18.2921 3.24866 18.5897 3.62852 18.7663 4.0675C18.795 4.1375 18.8212 4.2175 18.8737 4.375L18.9062 4.47125C18.9287 4.5375 18.9388 4.57125 18.95 4.6C19.3 5.56875 20.345 6.225 21.3738 6.25" stroke="#D2AB2D" stroke-width="2"/>
<path d="M17 15.625H12C11.8342 15.625 11.6753 15.6908 11.5581 15.8081C11.4408 15.9253 11.375 16.0842 11.375 16.25V18.9525C11.375 19.0773 11.4124 19.1993 11.4824 19.3026C11.5523 19.406 11.6516 19.4861 11.7675 19.5325L12.6425 19.8825C13.8349 20.3596 15.1651 20.3596 16.3575 19.8825L17.2325 19.5325C17.3484 19.4861 17.4477 19.406 17.5176 19.3026C17.5876 19.1993 17.625 19.0773 17.625 18.9525V16.25C17.625 16.0842 17.5592 15.9253 17.4419 15.8081C17.3247 15.6908 17.1658 15.625 17 15.625Z" stroke="#D2AB2D" stroke-width="2" stroke-linecap="round"/>
</svg>
