<svg width="81" height="74" viewBox="0 0 81 74" fill="none" xmlns="http://www.w3.org/2000/svg">
<path d="M29.8869 29.3926C29.8869 29.3926 32.1517 32.4795 33.2853 35.9061C34.3986 39.2739 32.4351 40.5786 29.8307 40.4663C27.5378 40.3667 26.828 39.2203 26.6314 37.8313L29.8869 29.3926Z" fill="#FFC33F"/>
<path d="M32.9178 36.1905C33.7298 38.9838 31.9348 40.1557 29.8871 40.1557C27.8393 40.1557 25.9371 38.9506 26.8563 36.1905C27.99 32.792 29.8871 29.3936 29.8871 29.3936C29.8871 29.3936 31.8991 32.6797 32.9178 36.1905Z" fill="#FFE25B"/>
<path d="M29.887 40.1548C31.9347 40.1548 33.7297 38.9828 32.9177 36.1895C31.899 32.6787 29.887 29.3926 29.887 29.3926C29.887 29.3926 32.1237 34.9996 31.899 36.7563C31.6717 38.513 29.7414 38.6611 29.0112 38.5692C27.6528 38.3981 26.8587 37.1521 26.8587 36.1895C25.9396 38.9496 27.8392 40.1548 29.8895 40.1548H29.887Z" fill="#FFCF5B"/>
<path d="M27.3106 38.1868C27.4102 38.368 27.5353 38.4829 27.6783 38.4829C27.9898 38.4829 28.2451 37.9391 28.2451 37.265C28.2451 36.591 27.9924 36.0471 27.6783 36.0471C27.5608 36.0471 27.4511 36.1237 27.3617 36.2539C27.9489 34.0913 29.8869 29.3906 29.8869 29.3906C29.8869 29.3906 27.9898 32.7891 26.8561 36.1875C26.1667 38.2532 27.0578 39.4455 28.4085 39.9179C27.8238 39.4507 27.4766 38.8174 27.3106 38.1868Z" fill="#F7EB88"/>
<path d="M30.2826 35.1123C30.2826 35.1123 29.6596 32.0253 30.0273 31.9104C30.395 31.7981 31.2172 35.9881 31.018 36.2153C30.8188 36.4425 30.4231 36.0161 30.2826 35.1097V35.1123Z" fill="#F7EB88"/>
<path d="M31.3576 37.041C31.3576 37.2121 31.2172 37.3525 31.0461 37.3525C30.8751 37.3525 30.7346 37.2121 30.7346 37.041C30.7346 36.8699 30.8751 36.7295 31.0461 36.7295C31.2172 36.7295 31.3576 36.8699 31.3576 37.041Z" fill="#F7EB88"/>
<path d="M66.652 14.9179C66.6366 14.8591 66.6188 14.8004 66.6009 14.7442C66.5779 14.6702 66.5498 14.5961 66.5192 14.5221C66.4732 14.4149 66.4171 14.3076 66.343 14.1825L66.3149 14.1366C66.2511 14.0319 66.1796 13.9323 66.1056 13.8404C65.6383 13.2557 64.9719 12.8727 64.2289 12.7603C63.6825 12.6786 63.1259 12.7501 62.6152 12.9697L58.4941 14.7417C58.0831 14.3842 57.5213 14.208 56.9775 14.2668C56.8702 14.1468 56.7579 14.0293 56.6353 13.9119C56.5741 13.8531 56.5128 13.7944 56.4489 13.7382C56.0608 13.3884 55.683 13.1408 55.3229 13.0003C55.2693 12.9799 55.2131 12.9595 55.1519 12.9416C55.1008 12.9263 55.0497 12.9135 54.9808 12.8982C54.9323 12.888 54.8863 12.8803 54.8378 12.8778H54.8123C54.7689 12.8701 54.7229 12.8701 54.6744 12.8701H54.6489C54.608 12.8701 54.5672 12.8752 54.5212 12.8803H54.488C54.4472 12.8905 54.4089 12.8982 54.368 12.9084L54.3323 12.9161C54.2812 12.9314 54.2301 12.9493 54.1816 12.9697L49.1669 15.1247L49.1184 15.1477C49.098 15.1553 49.0801 15.163 49.0597 15.1706C47.9796 15.6353 47.7524 17.6473 48.4801 20.2109L33.3722 26.7065C33.3262 26.7269 33.2828 26.7473 33.2419 26.7703L33.2113 26.7856C33.1679 26.8086 33.127 26.8342 33.0862 26.8622L33.0658 26.875C33.0249 26.9031 32.9892 26.9312 32.9458 26.9669L32.9253 26.9848C32.8921 27.0129 32.8615 27.0435 32.8232 27.0818L32.8002 27.1048C32.7721 27.1354 32.7466 27.1661 32.716 27.2069L32.6955 27.235C32.6726 27.2657 32.6521 27.2989 32.6291 27.3372L32.6062 27.378C32.5883 27.4112 32.573 27.4444 32.5551 27.4801L32.5347 27.5286C32.5219 27.5618 32.5091 27.595 32.4964 27.6282C32.4913 27.6461 32.4836 27.6665 32.4811 27.6844C32.4708 27.7176 32.4632 27.7533 32.4555 27.784C32.4504 27.8044 32.4479 27.8274 32.4428 27.8478C32.4376 27.881 32.4325 27.9142 32.4274 27.9474C32.4249 27.9704 32.4223 27.9934 32.4198 28.0163C32.4198 28.047 32.4147 28.0802 32.4147 28.1134C32.4147 28.1389 32.4147 28.1619 32.4147 28.1976C32.4147 28.2257 32.4147 28.2538 32.4147 28.2819C32.4147 28.3023 32.4172 28.3227 32.4198 28.3457L32.6394 28.3253L32.4223 28.3789C32.4223 28.4044 32.4274 28.43 32.43 28.4529C32.4325 28.4785 32.4376 28.5015 32.4428 28.527L32.6598 28.4887L32.4479 28.5627C32.4504 28.5857 32.4555 28.6061 32.4606 28.6291C32.4657 28.6547 32.4734 28.6802 32.4836 28.7262L32.504 28.8027C32.5142 28.8334 32.5219 28.864 32.5321 28.8947L32.7466 28.8436L32.5423 28.9304L32.5577 28.9738C32.5781 29.0325 32.6011 29.0887 32.6266 29.1474C32.933 29.8624 33.4462 30.322 34.0335 30.4113C34.3169 30.4547 34.608 30.4113 34.9016 30.2862L50.0095 23.7906L50.0325 23.8289C50.0555 23.8672 50.0784 23.9081 50.1014 23.9438L50.2521 24.1864L50.87 25.0647C50.9032 25.1081 50.9364 25.149 50.9696 25.1898L51.0283 25.2613C51.0615 25.3022 51.0947 25.3405 51.1381 25.3915L51.1891 25.4503C51.2249 25.4911 51.2632 25.5345 51.2989 25.5754L51.3474 25.629C51.3857 25.6698 51.424 25.7107 51.4623 25.7515L51.5057 25.7975C51.5466 25.8384 51.5875 25.8792 51.6385 25.9303L51.6641 25.9558C51.7049 25.9967 51.7483 26.035 51.7994 26.0835L51.8224 26.1039C51.8658 26.1422 51.9092 26.1805 51.9602 26.2239L51.9807 26.2418C52.0241 26.2801 52.07 26.3133 52.1134 26.349L52.139 26.3694C52.1849 26.4052 52.2309 26.4384 52.2743 26.469L52.2973 26.4843C52.3458 26.5175 52.3917 26.5482 52.4556 26.589C52.5041 26.6197 52.55 26.6478 52.6139 26.6835C52.6624 26.7116 52.7109 26.7346 52.7696 26.7652C52.8207 26.7882 52.8692 26.8112 52.9254 26.8341C52.9765 26.8546 53.025 26.8724 53.0811 26.8903C53.1322 26.9056 53.1833 26.921 53.2369 26.9337C53.2803 26.9439 53.3211 26.9516 53.3646 26.9593H53.3901C53.4412 26.9695 53.4922 26.9746 53.5433 26.9771C53.7373 26.9848 53.9186 26.9516 54.0846 26.8801L59.2065 24.6792C59.255 24.6587 59.301 24.6358 59.3444 24.6077C59.3572 24.6 59.3674 24.5923 59.3853 24.5796C59.4159 24.5592 59.444 24.5413 59.4746 24.5183C59.4848 24.5106 59.495 24.5004 59.5104 24.4877C59.5385 24.4647 59.564 24.4417 59.5895 24.4162C59.5997 24.406 59.6099 24.3957 59.6227 24.3779C59.6482 24.3523 59.6712 24.3242 59.6968 24.2962C59.7044 24.2859 59.7121 24.2757 59.7248 24.2579C59.7478 24.2272 59.7708 24.1966 59.7912 24.1659L59.8142 24.1276C59.8346 24.0945 59.8551 24.0587 59.8729 24.023C59.878 24.0127 59.8831 24.0025 59.8908 23.9847C59.9087 23.9464 59.9291 23.9055 59.947 23.8647L59.9597 23.8315C59.9776 23.7881 59.9955 23.7446 60.0083 23.7012L60.0185 23.6706C60.0338 23.6221 60.0491 23.5736 60.0619 23.5276L60.0695 23.497C60.0823 23.4434 60.0951 23.3897 60.1078 23.3387L60.1129 23.3157C60.1232 23.257 60.1359 23.1982 60.1461 23.1267C60.1564 23.0629 60.164 22.9991 60.1717 22.925C60.1793 22.8587 60.1844 22.7897 60.187 22.7386V22.7029C60.1947 22.6416 60.1972 22.5778 60.1972 22.5114V22.4961C60.2049 22.2229 60.1921 21.9292 60.164 21.6177C60.57 21.2603 60.8126 20.7496 60.833 20.2134L64.954 18.4414C66.3047 17.8593 67.0324 16.3528 66.6443 14.9332L66.652 14.9179Z" fill="white"/>
<path d="M59.0431 22.1948L60.1717 21.6024C60.5776 21.245 60.8202 20.7343 60.8406 20.1981L64.9617 18.4261C66.3124 17.844 67.0401 16.3375 66.652 14.9179C66.6366 14.8591 66.6188 14.8004 66.6009 14.7442C66.5779 14.6702 66.5498 14.5961 66.5192 14.5221C66.4732 14.4149 66.4171 14.3076 66.343 14.1825L66.3149 14.1366C66.2511 14.0319 66.1796 13.9323 66.1055 13.8404C65.6383 13.2557 64.9719 12.8727 64.2289 12.7603C63.6825 12.6786 63.1258 12.7501 62.6152 12.9697L58.4941 14.7417C58.0831 14.3842 57.5213 14.208 56.9775 14.2668L54.9399 15.2804L59.0457 22.1973L59.0431 22.1948Z" fill="#88A042"/>
<path d="M59.5563 21.7372C60.2457 21.441 60.6466 20.7593 60.6185 20.052L64.8723 18.2239C66.2689 17.6238 66.9149 16.005 66.3149 14.6109C65.7149 13.2143 64.0961 12.5708 62.702 13.1709L58.4482 14.999C57.9528 14.4935 57.1817 14.3148 56.4949 14.6109C55.8055 14.9071 55.4046 15.5889 55.4327 16.2961L52.7951 17.4298C51.3985 18.0298 50.7551 19.6486 51.3551 21.0453C51.9551 22.4419 53.5739 23.0854 54.9706 22.4853L57.6081 21.3517C58.1009 21.8572 58.8746 22.036 59.5614 21.7398L59.5563 21.7372Z" fill="#A9C153"/>
<path d="M53.0965 18.1351L55.7341 17.0014C55.7085 16.2942 56.1094 15.6124 56.7962 15.3162C57.4831 15.0201 58.2567 15.1988 58.7495 15.7044L63.0033 13.8762C64.2774 13.3272 65.7379 13.8226 66.4375 14.9741C66.4043 14.8515 66.3635 14.729 66.3124 14.609C65.7124 13.2123 64.0936 12.5689 62.6995 13.1689L58.4457 14.9971C57.9503 14.4915 57.1792 14.3128 56.4924 14.609C55.803 14.9052 55.4021 15.5869 55.4302 16.2942L52.7926 17.4278C51.396 18.0279 50.7525 19.6467 51.3526 21.0433C51.4036 21.1633 51.4675 21.2757 51.5313 21.3855C51.1764 20.0833 51.8224 18.6866 53.0965 18.1377V18.1351Z" fill="#C2DB92"/>
<path d="M60.6211 20.0528L64.8749 18.2247C66.2715 17.6246 66.9175 16.0058 66.3175 14.6117C66.2179 14.3768 66.0851 14.1675 65.9345 13.9785C66.0979 15.1735 65.4596 16.3786 64.2978 16.8791L60.5828 18.4774C60.0925 17.6425 59.2091 16.6059 59.2091 16.6059L60.067 18.697L60.0415 18.7072C60.067 19.4145 59.6661 20.0962 58.9793 20.3924C58.2899 20.6886 57.5188 20.5099 57.026 20.0043L54.3884 21.138C53.2267 21.6384 51.9117 21.2708 51.1585 20.3311C51.1917 20.5712 51.253 20.8112 51.3551 21.0461C51.9551 22.4427 53.5739 23.0862 54.9706 22.4861L57.6082 21.3525C58.1009 21.858 58.8746 22.0368 59.5614 21.7406C60.2508 21.4444 60.6517 20.7627 60.6236 20.0554L60.6211 20.0528Z" fill="#88A042"/>
<path d="M58.918 17.8337C57.5827 14.7264 55.4992 12.6352 54.2685 13.1637L49.2512 15.3187V15.3264C49.218 15.3366 49.1797 15.3494 49.144 15.3647C47.9133 15.8932 47.9975 18.8423 49.3329 21.9522C50.6683 25.0596 52.7646 27.1839 53.9978 26.6554L59.1197 24.4545C60.3504 23.9259 60.2509 20.9411 58.9155 17.8337H58.918Z" fill="white"/>
<path d="M52.6011 16.1489L56.6711 14.262C56.5485 14.1318 56.4234 14.0092 56.3009 13.8994C54.9374 14.5505 51.9066 15.9982 51.9066 15.9982C51.9066 15.9982 55.2259 19.5422 55.0651 24.8812C55.0651 24.8812 55.9255 21.0972 52.5986 16.1489H52.6011Z" fill="#EFF0F0"/>
<path d="M53.9212 26.6858C56.6609 22.1537 50.6555 15.3083 50.6555 15.3083L55.3996 13.2682C54.9834 13.0691 54.5953 13.0256 54.271 13.1661L49.2538 15.3211V15.3287C49.2206 15.3389 49.1823 15.3517 49.1465 15.367C47.9158 15.8956 48.0001 18.8446 49.3355 21.9546C50.6428 24.9981 52.6803 27.0969 53.9212 26.6858Z" fill="#EFF0F0"/>
<path d="M53.6275 26.0579C52.6777 26.4665 50.9414 24.5489 49.7516 21.7761C48.5592 19.0032 48.3626 16.4243 49.3124 16.0158C50.2623 15.6073 51.9985 17.5248 53.1909 20.2977C54.3833 23.0706 54.5799 25.6494 53.6301 26.0579H53.6275Z" fill="#E4E5E6"/>
<path d="M49.0699 19.8479C49.2384 20.4606 49.4656 21.1143 49.7516 21.7756C50.1116 22.6105 50.5202 23.3689 50.9414 24.0097L54.1918 23.8591C54.0846 22.8505 53.745 21.5943 53.1884 20.2972C52.7747 19.3346 52.2973 18.4767 51.807 17.7822L49.0673 19.8453L49.0699 19.8479Z" fill="#CFD1D2"/>
<path d="M53.1884 20.2973C52.9509 19.7432 52.6905 19.2249 52.4198 18.75L49.1567 20.1518L33.4564 26.9002C32.5806 27.2755 32.4555 28.1717 32.8334 29.0449C33.2088 29.9207 33.9441 30.4441 34.8199 30.0688L50.5202 23.3204L53.7833 21.9187C53.625 21.3952 53.4284 20.8514 53.1909 20.2973H53.1884Z" fill="white"/>
<path d="M53.1884 20.2973C52.9509 19.7432 52.6905 19.2249 52.4198 18.75L51.83 19.0028C51.8862 19.1253 51.9398 19.2479 51.9934 19.3705C52.2309 19.9245 52.4326 20.4684 52.5935 20.9892L49.624 22.2659L35.3254 28.4117C34.5288 28.7539 33.8318 28.2126 33.4564 27.3393C33.4028 27.2142 33.3594 27.0891 33.3237 26.964C32.5704 27.37 32.4759 28.2151 32.8309 29.0449C33.2062 29.9207 33.9416 30.4441 34.8173 30.0688L50.5176 23.3204L53.7807 21.9187C53.6224 21.3952 53.4258 20.8514 53.1884 20.2973Z" fill="#E4E5E6"/>
<path d="M38.9843 26.7173C38.0447 26.582 37.197 26.2067 36.3136 25.9922L34.1228 26.9344C33.3977 27.2459 33.293 27.9889 33.6045 28.714C33.916 29.4392 34.5262 29.8758 35.2514 29.5617L41.6014 26.8322C40.7231 26.8705 39.8601 26.8424 38.9818 26.7148L38.9843 26.7173Z" fill="#FFE25B"/>
<path d="M35.3254 28.415C34.5799 28.7367 33.9211 28.2822 33.533 27.5034C33.3849 27.8507 33.4206 28.2848 33.607 28.7163C33.9185 29.4414 34.5288 29.878 35.2539 29.564L41.604 26.8345C40.8023 26.8677 40.0133 26.8447 39.2141 26.7451L35.328 28.415H35.3254Z" fill="#FFCF5B"/>
<path d="M63.0084 14.9969C62.1709 15.3569 61.3538 15.3262 61.1828 14.9279C61.0117 14.5296 61.553 13.9168 62.3905 13.5568C63.228 13.1968 64.045 13.2274 64.2161 13.6257C64.3872 14.024 63.8459 14.6368 63.0084 14.9969Z" fill="#C2DB92"/>
<path d="M55.1621 24.1226C55.1621 24.1226 55.1084 25.0035 54.6616 26.3747L59.1222 24.4571C59.7529 24.1865 60.0338 23.2698 59.9802 22.0264L55.1646 24.1226H55.1621Z" fill="#EFF0F0"/>
<path d="M46.2357 46.7229V46.6999C46.2357 43.8887 38.1545 42.2061 30.3388 42.2061C22.5232 42.2061 14.4394 43.8861 14.4394 46.705C14.4394 46.705 14.4394 46.802 14.4522 46.945C14.4445 46.9935 14.4394 47.0446 14.4394 47.0931C14.4394 47.2284 14.4624 47.3637 14.5058 47.5118C14.7483 49.5392 16.0786 56.1139 23.1334 58.8255C23.1181 58.8485 23.1053 58.8715 23.0926 58.8945C23.0185 59.0298 22.9802 59.1702 22.9802 59.3107C22.9802 61.0265 28.1251 61.2129 30.3363 61.2129C32.5474 61.2129 37.6924 61.029 37.6924 59.3107C37.6924 59.1702 37.6541 59.0298 37.5826 58.8945C37.5698 58.8715 37.557 58.8485 37.5417 58.8255C44.594 56.1139 45.9268 49.5417 46.1693 47.5144C46.2153 47.3663 46.2357 47.2284 46.2357 47.0931C46.2357 47.0471 46.2306 47.0037 46.223 46.9424C46.2306 46.8301 46.2332 46.756 46.2332 46.7203L46.2357 46.7229Z" fill="white"/>
<path d="M37.3987 59.3137C37.3987 60.3631 34.2377 60.9197 30.3388 60.9197C26.4399 60.9197 23.2789 60.3657 23.2789 59.3137C23.2789 58.2618 26.4399 57.4141 30.3388 57.4141C34.2377 57.4141 37.3987 58.2643 37.3987 59.3137Z" fill="#E4E5E6"/>
<path d="M30.3363 60.1764C33.1372 60.1764 35.2641 59.4027 37.1485 58.6954C36.6506 57.7763 33.8854 57.4111 30.3363 57.4111C26.7872 57.4111 24.2185 57.7277 23.7206 58.6444C25.6075 59.3517 27.5353 60.1764 30.3363 60.1764Z" fill="#CFD1D2"/>
<path d="M45.9396 46.6992L30.3389 46.8958L14.7382 46.6992C14.7382 46.6992 14.9526 59.7338 30.3389 59.7338C45.7251 59.7338 45.9396 46.6992 45.9396 46.6992Z" fill="#EFF0F0"/>
<path d="M44.9999 46.6992L30.4103 46.8856L15.8207 46.6992C15.8207 46.6992 16.0225 58.9423 30.4103 58.9423C44.7982 58.9423 44.9999 46.6992 44.9999 46.6992Z" fill="white"/>
<path d="M43.3224 47.8027L30.3363 47.961L17.3502 47.8027C17.3502 47.8027 17.5289 58.233 30.3363 58.2356C43.1437 58.2356 43.3224 47.8027 43.3224 47.8027Z" fill="#FFC33F"/>
<path d="M42.3828 48.1064L30.3363 48.252L18.2898 48.1064C18.2898 48.1064 18.4558 57.7835 30.3363 57.7835C42.2168 57.7835 42.3828 48.1064 42.3828 48.1064Z" fill="#FFE25B"/>
<path d="M41.7726 50.9835C41.719 50.9299 41.6603 50.8813 41.5939 50.8456C39.7172 49.809 38.5324 52.8704 33.6454 53.7104C28.7584 54.5504 25.4008 51.489 25.1046 54.747C25.0152 55.7403 25.4161 56.5803 26.0161 57.2697C27.2494 57.594 28.6792 57.7829 30.3389 57.7829C37.9248 57.7829 40.736 53.8355 41.7752 50.9835H41.7726Z" fill="#FFCF5B"/>
<path d="M30.3363 48.2516L21.2414 48.1418L20.4116 49.9572C20.4116 49.9572 28.8554 54.1038 41.2951 50.7462C41.5045 50.69 41.7088 50.6338 41.9105 50.5751C42.3624 49.1606 42.3803 48.1035 42.3803 48.1035L30.3338 48.249L30.3363 48.2516Z" fill="#FFCF5B"/>
<path d="M21.5733 50.1291C21.5733 50.1291 19.7452 49.7333 19.5001 50.5734C19.3137 51.2091 20.3631 53.8825 21.4508 54.8936C21.4508 54.8936 19.2549 53.3871 18.4889 50.9691C17.894 49.0848 18.2923 49.0439 18.2923 49.0439L21.5759 50.1291H21.5733Z" fill="#FFC33F"/>
<path d="M39.1937 50.1291C39.1937 50.1291 41.0219 49.7333 41.267 50.5734C41.4534 51.2091 40.404 53.8825 39.3163 54.8936C39.3163 54.8936 41.5121 53.3871 42.2781 50.9691C42.873 49.0848 42.4747 49.0439 42.4747 49.0439L39.1912 50.1291H39.1937Z" fill="#FFC33F"/>
<g style="mix-blend-mode:overlay" opacity="0.5">
<path d="M44.9999 46.6992L30.4103 46.8856L15.8207 46.6992C15.8207 46.6992 16.0225 58.9423 30.4103 58.9423C44.7982 58.9423 44.9999 46.6992 44.9999 46.6992Z" fill="white"/>
</g>
<path d="M30.3363 51.2908C38.9523 51.2908 45.937 49.4114 45.937 47.0931C45.937 44.7749 38.9523 42.8955 30.3363 42.8955C21.7203 42.8955 14.7356 44.7749 14.7356 47.0931C14.7356 49.4114 21.7203 51.2908 30.3363 51.2908Z" fill="#EFF0F0"/>
<path d="M30.3363 51.2908C38.9523 51.2908 45.937 49.4114 45.937 47.0931C45.937 44.7749 38.9523 42.8955 30.3363 42.8955C21.7203 42.8955 14.7356 44.7749 14.7356 47.0931C14.7356 49.4114 21.7203 51.2908 30.3363 51.2908Z" fill="#EFF0F0"/>
<path d="M42.1658 49.8275C42.0585 49.8837 41.9896 49.9194 41.9896 49.9194C41.9896 49.9194 43.6569 49.6054 43.6926 50.2156C43.7233 50.7339 42.416 54.0481 40.4346 55.9171C40.4346 55.9171 41.6194 55.215 42.8781 53.3255C44.1369 51.4361 44.7293 49.0309 44.6935 48.7704C44.6935 48.7602 44.6808 48.7551 44.6706 48.75C44.0399 49.1432 43.1922 49.5058 42.1658 49.8249V49.8275Z" fill="#E4E5E6"/>
<path d="M45.9398 46.6996C45.9398 49.018 38.954 50.8972 30.3391 50.8972C21.7243 50.8972 14.7384 49.018 14.7384 46.6996C14.7384 44.3812 21.7243 42.502 30.3391 42.502C38.954 42.502 45.9398 44.3812 45.9398 46.6996Z" fill="white"/>
<path d="M44.7548 46.6997C44.7548 48.4717 38.3 49.9092 30.3388 49.9092C22.3776 49.9092 15.9229 48.4717 15.9229 46.6997C15.9229 44.9277 22.3776 43.4902 30.3388 43.4902C38.3 43.4902 44.7548 44.9277 44.7548 46.6997Z" fill="#B1D1D1"/>
<path d="M44.7548 46.6997C44.7548 48.4717 38.3 49.9092 30.3388 49.9092C22.3776 49.9092 15.9229 48.4717 15.9229 46.6997C15.9229 44.9277 22.3776 43.4902 30.3388 43.4902C38.3 43.4902 44.7548 44.9277 44.7548 46.6997Z" fill="#EFF0F0"/>
<path d="M30.3363 44.7158C23.1487 44.7158 17.3246 46.0129 17.3246 47.6113C17.3246 47.6547 17.3298 47.6981 17.34 47.7415C19.6686 48.8164 24.6118 49.5594 30.3363 49.5594C36.0608 49.5594 41.0066 48.8164 43.3326 47.7415C43.3403 47.6981 43.348 47.6547 43.348 47.6113C43.348 46.0129 37.5213 44.7158 30.3363 44.7158Z" fill="#E4E5E6"/>
<path d="M41.4943 44.665C42.776 45.8932 43.3352 47.1928 43.3352 48.089C44.2442 47.6677 44.7548 47.1979 44.7548 46.6975C44.7548 45.9264 43.5318 45.2191 41.4943 44.665Z" fill="#E4E5E6"/>
<path d="M15.9203 46.6995C15.9203 47.1974 16.431 47.6697 17.34 48.091C17.34 48.091 18.1417 46.1837 20.404 44.376C17.6438 44.9607 15.9203 45.7854 15.9203 46.6995Z" fill="#E4E5E6"/>
<path d="M30.3363 45.0605C23.1487 45.0605 17.3246 46.3576 17.3246 47.956C17.3246 47.9994 17.3298 48.0428 17.34 48.0862C19.6686 49.1612 24.6118 49.9042 30.3363 49.9042C36.0608 49.9042 41.0066 49.1612 43.3326 48.0862C43.3403 48.0428 43.348 47.9994 43.348 47.956C43.348 46.3576 37.5213 45.0605 30.3363 45.0605Z" fill="#FFC33F"/>
<path d="M41.8441 48.5616C41.8441 47.0117 36.7375 45.7529 30.4359 45.7529C24.1343 45.7529 19.0277 47.0092 19.0277 48.5616C19.0277 48.605 19.0328 48.6458 19.0405 48.6892C19.0456 48.6918 19.0507 48.6943 19.0558 48.6969C21.6985 49.4348 25.7659 49.9097 30.3363 49.9097C34.9067 49.9097 39.2039 49.4093 41.8364 48.6356C41.839 48.6101 41.8441 48.5871 41.8441 48.5616Z" fill="#FFE25B"/>
<path d="M30.4359 45.7525C27.9056 45.7525 25.5667 45.9543 23.6747 46.299C25.2476 46.2734 33.8292 46.1713 36.1145 46.7968C38.632 47.4888 36.0659 49.3655 32.5603 49.8098C32.4071 49.8302 32.2819 49.8557 32.1722 49.8812C36.1119 49.7689 39.5538 49.3042 41.839 48.6327C41.8415 48.6071 41.8466 48.5842 41.8466 48.5586C41.8466 47.0088 36.74 45.75 30.4385 45.75L30.4359 45.7525Z" fill="#FFCF5B"/>
<g style="mix-blend-mode:screen">
<path d="M22.587 52.6715C22.587 52.6715 21.6984 51.0425 20.7103 51.2391C19.7222 51.4357 21.8951 54.8418 22.7351 54.6452C23.5751 54.4486 23.2789 53.4605 22.587 52.6715Z" fill="#F7EB88"/>
</g>
<g style="mix-blend-mode:screen" opacity="0.6">
<path d="M24.6552 47.208C24.6552 47.208 21.5018 47.1927 21.1546 47.9332C20.7946 48.7017 23.8432 48.809 25.005 48.4668C26.1667 48.1247 26.8434 47.328 24.6552 47.208Z" fill="#F7EB88"/>
</g>
<g style="mix-blend-mode:screen">
<path d="M24.9054 55.1409C24.9054 55.5494 24.5735 55.8813 24.165 55.8813C23.7564 55.8813 23.4245 55.5494 23.4245 55.1409C23.4245 54.7323 23.7564 54.4004 24.165 54.4004C24.5735 54.4004 24.9054 54.7323 24.9054 55.1409Z" fill="#F7EB88"/>
</g>
<path d="M19.2294 50.5502C19.8601 50.3306 22.7734 50.7723 22.7734 50.7723C22.6585 50.7519 22.5436 50.7315 22.4338 50.711C20.2814 50.3689 18.4609 49.894 17.1331 49.3271C17.1204 49.9016 17.2991 51.7962 19.8116 54.4006C22.8474 57.5488 26.1795 57.7326 26.1795 57.7326C19.8473 56.0653 18.1315 50.9306 19.2294 50.5476V50.5502Z" fill="#E4E5E6"/>
</svg>
