<svg width="24" height="67" viewBox="0 0 24 67" fill="none" xmlns="http://www.w3.org/2000/svg">
<path d="M11.9761 24.1987V66.9259C13.3389 66.9075 14.7141 66.7479 16.1322 66.4747C16.6018 66.3826 17.0653 66.2752 17.5226 66.134C20.7425 64.7773 23.0938 61.8214 23.5296 58.2884C23.5757 57.8986 23.6002 57.5026 23.6002 57.1005V32.8516C23.6002 32.8516 23.9563 29.4782 21.0986 28.6095C21.0986 28.6095 19.5976 27.8606 19.2876 27.0901C19.2876 27.0901 19.2937 27.0901 19.3029 27.0779C19.3121 27.0687 19.3244 27.0564 19.3428 27.041C19.3889 26.995 19.4656 26.9213 19.5516 26.8139C19.5915 26.7678 19.6314 26.7187 19.6743 26.6635C19.6805 26.6543 19.6866 26.6481 19.6897 26.642C19.7357 26.5806 19.7848 26.5162 19.8309 26.4425C19.8585 26.3995 19.8831 26.3565 19.9046 26.3136C20.187 25.8224 20.4141 25.1195 20.1747 24.2938C20.0151 23.7321 19.6375 23.1152 18.9223 22.4675C18.91 22.4583 18.9008 22.446 18.8916 22.4399C18.8916 22.4399 18.8824 22.4337 18.8794 22.4307C18.8794 22.4307 18.8609 22.4399 18.8302 22.4583C18.7719 22.489 18.6706 22.5504 18.5233 22.624C18.3176 22.7315 18.0322 22.8788 17.6792 23.0323C16.3685 23.6216 14.1646 24.3982 11.9976 24.1956H11.9761V24.1987Z" fill="#C29030"/>
<path d="M0.345731 32.8517V57.1007C0.345731 60.2745 1.88048 63.0984 4.27161 64.8941C5.09423 65.5141 6.02121 66.0145 7.02187 66.3613C8.07777 66.7296 9.21041 66.9292 10.3952 66.9292H11.976V24.1958C8.5781 24.5211 5.07274 22.4277 5.07274 22.4277C2.19356 24.9969 4.6645 27.0872 4.6645 27.0872C4.35448 27.8577 2.8535 28.6066 2.8535 28.6066C-0.00726002 29.4753 0.3488 32.8486 0.3488 32.8486L0.345731 32.8517Z" fill="#C29030"/>
<path d="M9.0585 35.7334C9.07384 36.2577 9.07997 36.782 9.08611 37.3094C9.08611 37.4229 9.0861 37.5394 9.09224 37.6559C9.1137 39.2564 9.11984 40.857 9.11984 42.4575C9.12904 46.9862 9.08917 51.5118 9.15357 56.0405C9.1689 57.2639 9.50929 58.4812 10.417 59.4348C10.7543 59.7935 10.8432 60.2841 10.9843 60.7348C11.0886 61.069 11.3032 61.0751 11.5669 61.0751C11.8307 61.0751 11.9656 60.9709 12.0208 60.6888C12.1343 60.1032 12.4103 59.5942 12.7966 59.1343C13.367 58.4567 13.551 57.6288 13.7289 56.7795C13.9037 55.9363 13.7687 55.1115 13.7841 54.2836C13.8454 50.3406 13.8699 46.3975 13.8791 42.4575C13.8791 42.0098 13.8791 41.5622 13.8791 41.1145C13.8791 39.9616 13.8791 38.8088 13.8791 37.6559C13.8791 34.093 13.8699 30.5363 13.8699 26.9765C13.8699 25.6795 13.9497 24.3795 13.7933 23.0855C13.4529 22.9138 13.1217 23.1775 12.7844 23.107C11.7295 23.0794 10.6715 23.1683 9.61969 23.0426C9.47862 23.0242 9.34063 23.0365 9.23023 23.1499C9.04011 23.2664 9.12597 23.4596 9.12597 23.6129C9.1137 25.1705 9.17197 26.7251 9.10144 28.2796C8.98797 30.7663 8.99717 33.2498 9.04931 35.7334H9.0585Z" fill="#F7E8AD"/>
<path opacity="0.64" d="M11.9375 40.5869C17.8642 40.5869 22.6707 41.428 22.6707 42.4617V56.7013C22.6707 61.8118 18.5461 65.9528 13.4626 65.9528H10.4155C5.32895 65.9528 1.20734 61.8087 1.20734 56.7013V42.4617C1.20734 41.4249 6.01385 40.5869 11.9406 40.5869H11.9375Z" fill="#E4C235"/>
<path d="M9.01534 39.8549C9.02162 40.6706 9.02476 41.49 9.02476 42.3019C9.68666 42.4533 10.4741 42.5382 11.321 42.5382C12.2872 42.5382 13.1813 42.4237 13.8903 42.2318V39.9177C13.1813 39.7257 12.2841 39.6113 11.3179 39.6113C10.4646 39.6113 9.67412 39.6999 9.01221 39.8512L9.01534 39.8549Z" fill="#F7E8AD"/>
<path d="M2.18292 42.932C5.61178 44.0881 9.4185 44.6185 13.1753 44.4627C16.1263 44.3394 19.0181 43.8043 21.8786 43.2437C22.2845 43.1646 23.1214 42.7738 22.3657 42.5411C22.2408 42.5016 20.6607 42.8598 20.3921 42.8761C18.3591 42.9924 16.3543 43.4717 14.3151 43.5135C10.2804 43.5973 6.20824 43.139 2.18292 42.932Z" fill="#F6E391"/>
<path d="M4.14035 64.935C4.96987 65.5424 5.90463 66.0325 6.91368 66.3723C8.59749 66.7812 10.2442 66.9526 11.9094 66.9255C13.2837 66.9075 14.6703 66.7511 16.1003 66.4835C16.5739 66.3933 17.0413 66.2881 17.5025 66.1498C20.7494 64.8208 23.1203 61.9252 23.5599 58.4644C23.5599 58.1788 23.5661 57.8901 23.5506 57.6045C23.5939 57.1144 23.6187 56.6273 23.6311 56.1372C23.6558 55.2953 23.6465 54.4504 23.6311 53.6055C23.6249 53.2176 23.6156 52.8357 23.6125 52.4478C23.532 51.7292 23.563 51.0106 23.5506 50.289C23.5506 50.0815 23.5568 49.871 23.5134 49.6666C23.4144 49.2727 23.4608 48.8698 23.467 48.4729C23.4825 47.5769 23.4051 46.6808 23.5134 45.7878C23.5351 45.3879 23.6187 44.985 23.4918 44.5851C23.4639 44.54 23.4206 44.522 23.368 44.528C23.0615 44.4137 22.9934 44.5641 22.9965 44.8256C23.0027 45.5563 23.0027 46.2869 22.9965 47.0236C22.9718 53.6626 20.0715 60.7376 13.423 63.5489C12.9215 63.7624 12.417 63.9458 11.9032 64.1082C10.7208 64.481 9.50749 64.7215 8.25701 64.8478C7.19535 64.9501 6.13058 65.0523 5.06582 64.9922C4.7563 64.9711 4.44677 64.9501 4.13416 64.935H4.14035Z" fill="#AC801E"/>
<path d="M4.13416 22.5849C4.40314 22.8198 4.72721 22.9807 5.00591 23.1963C5.20036 23.5728 5.53091 23.6114 5.90035 23.5567C7.20637 24.1133 8.60312 24.3515 9.98043 24.6346C10.6351 24.7698 11.2962 24.8727 11.9573 24.9274C12.7675 24.995 13.5809 24.995 14.4073 24.9049C15.6776 24.7601 16.8929 24.4673 18.0628 23.9685C18.3642 23.8398 18.5846 23.9203 18.7596 24.168C18.8762 24.3386 18.9864 24.5156 19.1809 24.6185C19.1938 24.625 19.2068 24.6314 19.223 24.6346C19.304 24.6475 19.3915 24.5992 19.4758 24.5606L19.5665 25.7865C19.5211 25.8863 19.4952 25.9893 19.5244 26.1147C19.5762 26.3432 19.4628 26.6425 19.6443 26.8194L19.654 26.9288C19.654 26.9288 19.6799 26.9288 19.6929 26.9224C19.7026 26.9127 19.7156 26.8999 19.735 26.8838C19.7836 26.8355 19.8647 26.7583 19.9554 26.6457C19.9975 26.5974 20.0397 26.5459 20.085 26.488C20.0915 26.4784 20.098 26.4719 20.1012 26.4655C20.1596 26.3979 20.2114 26.3271 20.2503 26.2563C20.2795 26.2113 20.3054 26.1662 20.3281 26.1212C20.6262 25.6064 20.866 24.8695 20.6133 24.0039C20.4447 23.4151 20.0461 22.7683 19.291 22.0894C19.2781 22.0797 19.2684 22.0669 19.2586 22.0604C19.2586 22.0604 19.2489 22.054 19.2457 22.0508C19.2457 22.0508 19.2262 22.0604 19.1938 22.0797C19.1323 22.1119 19.0253 22.1763 18.8698 22.2535C18.7434 22.3372 18.6202 22.424 18.4809 22.4787C18.3156 22.5463 18.1503 22.6171 17.9786 22.6815C16.9545 23.0933 15.9207 23.4698 14.8026 23.5631C14.7638 23.5631 14.7313 23.6082 14.6925 23.6307C14.4656 23.7658 14.2031 23.6114 13.973 23.724C13.7948 23.7626 13.5906 23.6532 13.4318 23.8141C13.2374 23.9396 13.0073 23.7948 12.8063 23.901H11.9573C11.6462 23.901 11.3318 23.901 11.0207 23.901C10.823 23.7916 10.5864 23.9396 10.3888 23.8044C10.2332 23.65 10.0323 23.7594 9.85405 23.7208C9.62395 23.6114 9.36145 23.7626 9.1346 23.6275C8.30498 23.5052 7.50452 23.2671 6.71378 23C6.70081 23 6.69109 22.9936 6.67813 22.9871C6.5323 22.9421 6.3897 22.8906 6.24387 22.8423C5.74804 22.6718 5.28137 22.4594 4.84063 22.1827C4.77582 22.1409 4.70777 22.0958 4.64295 22.0701L4.13416 22.5785V22.5849Z" fill="#AC801E"/>
<path d="M6.03213 23.5562C5.7703 23.3787 5.46085 23.3448 5.21686 23.1183C4.95205 23.156 4.64558 22.8201 4.4254 23.2391C4.15761 23.7525 4.08322 24.3376 4.16654 24.9302C4.22307 25.319 4.26473 25.7645 4.70509 25.9532C4.69616 25.4285 4.74972 24.9529 5.03834 24.5414C5.2615 24.2205 5.41324 23.8732 5.82088 23.9638C6.06784 24.0167 6.14818 23.8506 6.03511 23.5599L6.03213 23.5562Z" fill="#FCFCFA"/>
<path d="M16.8171 32.2089C16.998 32.6122 17.4001 32.4924 17.6816 32.5129C18.7759 32.5859 19.7209 33.0009 20.5825 33.6585C20.8755 33.8835 21.068 34.2021 21.2058 34.5294C21.6826 35.6662 22.01 36.8498 22.1422 38.0831C22.1967 38.5858 22.2657 39.0855 22.3289 39.6116C22.5184 39.5502 22.5357 39.4099 22.5357 39.2667C22.527 38.5419 22.6477 37.8259 22.6247 37.0982C22.6075 36.4962 22.6735 35.8883 22.6706 35.2921C22.662 34.0121 22.6936 32.7204 22.3777 31.4608C22.2542 30.9727 22.0072 30.5431 21.7659 30.1106C21.7056 29.9995 21.6252 29.8183 21.4241 29.8622C20.5825 30.8471 19.5198 31.4666 18.3078 31.8465C18.0033 31.943 17.696 32.0073 17.3772 32.0365C17.1847 32.054 16.9779 32.0599 16.8171 32.206V32.2089Z" fill="#AC801E"/>
<path d="M14.9902 28.8799C16.0091 28.8364 17.0934 28.4357 18.162 27.9348C18.2552 27.8913 18.3422 27.8129 18.4323 27.7519C18.6249 27.6299 18.8331 27.4339 18.7492 27.1378C18.6622 26.8198 18.4075 26.9418 18.2149 27.0071C17.8017 27.1509 17.3792 27.2728 16.9784 27.4644C16.2018 27.839 15.3909 27.8869 14.5894 28.035C14.3129 28.0873 13.8811 28.1221 13.8904 28.4967C13.8997 28.8625 14.3315 28.8625 14.6174 28.8756C14.7043 28.8756 14.7882 28.8756 14.9902 28.8756V28.8799Z" fill="#AD801E"/>
<path d="M9.01694 28.8536C9.28751 28.9145 9.53941 28.8189 9.78821 28.7363C9.89705 28.7015 9.97791 28.632 9.98724 28.4669C9.99657 28.2844 9.88461 28.2452 9.79754 28.1844C9.48343 27.9628 9.12268 27.941 8.79302 27.928C7.74808 27.8889 6.78089 27.3848 5.78882 27.0415C5.7204 27.0198 5.65509 26.9589 5.58356 26.9546C5.41563 26.9372 5.20726 26.8503 5.12951 27.1371C5.04865 27.4283 5.23214 27.563 5.38453 27.6716C6.22421 28.2626 7.1261 28.5538 8.04664 28.7233C8.37007 28.7797 8.68729 28.9536 9.01383 28.8449L9.01694 28.8536Z" fill="#AC801E"/>
<path d="M11.9964 28.8671C12.2078 28.8134 12.4916 28.9983 12.7543 28.7299C12.8268 28.6524 12.9113 28.5808 12.9143 28.39C12.9204 28.1873 12.8449 28.1038 12.7603 28.068C12.2501 27.8533 11.7368 27.8652 11.2235 28.0143C11.0997 28.0501 10.9548 28.1217 10.9638 28.4377C10.9729 28.7896 11.1359 28.8432 11.2718 28.8611C11.4922 28.8909 11.7157 28.8671 11.9964 28.8671Z" fill="#AD801D"/>
<path d="M14.8678 32.224C15.1528 32.9479 15.4572 32.8534 15.7654 32.5781C15.8197 32.5309 15.8507 32.3184 15.8391 32.0745C15.8294 31.8542 15.7809 31.7677 15.7383 31.8228C15.4552 32.2004 15.1567 31.87 14.8659 32.224H14.8678Z" fill="#AE801E"/>
<path d="M2.18292 31.2971C2.2027 31.498 2.13206 31.7272 2.30443 31.7963C2.44855 31.8559 2.5305 31.6456 2.63788 31.5451C2.76221 31.429 2.83003 31.2783 2.90633 31.1276C3.23695 30.4589 3.74277 29.9911 4.29945 29.5642C4.67246 29.2754 5.04829 28.952 5.10481 28.3744C5.11894 28.2206 5.10764 28.0856 5.00591 27.9882C4.8957 27.8878 4.7318 27.8689 4.6442 27.9788C4.04796 28.7354 3.11827 29.065 2.6181 29.9284C2.37508 30.349 2.19705 30.8105 2.18292 31.294V31.2971Z" fill="#FCFCFA"/>
<path d="M19.5588 25.0102C18.9989 24.8088 18.7589 25.5984 18.7685 25.7662C18.7813 25.98 19.1588 26.0118 19.37 25.8546C19.5268 25.738 19.5268 25.5702 19.6067 25.4359C19.6931 25.2875 19.8883 25.1285 19.562 25.0102H19.5588Z" fill="#FCFCF8"/>
<path d="M19.0355 63.9983C19.3581 63.9195 19.6442 63.7487 19.7358 63.3457C19.7798 63.153 19.6368 62.9866 19.4571 63.0348C19.1381 63.1224 18.8741 63.337 18.7751 63.7224C18.7384 63.8625 18.8521 64.0289 19.0355 63.9983Z" fill="#FCFBF1"/>
<path d="M16.4359 16.9757C16.1781 16.0303 15.8251 15.1095 15.8343 14.1058C15.8497 12.6877 16.1443 11.3432 16.6723 10.0233C17.1204 8.89992 17.5225 7.73352 17.5256 6.50879C17.5287 4.47679 16.6569 2.87758 14.9933 1.69276C13.9527 0.949944 12.8323 0.514079 11.5432 0.596955C10.5272 0.661414 9.61552 1.01747 8.79597 1.61295C7.70323 2.40795 6.81308 3.35335 6.41405 4.68858C5.97818 6.14658 6.18384 7.54627 6.64119 8.96744C7.03408 10.1952 7.6357 11.3678 7.76462 12.6754C7.90275 14.0597 7.82601 15.4226 7.3042 16.7363C7.2735 16.81 7.27351 16.8959 7.25816 16.9757C7.08934 17.4945 7.17528 17.9365 7.50679 18.3969C8.08692 19.2011 8.90954 19.4405 9.81504 19.5541C10.0545 19.5848 10.297 19.594 10.5272 19.6493C11.9361 19.9869 13.302 19.6094 14.6771 19.3976C15.4261 19.2809 15.8988 18.7745 16.3039 18.2066C16.5618 17.8413 16.5004 17.3993 16.4359 16.9788V16.9757Z" fill="#583114"/>
<path d="M4.379 18.4279C4.18255 18.6427 4.09967 18.8913 4.11195 19.1891C4.13344 19.6833 4.14265 20.1775 4.11195 20.6686C4.06591 21.35 4.23166 21.9547 4.64604 22.4919C5.76641 23.0689 6.91132 23.5999 8.1514 23.8424C9.71684 24.1494 11.3038 24.4993 12.8999 24.2998C14.9687 24.0389 17.0376 23.6736 18.8608 22.541C18.9099 22.5103 18.9529 22.4765 18.9898 22.4305C19.4226 22.0805 19.5607 21.5772 19.5637 21.0707C19.5699 20.3371 19.6159 19.6004 19.5054 18.8668C19.4778 18.6826 19.4041 18.5598 19.309 18.4279C19.1463 18.3757 19.0358 18.4678 18.9345 18.569C18.6644 18.8484 18.3452 19.0632 18.0075 19.2351C16.307 20.1007 14.5329 20.7208 12.6022 20.8681C10.079 21.0615 7.80148 20.3033 5.60065 19.1983C5.2845 19.0387 4.9929 18.8392 4.74734 18.5752C4.64911 18.4708 4.54475 18.3695 4.379 18.4248V18.4279Z" fill="#4E3117"/>
<path d="M4.37899 18.4265C5.68966 19.6573 7.35332 20.1638 9.01392 20.6549C9.9716 20.9373 10.9753 21.0877 11.9698 21.0417C13.5199 20.9711 15.0424 20.6948 16.4789 20.0625C17.2524 19.7218 18.0413 19.421 18.735 18.9115C18.9376 18.7611 19.0358 18.494 19.3059 18.4296C19.2844 17.8586 18.7288 17.2938 18.0044 17.1649C17.4857 17.0728 16.9577 17.036 16.4329 16.9746C16.4083 17.0391 16.35 17.1097 16.3592 17.1711C16.4666 17.831 16.1413 18.2761 15.7085 18.7273C15.4107 19.0404 15.0669 19.1908 14.6894 19.2614C13.7808 19.4333 12.8692 19.599 11.9514 19.6819C11.4726 19.7249 10.9784 19.599 10.4934 19.5254C9.89793 19.4333 9.29938 19.3627 8.71618 19.2C7.9795 18.9943 7.295 18.1103 7.31035 17.3491C7.31035 17.2263 7.27352 17.1005 7.25203 16.9777C6.63506 17.0452 6.00275 17.0452 5.41341 17.2509C4.83941 17.4504 4.28998 17.8433 4.37592 18.4296L4.37899 18.4265Z" fill="#362212"/>
<path d="M9.13056 6.39523C9.13977 5.95936 9.11214 5.52657 9.21343 5.09377C9.36998 4.42462 9.6493 3.84756 10.2693 3.48536C10.4382 3.38714 10.5947 3.26129 10.7635 3.16307C11.0551 2.99425 11.2823 2.78859 11.1349 2.42025C10.9262 1.90458 10.5333 1.70506 10.0698 1.85547C8.30486 2.41718 7.37481 3.66953 7.44234 5.50508C7.4761 6.40444 7.73701 7.25162 8.41844 7.90542C8.53815 8.01899 8.65172 8.15712 8.8543 8.07731C9.0354 8.00365 9.01699 7.85018 9.05382 7.6967C9.15511 7.2639 9.12442 6.82804 9.13056 6.39217V6.39523Z" fill="#90592F"/>
<path d="M15.2112 16.7577C15.4077 16.196 15.3586 15.7079 15.3094 15.2414C15.1345 13.6053 15.245 12.0153 15.9049 10.4867C15.9939 10.2811 16.1351 10.0386 15.8712 9.88819C15.6103 9.74392 15.4107 9.9281 15.2757 10.143C14.8183 10.8704 14.5943 11.6685 14.4715 12.5157C14.2996 13.7036 14.5574 14.8301 14.8214 15.9658C14.8828 16.2267 15.0148 16.4538 15.2143 16.7577H15.2112Z" fill="#905931"/>
<path d="M10.9569 18.6207C11.3283 18.9583 11.7765 18.9952 12.1939 19.0075C13.0595 19.0351 13.9005 18.8693 14.6741 18.4549C14.9288 18.3199 15.1253 18.1204 15.2634 17.8656C15.3432 17.7183 15.377 17.5617 15.2143 17.4512C15.0792 17.3622 14.9472 17.4082 14.8337 17.5188C14.0448 18.2677 13.0227 18.3537 12.0251 18.5071C11.6721 18.5624 11.313 18.5808 10.9569 18.6176V18.6207Z" fill="#905930"/>
<path d="M9.29934 9.34505C9.25944 9.1087 9.11517 8.92454 8.7898 8.91533C8.46751 8.90612 8.33859 9.11791 8.29562 9.37881C8.25878 9.59982 8.61484 9.93439 8.84198 9.92518C9.0722 9.91904 9.29013 9.67042 9.29934 9.34505Z" fill="#905931"/>
<path d="M17.7926 20.9201C17.765 21.224 17.7988 21.5862 17.9369 21.93C18.0044 22.1019 18.1149 22.2983 18.3052 22.2922C18.4925 22.2861 18.603 22.1019 18.6521 21.9147C18.7902 21.3867 18.7565 20.8526 18.6828 20.3247C18.649 20.076 18.4802 19.8182 18.161 19.8888C17.8817 19.9502 17.7681 20.1804 17.7926 20.472C17.8018 20.5978 17.7926 20.7268 17.7926 20.9171V20.9201Z" fill="#362212"/>
<path d="M4.97445 21.1536C5.00207 21.3777 4.89464 21.7061 5.06039 22.013C5.12792 22.1389 5.19545 22.277 5.34893 22.2985C5.53616 22.3261 5.62211 22.1634 5.69885 22.0407C5.9045 21.7184 5.80321 21.3285 5.89223 20.9756C5.93827 20.7914 5.89836 20.5827 5.90143 20.3862C5.90143 20.1038 5.75717 19.9074 5.49319 19.8859C5.20466 19.8613 5.01435 20.0547 4.98059 20.3402C4.94989 20.5765 4.97445 20.819 4.97445 21.1536Z" fill="#362212"/>
<path d="M14.8981 21.5918C14.8704 21.9203 14.9288 22.2364 15.0208 22.5464C15.0608 22.6784 15.1191 22.8166 15.291 22.838C15.4782 22.8595 15.5273 22.7153 15.5856 22.5894C15.8066 22.0983 15.7821 21.5765 15.733 21.0608C15.7115 20.8337 15.5396 20.6679 15.3094 20.6587C15.07 20.6464 14.9809 20.8644 14.9349 21.0516C14.8919 21.2266 14.9103 21.4138 14.9011 21.5949L14.8981 21.5918Z" fill="#362212"/>
<path d="M7.94567 21.6385C7.92725 21.9792 7.93032 22.3168 8.08994 22.6299C8.2342 22.9123 8.39689 22.8878 8.56878 22.6668C8.8082 22.366 8.87572 21.1842 8.67928 20.8619C8.59333 20.7176 8.44907 20.6225 8.29252 20.6593C8.10835 20.7023 7.97023 20.8435 7.94874 21.0461C7.93032 21.2425 7.94567 21.442 7.94567 21.6385Z" fill="#362212"/>
<path d="M13.2068 22.476C13.2068 22.2366 13.2038 21.9941 13.2068 21.7546C13.2099 21.5306 13.1332 21.3525 12.8937 21.3249C12.6482 21.2973 12.5162 21.4907 12.4855 21.681C12.3965 22.212 12.3965 22.743 12.6328 23.2495C12.6574 23.3017 12.6819 23.3508 12.7188 23.3968C12.8078 23.5104 12.7525 23.7713 12.9643 23.7375C13.1823 23.7007 13.1761 23.4521 13.1945 23.2832C13.2252 23.0193 13.2038 22.7461 13.2038 22.479H13.2068V22.476Z" fill="#362212"/>
<path d="M11.3191 22.476C11.3191 22.2366 11.3161 21.9941 11.3191 21.7546C11.3222 21.5306 11.2455 21.3525 11.006 21.3249C10.7605 21.2973 10.6285 21.4907 10.5978 21.681C10.5088 22.212 10.5088 22.743 10.7451 23.2495C10.7697 23.3017 10.7942 23.3508 10.8311 23.3968C10.9201 23.5104 10.8648 23.7713 11.0766 23.7375C11.2946 23.7007 11.2884 23.4521 11.3069 23.2832C11.3375 23.0193 11.3161 22.7461 11.3161 22.479H11.3191V22.476Z" fill="#362212"/>
<path d="M16.4359 21.5033C16.4267 21.7611 16.4298 21.9821 16.5127 22.2C16.6017 22.4395 16.7521 22.4671 16.8657 22.2645C17.1757 21.7151 17.2954 21.1073 17.2616 20.4781C17.2524 20.297 17.0805 20.2079 16.8841 20.211C16.6447 20.2141 16.5526 20.3921 16.5372 20.5701C16.5127 20.8924 16.3745 21.2025 16.4359 21.5033Z" fill="#362212"/>
<path d="M6.4079 20.8217C6.41711 21.2606 6.5583 21.675 6.68722 22.0894C6.73019 22.2306 6.8407 22.3902 7.01259 22.3748C7.15071 22.3595 7.15378 22.1876 7.19369 22.0679C7.36865 21.5491 7.17527 21.0427 7.11388 20.5362C7.08932 20.3428 6.92664 20.1648 6.68415 20.2293C6.3772 20.3121 6.41097 20.5792 6.41097 20.8217H6.4079Z" fill="#362212"/>
<path d="M13.7164 22.13C13.7041 22.4124 13.6949 22.6978 13.8269 22.9557C13.9405 23.1828 14.14 23.2596 14.2566 22.9956C14.4807 22.4983 14.5759 21.9642 14.493 21.4148C14.4623 21.2091 14.3334 21.1416 14.1369 21.1416C13.9343 21.1416 13.8422 21.2275 13.7747 21.4179C13.6918 21.6542 13.7287 21.8906 13.7133 22.1269L13.7164 22.13Z" fill="#362212"/>
<path d="M21.8264 57.0398C21.7647 57.3532 21.8796 57.681 21.7591 57.9885C21.5994 58.2351 21.7759 58.5281 21.6554 58.7805C21.7311 59.9816 21.1847 60.9998 20.7195 62.05C21.0361 61.9543 21.2099 61.7164 21.3836 61.4988C21.9132 60.8432 22.2271 60.0947 22.3588 59.236C22.6615 57.2835 22.6755 55.3224 22.6699 53.3554C22.6699 53.045 22.5802 52.752 22.5802 52.4474C22.3168 52.1834 22.1683 52.2733 22.1038 52.6156C21.9889 53.2104 21.9497 53.8109 21.9637 54.4143C21.9693 54.5855 21.9581 54.7567 21.9525 54.9278C21.9441 55.1976 22.0365 55.4761 21.8796 55.7314C21.7984 56.1637 21.8964 56.6018 21.8264 57.034V57.0398Z" fill="#FCFDFC"/>
<path d="M6.08535 48.3916C7.38616 48.3916 7.38616 49.3672 6.08535 49.3672C4.78454 49.3672 4.78454 48.3916 6.08535 48.3916Z" fill="#F6E391"/>
<path d="M7.54878 51.3184C8.19919 51.3184 8.19919 52.294 7.54878 52.294C6.89837 52.294 6.89837 51.3184 7.54878 51.3184Z" fill="#F6E391"/>
<path d="M8.52436 48.3916C9.17477 48.3916 9.17477 49.3672 8.52436 49.3672C7.87396 49.3672 7.87396 48.3916 8.52436 48.3916Z" fill="#F6E391"/>
<path d="M5.59755 46.4404C6.24795 46.4404 6.24795 47.416 5.59755 47.416C4.94714 47.416 4.94714 46.4404 5.59755 46.4404Z" fill="#F6E391"/>
</svg>
