<svg width="1041" height="85" viewBox="0 0 1041 85" fill="none" xmlns="http://www.w3.org/2000/svg">
<line y1="35.5312" x2="1040.03" y2="35.5312" stroke="#AA9166"/>
<line x1="0.015625" y1="45.5" x2="1040.05" y2="45.5" stroke="#AA9166"/>
<line x1="0.03125" y1="55.4688" x2="1040.06" y2="55.4688" stroke="#AA9166"/>
<line x1="0.046875" y1="65.4375" x2="1040.08" y2="65.4375" stroke="#AA9166"/>
<path d="M319.276 66.325C318.756 66.325 318.366 66.26 318.106 66.13C317.846 66.0433 317.716 65.87 317.716 65.61C317.716 65.09 318.496 64.7 320.056 64.44C321.659 64.1367 323.111 63.6383 324.411 62.945C325.711 62.2083 326.577 61.0817 327.011 59.565L336.176 29.6C336.652 28.04 336.717 27.065 336.371 26.675C336.067 26.2417 335.201 25.8733 333.771 25.57C333.121 25.44 332.687 25.2667 332.471 25.05C332.254 24.8333 332.146 24.5733 332.146 24.27C332.146 24.01 332.341 23.8367 332.731 23.75C333.121 23.62 333.576 23.555 334.096 23.555C335.179 23.555 336.046 23.5767 336.696 23.62C337.389 23.6633 338.039 23.7283 338.646 23.815C339.252 23.8583 339.989 23.88 340.856 23.88C341.852 23.88 342.741 23.8583 343.521 23.815C344.301 23.7283 345.102 23.6633 345.926 23.62C346.749 23.5767 347.702 23.555 348.786 23.555C349.782 23.555 350.281 23.7933 350.281 24.27C350.281 24.6167 350.042 24.8767 349.566 25.05C349.089 25.18 348.482 25.2883 347.746 25.375C346.619 25.4617 345.601 25.6567 344.691 25.96C343.824 26.22 343.087 26.61 342.481 27.13C341.874 27.6067 341.441 28.2783 341.181 29.145L332.406 58.655C331.929 60.3017 331.864 61.6233 332.211 62.62C332.557 63.5733 333.532 64.05 335.136 64.05H340.336C342.719 64.05 344.626 63.8117 346.056 63.335C347.529 62.815 348.677 62.1433 349.501 61.32C350.324 60.4967 351.017 59.6733 351.581 58.85C352.144 58.0267 352.772 57.1167 353.466 56.12C353.682 55.86 353.834 55.6867 353.921 55.6C354.051 55.5133 354.246 55.47 354.506 55.47C354.722 55.47 354.852 55.535 354.896 55.665C354.982 55.795 355.026 55.99 355.026 56.25C355.026 56.5533 354.896 57.095 354.636 57.875C354.419 58.655 354.137 59.5433 353.791 60.54C353.444 61.4933 353.076 62.4033 352.686 63.27C352.339 64.1367 352.014 64.8083 351.711 65.285C351.537 65.545 351.321 65.7833 351.061 66C350.801 66.2167 350.519 66.325 350.216 66.325C347.746 66.325 345.449 66.3033 343.326 66.26C341.246 66.2167 339.274 66.1733 337.411 66.13C335.547 66.0867 333.792 66.0433 332.146 66C330.499 65.9567 328.917 65.935 327.401 65.935C325.797 65.935 324.454 66 323.371 66.13C322.287 66.26 320.922 66.325 319.276 66.325ZM363.801 66.975C362.891 66.975 361.959 66.6283 361.006 65.935C360.096 65.2417 359.338 64.375 358.731 63.335C358.124 62.2517 357.821 61.2117 357.821 60.215C357.821 58.0483 358.254 55.7517 359.121 53.325C360.031 50.855 361.266 48.5583 362.826 46.435C364.386 44.2683 366.184 42.5133 368.221 41.17C370.301 39.7833 372.489 39.09 374.786 39.09C376.303 39.09 377.473 39.415 378.296 40.065C379.163 40.6717 379.596 41.5383 379.596 42.665C379.596 44.0083 379.163 45.1783 378.296 46.175C377.473 47.1717 376.346 48.0383 374.916 48.775C373.486 49.4683 371.883 50.0533 370.106 50.53C368.373 51.0067 366.596 51.4183 364.776 51.765C364.516 51.8083 364.299 51.8733 364.126 51.96C363.996 52.0033 363.888 52.155 363.801 52.415C363.498 53.3683 363.194 54.4083 362.891 55.535C362.588 56.6617 362.436 57.7233 362.436 58.72C362.436 60.2367 362.718 61.4067 363.281 62.23C363.888 63.0533 364.754 63.465 365.881 63.465C367.441 63.465 368.763 63.075 369.846 62.295C370.929 61.515 371.818 60.735 372.511 59.955C372.944 59.4783 373.334 59.24 373.681 59.24C374.114 59.24 374.331 59.4567 374.331 59.89C374.331 59.9333 374.331 60.02 374.331 60.15C374.331 60.2367 374.288 60.3233 374.201 60.41C373.334 61.84 372.359 63.0533 371.276 64.05C370.193 65.0033 369.023 65.7183 367.766 66.195C366.553 66.715 365.231 66.975 363.801 66.975ZM365.231 50.27C365.708 50.27 366.509 50.14 367.636 49.88C368.806 49.5767 370.019 49.1217 371.276 48.515C372.533 47.865 373.594 47.085 374.461 46.175C375.371 45.2217 375.826 44.095 375.826 42.795C375.826 42.2317 375.674 41.755 375.371 41.365C375.068 40.9317 374.634 40.715 374.071 40.715C373.161 40.715 372.164 41.105 371.081 41.885C370.041 42.6217 369.044 43.5317 368.091 44.615C367.138 45.655 366.336 46.6733 365.686 47.67C365.079 48.6667 364.776 49.4033 364.776 49.88C364.776 50.14 364.928 50.27 365.231 50.27ZM381.989 66.91C381.469 66.91 380.949 66.7583 380.429 66.455C379.909 66.195 379.476 65.8483 379.129 65.415C378.826 64.9817 378.674 64.5267 378.674 64.05C378.674 62.49 379.194 60.6917 380.234 58.655C381.274 56.575 382.726 54.4083 384.589 52.155C386.453 49.8583 388.598 47.6483 391.024 45.525C393.364 43.4883 395.271 41.9717 396.744 40.975C398.218 39.935 399.301 39.415 399.994 39.415C400.688 39.415 401.294 39.7183 401.814 40.325C402.421 41.105 402.681 41.4733 402.594 41.43C402.551 41.3433 402.551 41.3 402.594 41.3C402.681 41.3 402.746 41.2783 402.789 41.235C402.876 41.1483 402.941 41.04 402.984 40.91C403.591 39.87 403.959 39.2417 404.089 39.025C404.219 38.8083 404.219 38.7867 404.089 38.96C404.349 38.5267 404.609 38.31 404.869 38.31C405.259 38.31 405.649 38.375 406.039 38.505C406.429 38.635 406.733 38.8083 406.949 39.025C407.209 39.2417 407.339 39.4583 407.339 39.675C407.339 39.8917 407.188 40.4333 406.884 41.3L399.604 60.605C399.041 62.0783 399.323 62.815 400.449 62.815C401.229 62.815 402.161 62.4467 403.244 61.71C404.371 60.93 405.346 59.9983 406.169 58.915C406.256 58.8283 406.343 58.7633 406.429 58.72C406.559 58.6333 406.668 58.59 406.754 58.59C406.928 58.59 407.036 58.655 407.079 58.785C407.166 58.8717 407.209 59.045 407.209 59.305C407.209 59.6083 406.906 60.215 406.299 61.125C405.693 61.9917 405.064 62.75 404.414 63.4C403.201 64.5267 401.966 65.3933 400.709 66C399.496 66.6067 398.369 66.91 397.329 66.91C396.896 66.91 396.463 66.78 396.029 66.52C395.596 66.26 395.228 65.935 394.924 65.545C394.664 65.155 394.534 64.765 394.534 64.375C394.534 63.8983 394.664 63.4 394.924 62.88C394.751 63.27 394.729 63.27 394.859 62.88C395.033 62.49 395.293 61.8833 395.639 61.06C396.029 60.2367 396.441 59.37 396.874 58.46C397.308 57.55 397.676 56.7483 397.979 56.055C398.196 55.5783 398.283 55.2317 398.239 55.015C398.239 54.755 398.109 54.7767 397.849 55.08C395.206 58.0267 392.931 60.3667 391.024 62.1C389.161 63.8333 387.514 65.0683 386.084 65.805C384.654 66.5417 383.289 66.91 381.989 66.91ZM385.629 62.815C386.583 62.815 387.991 62.035 389.854 60.475C391.761 58.8717 393.906 56.6617 396.289 53.845C397.936 51.9383 399.236 50.1833 400.189 48.58C401.143 46.9767 401.619 45.785 401.619 45.005C401.619 44.6583 401.338 44.2467 400.774 43.77C400.514 43.5533 400.233 43.38 399.929 43.25C399.626 43.12 399.366 43.055 399.149 43.055C398.369 43.055 397.286 43.445 395.899 44.225C394.556 45.005 393.321 45.9367 392.194 47.02C390.764 48.4067 389.399 49.9667 388.099 51.7C386.799 53.4333 385.738 55.1017 384.914 56.705C384.134 58.3083 383.744 59.6083 383.744 60.605C383.744 61.255 383.918 61.7967 384.264 62.23C384.611 62.62 385.066 62.815 385.629 62.815ZM413.624 67.105C413.407 67.105 413.169 67.0183 412.909 66.845C412.649 66.715 412.432 66.52 412.259 66.26C412.085 66.0433 411.999 65.805 411.999 65.545C411.999 65.025 412.129 64.375 412.389 63.595C412.692 62.7717 413.06 61.7533 413.494 60.54L419.474 44.94C419.69 44.3767 419.777 43.8567 419.734 43.38C419.734 42.9033 419.517 42.665 419.084 42.665C418.477 42.665 417.87 42.7517 417.264 42.925C416.7 43.055 416.267 43.2067 415.964 43.38C415.704 43.5533 415.444 43.5967 415.184 43.51C414.967 43.38 414.859 43.1633 414.859 42.86C414.859 42.5133 415.01 42.1233 415.314 41.69C415.66 41.2567 416.115 40.845 416.679 40.455C417.199 40.065 417.805 39.74 418.499 39.48C419.235 39.22 419.994 39.09 420.774 39.09C421.987 39.09 422.745 39.3933 423.049 40C423.395 40.6067 423.439 41.43 423.179 42.47C422.962 43.4667 422.594 44.615 422.074 45.915L419.149 53.26C418.975 53.5633 419.019 53.7583 419.279 53.845C419.582 53.9317 419.799 53.8667 419.929 53.65C421.662 50.66 423.395 48.06 425.129 45.85C426.905 43.5967 428.552 41.8633 430.069 40.65C431.585 39.3933 432.842 38.765 433.839 38.765C434.965 38.765 435.745 39.09 436.179 39.74C436.655 40.39 436.894 41.1483 436.894 42.015C436.894 42.795 436.742 43.5967 436.439 44.42C436.179 45.2433 435.789 45.9367 435.269 46.5C434.792 47.02 434.25 47.28 433.644 47.28C433.297 47.28 433.037 47.085 432.864 46.695C432.69 46.2617 432.604 45.6983 432.604 45.005C432.604 44.355 432.517 43.8567 432.344 43.51C432.17 43.12 431.845 42.925 431.369 42.925C430.935 42.925 430.35 43.2067 429.614 43.77C428.92 44.3333 428.032 45.3083 426.949 46.695C426.472 47.345 425.844 48.2333 425.064 49.36C424.284 50.4867 423.439 51.7433 422.529 53.13C421.662 54.4733 420.795 55.86 419.929 57.29C419.062 58.6767 418.304 59.955 417.654 61.125C416.484 63.205 415.639 64.7217 415.119 65.675C414.642 66.6283 414.144 67.105 413.624 67.105ZM438.448 67.04C438.188 67.04 437.928 66.9317 437.668 66.715C437.451 66.5417 437.256 66.3033 437.083 66C436.909 65.74 436.779 65.4367 436.693 65.09C436.649 64.7433 436.693 64.44 436.823 64.18L444.363 45.72C445.143 43.8133 445.186 42.86 444.493 42.86C444.059 42.86 443.604 42.925 443.128 43.055C442.651 43.1417 442.131 43.4017 441.568 43.835C441.004 44.2683 440.376 44.94 439.683 45.85C439.509 46.0233 439.314 46.11 439.098 46.11C438.924 46.0667 438.794 45.8933 438.708 45.59C438.708 45.33 438.773 45.005 438.903 44.615C439.076 44.1817 439.271 43.77 439.488 43.38C439.704 42.9467 439.899 42.6 440.073 42.34C440.723 41.3433 441.589 40.5633 442.673 40C443.799 39.4367 445.099 39.1333 446.573 39.09C447.049 39.09 447.483 39.22 447.873 39.48C448.263 39.6967 448.544 40.0217 448.718 40.455C448.934 40.8883 448.934 41.365 448.718 41.885L444.428 52.935C444.298 53.2383 444.319 53.4117 444.493 53.455C444.709 53.4983 444.883 53.4117 445.013 53.195C446.789 50.1617 448.588 47.605 450.408 45.525C452.271 43.4017 454.048 41.7983 455.738 40.715C457.428 39.6317 458.923 39.09 460.223 39.09C461.133 39.09 461.913 39.415 462.563 40.065C463.256 40.6717 463.689 41.5167 463.863 42.6C464.079 43.64 463.884 44.8533 463.278 46.24L457.298 60.41C456.648 61.97 456.756 62.75 457.623 62.75C458.143 62.75 458.771 62.555 459.508 62.165C460.288 61.775 461.068 61.32 461.848 60.8C462.628 60.2367 463.299 59.7383 463.863 59.305C464.469 58.8283 464.859 58.5033 465.033 58.33C465.076 58.2867 465.098 58.265 465.098 58.265C465.141 58.265 465.184 58.265 465.228 58.265C465.358 58.265 465.466 58.33 465.553 58.46C465.683 58.5467 465.748 58.6767 465.748 58.85C465.748 59.1967 465.661 59.5 465.488 59.76C464.361 61.1033 463.148 62.3167 461.848 63.4C460.591 64.4833 459.269 65.35 457.883 66C456.539 66.6067 455.174 66.91 453.788 66.91C453.398 66.91 453.008 66.7583 452.618 66.455C452.228 66.195 451.924 65.8483 451.708 65.415C451.534 64.9817 451.556 64.5267 451.773 64.05C453.029 61.1467 454.286 58.265 455.543 55.405C456.843 52.5017 458.056 49.5983 459.183 46.695C459.876 44.9183 460.114 43.6833 459.898 42.99C459.681 42.2533 459.269 41.8633 458.663 41.82C458.186 41.7767 457.623 41.95 456.973 42.34C456.323 42.6867 455.586 43.25 454.763 44.03C453.939 44.7667 453.051 45.72 452.098 46.89C451.578 47.4967 450.884 48.45 450.018 49.75C449.151 51.0067 448.176 52.48 447.093 54.17C446.009 55.8167 444.883 57.5933 443.713 59.5C442.586 61.3633 441.503 63.205 440.463 65.025C440.073 65.7183 439.726 66.2167 439.423 66.52C439.119 66.8667 438.794 67.04 438.448 67.04ZM479.303 66.325C478.783 66.325 478.414 66.26 478.198 66.13C477.981 66 477.829 65.7833 477.743 65.48C477.699 65.1333 477.894 64.8733 478.328 64.7C478.718 64.4833 479.259 64.2883 479.953 64.115C481.166 63.7683 482.271 63.3567 483.268 62.88C484.308 62.4033 485.261 61.84 486.128 61.19C486.994 60.4967 487.774 59.76 488.468 58.98C491.674 55.4267 494.599 52.0033 497.243 48.71C499.929 45.4167 502.508 42.145 504.978 38.895C507.448 35.645 509.983 32.3517 512.583 29.015C513.103 28.365 513.558 27.78 513.948 27.26C514.338 26.74 514.663 26.3283 514.923 26.025C515.183 25.7217 515.399 25.57 515.573 25.57C516.483 25.57 517.089 25.4183 517.393 25.115C517.739 24.8117 518.173 24.3783 518.693 23.815C519.299 23.1217 519.711 22.6667 519.928 22.45C520.188 22.19 520.426 22.06 520.643 22.06C520.859 22.06 521.011 22.19 521.098 22.45C521.184 22.71 521.141 23.2733 520.968 24.14L514.208 58.07C513.774 60.15 513.731 61.645 514.078 62.555C514.468 63.4217 515.269 64.0283 516.483 64.375C517.176 64.5483 517.696 64.7217 518.043 64.895C518.389 65.025 518.563 65.2417 518.563 65.545C518.563 65.805 518.411 66 518.108 66.13C517.804 66.26 517.284 66.325 516.548 66.325C515.984 66.325 515.248 66.2817 514.338 66.195C513.471 66.1517 512.539 66.0867 511.543 66C510.546 65.9567 509.593 65.935 508.683 65.935C507.903 65.935 507.101 65.935 506.278 65.935C505.498 65.935 504.739 65.9567 504.003 66C503.309 66 502.724 66 502.248 66C501.338 66 500.818 65.74 500.688 65.22C500.644 64.9167 500.796 64.6567 501.143 64.44C501.489 64.18 501.944 64.0067 502.508 63.92C503.938 63.66 505.043 63.3783 505.823 63.075C506.646 62.7283 507.274 62.23 507.708 61.58C508.184 60.8867 508.574 59.9333 508.878 58.72L510.893 50.985C511.066 50.335 510.936 49.88 510.503 49.62C510.113 49.36 509.614 49.23 509.008 49.23L501.728 49.36C501.034 49.36 500.471 49.4467 500.038 49.62C499.648 49.75 499.279 50.0533 498.933 50.53L492.238 59.37C491.458 60.41 491.024 61.2333 490.938 61.84C490.894 62.4033 491.046 62.8367 491.393 63.14C491.783 63.4 492.216 63.6167 492.693 63.79C493.169 63.9633 493.559 64.1583 493.863 64.375C494.166 64.5917 494.318 64.8733 494.318 65.22C494.318 65.5233 494.144 65.74 493.798 65.87C493.451 66 493.018 66.065 492.498 66.065C491.934 66.065 491.219 66.0433 490.353 66C489.529 65.9567 488.554 65.935 487.428 65.935C486.084 65.935 484.633 66 483.073 66.13C481.556 66.26 480.299 66.325 479.303 66.325ZM503.353 47.15L510.308 47.085C510.784 47.085 511.153 46.955 511.413 46.695C511.673 46.435 511.889 45.9583 512.063 45.265L515.183 31.03C515.313 30.51 515.356 30.1417 515.313 29.925C515.313 29.665 515.204 29.535 514.988 29.535C514.814 29.535 514.619 29.5783 514.403 29.665C514.186 29.7517 513.969 29.9683 513.753 30.315L502.183 45.72C501.879 46.1533 501.706 46.5 501.663 46.76C501.619 47.02 502.183 47.15 503.353 47.15ZM533.266 66.52C531.576 66.52 530.232 66.0433 529.236 65.09C528.239 64.0933 527.741 62.7933 527.741 61.19C527.741 60.1067 527.871 58.8933 528.131 57.55C528.391 56.1633 528.759 54.755 529.236 53.325L537.426 28.56C537.642 27.9533 537.794 27.3683 537.881 26.805C538.011 26.1983 538.076 25.6133 538.076 25.05C538.076 24.8333 537.946 24.6383 537.686 24.465C537.469 24.2917 537.057 24.1183 536.451 23.945C535.107 23.5983 534.436 23.2733 534.436 22.97C534.436 22.7533 534.501 22.58 534.631 22.45C534.804 22.32 535.086 22.19 535.476 22.06C535.952 21.8867 536.559 21.6917 537.296 21.475C538.076 21.215 538.856 20.9767 539.636 20.76C540.416 20.5433 541.109 20.37 541.716 20.24C542.366 20.11 542.777 20.045 542.951 20.045C543.644 20.045 543.991 20.2617 543.991 20.695C543.991 21.085 543.947 21.4317 543.861 21.735C543.817 21.995 543.709 22.3633 543.536 22.84C543.189 23.7067 542.712 25.0067 542.106 26.74C541.499 28.43 540.827 30.3367 540.091 32.46C539.397 34.54 538.682 36.6633 537.946 38.83C537.209 40.9533 536.516 42.9467 535.866 44.81C535.259 46.6733 534.782 48.1683 534.436 49.295C534.262 49.7283 534.262 49.9883 534.436 50.075C534.652 50.1617 534.912 50.01 535.216 49.62C537.772 46.24 540.199 43.64 542.496 41.82C544.792 40 546.742 39.09 548.346 39.09C549.732 39.09 550.881 39.545 551.791 40.455C552.701 41.365 553.156 42.5133 553.156 43.9C553.156 45.8933 552.744 47.9517 551.921 50.075C551.141 52.155 550.057 54.1917 548.671 56.185C547.327 58.135 545.789 59.89 544.056 61.45C542.322 63.01 540.524 64.245 538.661 65.155C536.841 66.065 535.042 66.52 533.266 66.52ZM534.956 64.44C535.519 64.44 536.256 64.1367 537.166 63.53C538.076 62.9233 539.051 62.1 540.091 61.06C541.174 59.9767 542.214 58.7633 543.211 57.42C544.251 56.0333 545.204 54.5167 546.071 52.87C546.937 51.18 547.609 49.5767 548.086 48.06C548.606 46.5 548.866 45.2 548.866 44.16C548.866 43.4233 548.671 42.8167 548.281 42.34C547.934 41.82 547.501 41.56 546.981 41.56C545.637 41.56 544.099 42.3183 542.366 43.835C540.632 45.3517 538.617 47.67 536.321 50.79C534.891 52.7833 533.742 54.625 532.876 56.315C532.009 58.005 531.576 59.2617 531.576 60.085C531.576 61.255 531.901 62.2733 532.551 63.14C533.244 64.0067 534.046 64.44 534.956 64.44ZM560.645 66.91C559.605 66.91 558.63 66.5633 557.72 65.87C556.81 65.1767 556.073 64.2667 555.51 63.14C554.99 62.0133 554.73 60.8217 554.73 59.565C554.73 57.5283 555.12 55.34 555.9 53C556.723 50.6167 557.85 48.385 559.28 46.305C560.71 44.1817 562.357 42.4483 564.22 41.105C566.127 39.7617 568.163 39.09 570.33 39.09C572.497 39.09 574.165 39.8267 575.335 41.3C576.548 42.7733 577.155 44.5933 577.155 46.76C577.155 48.71 576.765 50.855 575.985 53.195C575.205 55.4917 574.078 57.68 572.605 59.76C571.175 61.84 569.442 63.5517 567.405 64.895C565.412 66.2383 563.158 66.91 560.645 66.91ZM561.685 64.96C562.725 64.96 563.765 64.505 564.805 63.595C565.888 62.685 566.907 61.4933 567.86 60.02C568.857 58.5467 569.723 56.9217 570.46 55.145C571.24 53.3683 571.847 51.5917 572.28 49.815C572.757 48.0383 572.995 46.4133 572.995 44.94C572.995 43.8133 572.8 42.8817 572.41 42.145C572.063 41.4083 571.327 41.04 570.2 41.04C569.203 41.04 568.163 41.4517 567.08 42.275C566.04 43.0983 565.022 44.2033 564.025 45.59C563.072 46.9767 562.205 48.5367 561.425 50.27C560.645 51.96 560.017 53.7367 559.54 55.6C559.107 57.42 558.89 59.1967 558.89 60.93C558.89 62.36 559.128 63.4 559.605 64.05C560.125 64.6567 560.818 64.96 561.685 64.96ZM582.672 66.91C582.196 66.91 581.697 66.6933 581.177 66.26C580.701 65.87 580.332 65.3933 580.072 64.83C579.812 64.2667 579.747 63.8117 579.877 63.465L586.702 47.02C587.006 46.2833 587.201 45.655 587.287 45.135C587.374 44.615 587.244 44.355 586.897 44.355C586.681 44.355 586.312 44.5283 585.792 44.875C585.316 45.2217 584.752 45.655 584.102 46.175C583.496 46.695 582.867 47.2367 582.217 47.8C582.131 47.8867 581.957 47.9083 581.697 47.865C581.481 47.8217 581.372 47.735 581.372 47.605C581.372 47.4317 581.416 47.1933 581.502 46.89C581.589 46.5433 581.806 46.1317 582.152 45.655C583.236 44.1817 584.427 42.9467 585.727 41.95C587.071 40.9533 588.327 40.195 589.497 39.675C590.711 39.1117 591.621 38.83 592.227 38.83C592.444 38.83 592.682 38.96 592.942 39.22C593.246 39.4367 593.484 39.7183 593.657 40.065C593.831 40.3683 593.831 40.6717 593.657 40.975C592.227 43.9217 590.862 46.9117 589.562 49.945C588.262 52.9783 586.962 55.9683 585.662 58.915C585.272 59.7817 585.034 60.5833 584.947 61.32C584.861 62.0567 585.034 62.425 585.467 62.425C585.901 62.425 586.551 62.0567 587.417 61.32C588.284 60.5833 589.259 59.63 590.342 58.46C591.469 57.29 592.639 56.0333 593.852 54.69C595.499 52.8267 597.081 50.8983 598.597 48.905C600.157 46.9117 601.501 45.1133 602.627 43.51C603.754 41.9067 604.491 40.78 604.837 40.13C605.054 39.6967 605.314 39.415 605.617 39.285C605.921 39.155 606.202 39.09 606.462 39.09C606.722 39.09 606.982 39.22 607.242 39.48C607.502 39.74 607.697 40.0433 607.827 40.39C608.001 40.7367 608.022 41.04 607.892 41.3L599.572 60.41C599.226 61.2333 599.074 61.8617 599.117 62.295C599.161 62.7283 599.377 62.945 599.767 62.945C600.331 62.945 601.067 62.6417 601.977 62.035C602.887 61.4283 603.819 60.735 604.772 59.955C605.726 59.1317 606.527 58.395 607.177 57.745C607.221 57.7017 607.286 57.68 607.372 57.68C607.502 57.68 607.632 57.745 607.762 57.875C607.892 57.9617 607.957 58.0917 607.957 58.265C607.957 58.3517 607.936 58.4383 607.892 58.525C607.849 58.6117 607.784 58.72 607.697 58.85C607.654 58.98 607.567 59.1317 607.437 59.305C607.351 59.4783 607.221 59.6733 607.047 59.89C606.917 60.0633 606.744 60.28 606.527 60.54C605.704 61.58 604.751 62.5983 603.667 63.595C602.584 64.5483 601.414 65.35 600.157 66C598.944 66.6067 597.644 66.91 596.257 66.91C595.694 66.91 595.174 66.5417 594.697 65.805C594.264 65.0683 594.177 64.4183 594.437 63.855C595.044 62.555 595.694 61.1683 596.387 59.695C597.081 58.2217 597.687 56.8567 598.207 55.6C598.771 54.3433 599.161 53.4117 599.377 52.805C599.594 52.285 599.572 52.0033 599.312 51.96C599.052 51.9167 598.814 52.025 598.597 52.285C596.344 54.755 594.351 56.9217 592.617 58.785C590.884 60.605 589.367 62.1217 588.067 63.335C586.811 64.505 585.727 65.3933 584.817 66C583.951 66.6067 583.236 66.91 582.672 66.91ZM615.549 66.91C615.202 66.91 614.812 66.7583 614.379 66.455C613.945 66.195 613.577 65.8917 613.274 65.545C613.014 65.155 612.884 64.8083 612.884 64.505C612.884 63.7683 612.97 63.14 613.144 62.62C613.36 62.1 613.577 61.515 613.794 60.865L619.969 43.51C620.055 43.2067 620.012 43.0117 619.839 42.925C619.709 42.795 619.535 42.73 619.319 42.73L616.719 42.6C616.155 42.5567 615.809 42.4483 615.679 42.275C615.592 42.0583 615.549 41.8633 615.549 41.69C615.549 41.6033 615.657 41.4517 615.874 41.235C616.09 40.975 616.35 40.7367 616.654 40.52C617 40.26 617.369 40.13 617.759 40.13H620.099C620.575 40.13 620.9 40.065 621.074 39.935C621.247 39.7617 621.442 39.4367 621.659 38.96L623.219 35.775C623.392 35.4283 623.717 35.0383 624.194 34.605C624.67 34.1283 625.147 33.7167 625.624 33.37C626.144 33.0233 626.512 32.85 626.729 32.85C627.075 32.85 627.292 33.0883 627.379 33.565C627.465 34.0417 627.422 34.4967 627.249 34.93L625.559 39.285C625.472 39.5883 625.494 39.7833 625.624 39.87C625.797 39.9567 626.057 40 626.404 40C627.27 40 628.159 40.065 629.069 40.195C629.979 40.325 630.715 40.4333 631.279 40.52C631.972 40.65 632.384 40.8017 632.514 40.975C632.687 41.105 632.774 41.2783 632.774 41.495C632.774 41.5817 632.687 41.7333 632.514 41.95C632.34 42.1233 632.015 42.2317 631.539 42.275C630.585 42.3183 629.675 42.3833 628.809 42.47C627.942 42.5133 627.032 42.5567 626.079 42.6C625.385 42.6433 624.887 42.7517 624.584 42.925C624.324 43.0983 624.15 43.315 624.064 43.575L618.279 59.565C618.105 60.085 618.019 60.54 618.019 60.93C618.019 61.32 618.127 61.6233 618.344 61.84C618.604 62.0567 618.972 62.165 619.449 62.165C620.055 62.165 620.705 61.9483 621.399 61.515C622.092 61.0817 622.764 60.5833 623.414 60.02C624.064 59.4567 624.605 58.9583 625.039 58.525C625.515 58.0483 625.927 57.8317 626.274 57.875C626.62 57.9183 626.794 58.07 626.794 58.33C626.794 58.6333 626.685 58.98 626.469 59.37C626.252 59.7167 625.97 60.085 625.624 60.475C624.93 61.2117 624.194 61.905 623.414 62.555C622.677 63.205 621.897 63.8117 621.074 64.375C620.294 64.895 619.535 65.35 618.799 65.74C618.105 66.0867 617.477 66.3683 616.914 66.585C616.35 66.8017 615.895 66.91 615.549 66.91ZM662.946 66.91C660.866 66.91 658.916 66.585 657.096 65.935C655.319 65.2417 653.824 64.2017 652.611 62.815C651.441 61.4283 650.704 59.6517 650.401 57.485C650.141 55.3183 650.466 52.7183 651.376 49.685L657.226 30.445C657.703 28.885 657.746 27.7583 657.356 27.065C657.009 26.3283 656.533 25.8733 655.926 25.7C654.583 25.31 653.911 24.8333 653.911 24.27C653.911 24.01 654.193 23.8367 654.756 23.75C655.319 23.62 655.861 23.555 656.381 23.555C657.291 23.555 658.201 23.5983 659.111 23.685C660.021 23.7283 661.039 23.75 662.166 23.75C663.119 23.75 664.008 23.7283 664.831 23.685C665.654 23.6417 666.391 23.62 667.041 23.62C668.081 23.62 668.579 23.8583 668.536 24.335C668.493 24.6383 668.254 24.8767 667.821 25.05C667.431 25.2233 666.868 25.4183 666.131 25.635C665.438 25.8083 664.679 26.35 663.856 27.26C663.033 28.1267 662.361 29.4483 661.841 31.225L656.121 50.53C655.168 53.7367 654.994 56.3583 655.601 58.395C656.251 60.4317 657.399 61.9267 659.046 62.88C660.693 63.8333 662.578 64.31 664.701 64.31C667.864 64.31 670.508 63.5733 672.631 62.1C674.798 60.5833 676.574 58.6333 677.961 56.25C679.348 53.8233 680.431 51.245 681.211 48.515C681.688 46.8683 682.186 45.2 682.706 43.51C683.269 41.7767 683.789 40.1733 684.266 38.7C684.743 37.2267 685.111 36.0567 685.371 35.19C686.238 32.59 686.693 30.6617 686.736 29.405C686.823 28.1483 686.584 27.26 686.021 26.74C685.501 26.22 684.721 25.83 683.681 25.57C683.291 25.4833 682.901 25.3533 682.511 25.18C682.164 24.9633 681.991 24.7033 681.991 24.4C681.991 24.14 682.186 23.9667 682.576 23.88C683.009 23.75 683.486 23.685 684.006 23.685C684.613 23.685 685.306 23.685 686.086 23.685C686.909 23.685 687.733 23.7067 688.556 23.75C689.379 23.75 690.073 23.75 690.636 23.75C691.286 23.75 691.893 23.75 692.456 23.75C693.063 23.7067 693.626 23.6633 694.146 23.62C694.666 23.5767 695.143 23.555 695.576 23.555C696.096 23.555 696.486 23.62 696.746 23.75C697.049 23.8367 697.179 24.01 697.136 24.27C697.093 24.79 696.269 25.2233 694.666 25.57C693.973 25.7433 693.366 26.0033 692.846 26.35C692.326 26.6533 691.784 27.3033 691.221 28.3C690.658 29.2967 689.964 30.9 689.141 33.11C688.231 35.4933 687.299 38.0717 686.346 40.845C685.436 43.6183 684.439 46.5 683.356 49.49C682.143 52.8267 680.691 55.8167 679.001 58.46C677.311 61.1033 675.188 63.1833 672.631 64.7C670.074 66.1733 666.846 66.91 662.946 66.91ZM690.584 66.91C689.63 66.91 688.807 66.6283 688.114 66.065C687.42 65.545 687.074 64.8733 687.074 64.05C687.074 63.0533 687.312 62.3167 687.789 61.84C688.222 61.32 688.59 61.06 688.894 61.06C689.197 61.06 689.5 61.19 689.804 61.45C690.15 61.6667 690.519 61.9483 690.909 62.295C691.385 62.6417 691.905 62.9883 692.469 63.335C693.075 63.6383 693.855 63.79 694.809 63.79C695.979 63.79 696.91 63.3783 697.604 62.555C698.297 61.6883 698.665 60.7783 698.709 59.825C698.709 58.8717 698.535 57.8533 698.189 56.77C697.885 55.6433 697.43 54.5383 696.824 53.455C696.26 52.415 695.784 51.44 695.394 50.53C695.047 49.5767 694.874 48.775 694.874 48.125C694.874 46.8683 695.199 45.6983 695.849 44.615C696.542 43.4883 697.365 42.5133 698.319 41.69C699.315 40.8667 700.29 40.2383 701.244 39.805C702.197 39.3283 702.955 39.09 703.519 39.09C704.082 39.09 704.645 39.2633 705.209 39.61C705.772 39.9133 706.227 40.2817 706.574 40.715C706.964 41.105 707.159 41.4517 707.159 41.755C707.159 42.015 707.029 42.34 706.769 42.73C706.509 43.0767 706.205 43.4017 705.859 43.705C705.512 44.0083 705.209 44.16 704.949 44.16C704.732 44.16 704.515 44.0517 704.299 43.835C704.082 43.6183 703.844 43.38 703.584 43.12C703.324 42.86 702.999 42.6217 702.609 42.405C702.262 42.1883 701.785 42.08 701.179 42.08C700.485 42.08 699.879 42.3833 699.359 42.99C698.839 43.5533 698.579 44.3117 698.579 45.265C698.579 45.6117 698.687 46.1533 698.904 46.89C699.164 47.6267 699.445 48.385 699.749 49.165C700.095 49.945 700.42 50.6383 700.724 51.245C701.2 52.1117 701.634 53.2167 702.024 54.56C702.457 55.86 702.674 57.0083 702.674 58.005C702.674 59.305 702.284 60.4967 701.504 61.58C700.767 62.6633 699.792 63.6167 698.579 64.44C697.365 65.22 696.044 65.8267 694.614 66.26C693.227 66.6933 691.884 66.91 690.584 66.91Z" fill="black"/>
</svg>
