<svg width="60" height="60" viewBox="0 0 60 60" fill="none" xmlns="http://www.w3.org/2000/svg">
<path d="M39.7225 38.0634C39.4758 38.0638 39.2313 38.0155 39.0033 37.9213C38.7752 37.8271 38.568 37.6887 38.3935 37.5142C38.219 37.3397 38.0806 37.1325 37.9864 36.9044C37.8922 36.6764 37.8439 36.4319 37.8443 36.1851L37.8443 24.8074L21.6029 41.0487C21.2513 41.4003 20.7744 41.5979 20.2771 41.5979C19.7798 41.5979 19.3029 41.4003 18.9513 41.0487C18.5997 40.6971 18.4021 40.2202 18.4021 39.7229C18.4021 39.2256 18.5997 38.7487 18.9513 38.3971L35.1926 22.1557L23.8126 22.1535C23.3145 22.1535 22.8368 21.9556 22.4845 21.6034C22.1323 21.2511 21.9344 20.7734 21.9344 20.2752C21.9344 19.7771 22.1323 19.2994 22.4845 18.9471C22.8368 18.5949 23.3145 18.397 23.8126 18.397L39.7226 18.397C39.9693 18.3966 40.2138 18.4449 40.4418 18.5391C40.6699 18.6333 40.8771 18.7717 41.0516 18.9462C41.2261 19.1207 41.3645 19.3279 41.4587 19.556C41.5529 19.784 41.6012 20.0285 41.6008 20.2752L41.6008 36.1851C41.6012 36.4319 41.5529 36.6764 41.4587 36.9044C41.3645 37.1325 41.2261 37.3397 41.0516 37.5142C40.8771 37.6887 40.6699 37.8271 40.4418 37.9213C40.2138 38.0155 39.9693 38.0638 39.7225 38.0634Z" fill="white"/>
</svg>
