<svg width="29" height="29" viewBox="0 0 29 29" fill="none" xmlns="http://www.w3.org/2000/svg">
<path d="M14.848 9.86648C12.2967 9.86648 10.2146 11.9486 10.2146 14.4999C10.2146 17.0513 12.2967 19.1334 14.848 19.1334C17.3994 19.1334 19.4815 17.0513 19.4815 14.4999C19.4815 11.9486 17.3994 9.86648 14.848 9.86648ZM28.745 14.4999C28.745 12.5812 28.7623 10.6799 28.6546 8.7646C28.5468 6.53998 28.0393 4.56563 26.4126 2.93888C24.7824 1.30865 22.8115 0.804633 20.5869 0.696878C18.6681 0.589123 16.7668 0.606503 14.8515 0.606503C12.9328 0.606503 11.0314 0.589123 9.11616 0.696878C6.89154 0.804633 4.91719 1.31212 3.29044 2.93888C1.66021 4.56911 1.1562 6.53998 1.04844 8.7646C0.940685 10.6833 0.958065 12.5847 0.958065 14.4999C0.958065 16.4152 0.940685 18.32 1.04844 20.2353C1.1562 22.4599 1.66369 24.4343 3.29044 26.061C4.92067 27.6912 6.89154 28.1953 9.11616 28.303C11.0349 28.4108 12.9362 28.3934 14.8515 28.3934C16.7702 28.3934 18.6716 28.4108 20.5869 28.303C22.8115 28.1953 24.7858 27.6878 26.4126 26.061C28.0428 24.4308 28.5468 22.4599 28.6546 20.2353C28.7658 18.32 28.745 16.4187 28.745 14.4999ZM14.848 21.6292C10.9028 21.6292 7.71882 18.4452 7.71882 14.4999C7.71882 10.5547 10.9028 7.37074 14.848 7.37074C18.7933 7.37074 21.9772 10.5547 21.9772 14.4999C21.9772 18.4452 18.7933 21.6292 14.848 21.6292ZM22.2692 8.74374C21.3481 8.74374 20.6042 7.99989 20.6042 7.07875C20.6042 6.15762 21.3481 5.41377 22.2692 5.41377C23.1904 5.41377 23.9342 6.15762 23.9342 7.07875C23.9345 7.29748 23.8916 7.51411 23.808 7.71624C23.7245 7.91837 23.6018 8.10203 23.4472 8.25669C23.2925 8.41136 23.1088 8.53399 22.9067 8.61756C22.7046 8.70114 22.488 8.74402 22.2692 8.74374Z" fill="black"/>
</svg>
