<svg width="25" height="25" viewBox="0 0 25 25" fill="none" xmlns="http://www.w3.org/2000/svg">
<g clip-path="url(#clip0_140_1307)">
<path d="M24.4886 12.511C24.4886 11.5047 24.4069 10.7703 24.2302 10.0088H12.7391V14.5508H19.4841C19.3482 15.6795 18.6138 17.3794 16.9819 18.5217L16.959 18.6737L20.5923 21.4884L20.844 21.5135C23.1558 19.3784 24.4886 16.2371 24.4886 12.511Z" fill="#4285F4"/>
<path d="M12.7391 24.4781C16.0436 24.4781 18.8177 23.3901 20.844 21.5135L16.9819 18.5217C15.9484 19.2424 14.5613 19.7456 12.7391 19.7456C9.50254 19.7456 6.75557 17.6106 5.77636 14.6597L5.63282 14.6719L1.85489 17.5956L1.80548 17.733C3.81811 21.731 7.9522 24.4781 12.7391 24.4781Z" fill="#34A853"/>
<path d="M5.77634 14.6597C5.51797 13.8982 5.36844 13.0822 5.36844 12.2391C5.36844 11.3959 5.51797 10.58 5.76275 9.81849L5.75591 9.6563L1.93062 6.68555L1.80547 6.74508C0.975969 8.40417 0.5 10.2673 0.5 12.2391C0.5 14.211 0.975969 16.074 1.80547 17.733L5.77634 14.6597Z" fill="#FBBC05"/>
<path d="M12.7391 4.73241C15.0373 4.73241 16.5875 5.72512 17.4715 6.55472L20.9256 3.18216C18.8042 1.21031 16.0436 0 12.7391 0C7.9522 0 3.81811 2.74697 1.80548 6.74503L5.76276 9.81844C6.75558 6.86747 9.50254 4.73241 12.7391 4.73241Z" fill="#EB4335"/>
</g>
<defs>
<clipPath id="clip0_140_1307">
<rect width="24" height="24.5625" fill="white" transform="translate(0.5)"/>
</clipPath>
</defs>
</svg>
