<svg width="72" height="73" viewBox="0 0 72 73" fill="none" xmlns="http://www.w3.org/2000/svg">
<path d="M36.3381 72.1528C26.8865 72.1528 17.822 68.3982 11.1387 61.7149C4.45533 55.0315 0.700684 45.967 0.700684 36.5154C0.700684 27.0637 4.45533 17.9992 11.1387 11.3159C17.822 4.63258 26.8865 0.87793 36.3381 0.87793C45.7898 0.87793 54.8543 4.63258 61.5376 11.3159C68.2209 17.9992 71.9756 27.0637 71.9756 36.5154C71.9756 45.967 68.2209 55.0315 61.5376 61.7149C54.8543 68.3982 45.7898 72.1528 36.3381 72.1528ZM63.9572 43.6429C65.1627 38.9677 65.1627 34.0631 63.9572 29.3879H50.3437C50.6739 34.1338 50.6739 38.8969 50.3437 43.6429H63.9572ZM61.0349 50.7704H49.5596C48.9627 55.0659 47.8252 59.2688 46.1741 63.2791C52.4346 60.9697 57.6912 56.545 61.0349 50.7704ZM29.4957 43.6429H43.1805C43.5673 38.8991 43.5673 34.1317 43.1805 29.3879H29.4957C29.1089 34.1317 29.1089 38.8991 29.4957 43.6429ZM30.3867 50.7704C31.8478 59.3233 34.4137 65.0253 36.3381 65.0253C38.2626 65.0253 40.8285 59.3233 42.2896 50.7704H30.3867ZM8.71911 43.6429H22.3326C22.0024 38.8969 22.0024 34.1338 22.3326 29.3879H8.71911C7.51359 34.0631 7.51359 38.9677 8.71911 43.6429ZM11.6414 50.7704C14.9851 56.545 20.2417 60.9697 26.5022 63.2791C25.0054 59.8579 23.865 55.5814 23.1166 50.7704H11.6414ZM61.0349 22.2604C57.6912 16.4857 52.4346 12.0611 46.1741 9.75165C47.6708 13.1728 48.8112 17.4493 49.5596 22.2604H61.0349ZM30.3867 22.2604H42.2896C40.8285 13.7074 38.2626 8.00542 36.3381 8.00542C34.4137 8.00542 31.8478 13.7074 30.3867 22.2604ZM11.6414 22.2604H23.1166C23.8294 17.4493 25.0054 13.1728 26.5022 9.75165C20.2417 12.0611 14.9851 16.4857 11.6414 22.2604Z" fill="#AA9166"/>
</svg>
