<svg width="72" height="81" viewBox="0 0 72 81" fill="none" xmlns="http://www.w3.org/2000/svg">
<path d="M36.3237 0.918945C43.1079 0.91867 49.7512 2.85487 55.4729 6.50001C61.1945 10.1451 65.7569 15.3477 68.6237 21.4964C71.4905 27.6451 72.5427 34.4843 71.6566 41.2103C70.7705 47.9363 67.9829 54.2697 63.6215 59.4661C68.5908 62.7526 71.6754 66.9498 71.9407 71.539L71.9604 72.1923L36.3237 80.1116L0.687051 72.1923L0.70685 71.539C0.972145 66.9458 4.0567 62.7486 9.02208 59.4621C3.62709 53.0498 0.674558 44.9356 0.687051 36.5556C0.687051 27.1042 4.44162 18.0399 11.1248 11.3567C17.808 4.67351 26.8723 0.918945 36.3237 0.918945ZM36.3237 44.4749C30.8595 44.4749 26.4247 47.1358 26.4247 50.4144C26.4247 53.6929 30.8595 56.3538 36.3237 56.3538C41.788 56.3538 46.2228 53.6929 46.2228 50.4144C46.2228 47.1358 41.788 44.4749 36.3237 44.4749ZM24.4449 24.6767C20.0695 24.6767 16.5256 27.3376 16.5256 30.6162C16.5256 33.8948 20.0695 36.5556 24.4449 36.5556C28.8202 36.5556 32.3641 33.8948 32.3641 30.6162C32.3641 27.3376 28.8202 24.6767 24.4449 24.6767ZM48.2026 24.6767C43.8273 24.6767 40.2834 27.3376 40.2834 30.6162C40.2834 33.8948 43.8273 36.5556 48.2026 36.5556C52.578 36.5556 56.1219 33.8948 56.1219 30.6162C56.1219 27.3376 52.578 24.6767 48.2026 24.6767Z" fill="#AA9166"/>
</svg>
