<svg width="72" height="56" viewBox="0 0 72 56" fill="none" xmlns="http://www.w3.org/2000/svg">
<path d="M36.1373 0.908203C30.032 0.908203 25.0827 7.34877 25.0827 15.2936C25.0827 20.8036 27.4633 25.5891 30.959 28.0053L26.9053 30.0994L16.1177 35.6759C15.0756 36.2567 14.5555 37.2416 14.5555 38.6355V51.8777C14.6412 53.5333 15.5325 55.0763 16.9774 55.1025H55.3555C57.0052 54.9426 57.8397 53.4616 57.8559 51.8777V38.6355C57.8559 37.2416 57.3358 36.2567 56.2937 35.6759L45.8968 30.0994L41.576 27.8177C44.9283 25.3471 47.1919 20.6651 47.1919 15.2937C47.1919 7.34877 42.2425 0.908203 36.1373 0.908203ZM18.3062 5.96689C15.6789 6.07811 13.5966 7.34528 12.0146 9.36437C10.2647 11.7953 9.41167 14.6816 9.39518 17.5528C9.50265 21.7985 11.207 25.8179 14.2413 27.9203L2.12721 34.1948C1.29345 34.5433 0.876953 35.3563 0.876953 36.6341V47.2618C0.942057 48.6713 1.59865 49.8559 2.82977 49.8761H10.8811V38.6355C11.0143 35.6303 12.2805 33.2012 14.5555 32.0158L22.6047 27.7477C23.2299 27.3411 23.8294 26.7885 24.4026 26.0915C21.0838 20.3841 20.623 13.5481 22.7618 7.53558C21.3707 6.58665 19.8073 5.97683 18.3062 5.96689ZM54.2601 5.96689C52.5419 6.00699 50.9541 6.71222 49.6497 7.70817C51.7302 13.7752 51.1564 20.6154 48.0852 25.9164C48.7626 26.7876 49.4679 27.4557 50.1974 27.9204L57.9345 32.0158C60.2915 33.4566 61.5069 35.9073 61.5303 38.6356V49.8763H69.8151C71.1776 49.7452 71.7583 48.5338 71.7701 47.2619V36.6342C71.7701 35.4725 71.3536 34.6596 70.5199 34.1948L58.5607 27.8328C61.6622 25.2839 63.2195 21.464 63.2497 17.5528C63.1672 14.4572 62.3188 11.5828 60.6302 9.36437C58.8658 7.23097 56.6773 5.98948 54.2601 5.96689Z" fill="#AA9166"/>
</svg>
