<svg width="80" height="78" viewBox="0 0 80 78" fill="none" xmlns="http://www.w3.org/2000/svg">
<path d="M52.8973 50.2838C52.8973 46.723 42.7982 43.8389 30.3404 43.8389M52.8973 50.2838C52.8973 53.8445 42.7982 56.7286 30.3404 56.7286C17.8825 56.7286 7.78345 53.8445 7.78345 50.2838M52.8973 50.2838V66.1928C52.8973 69.8632 42.7982 72.8407 30.3404 72.8407C17.8825 72.8407 7.78345 69.8664 7.78345 66.1928V50.2838M52.8973 50.2838C65.2198 50.2838 75.4542 47.1032 75.4542 43.8389V11.6148M30.3404 43.8389C17.8825 43.8389 7.78345 46.723 7.78345 50.2838M30.3404 43.8389C16.1037 43.8389 4.56104 40.6584 4.56104 37.3941V21.282M30.3404 14.8372C16.1037 14.8372 4.56104 17.7212 4.56104 21.282M4.56104 21.282C4.56104 24.8428 16.1037 27.7268 30.3404 27.7268C30.3404 30.9912 40.8229 34.1717 53.1454 34.1717C65.4647 34.1717 75.4542 30.9912 75.4542 27.7268M75.4542 11.6148C75.4542 8.05399 65.4647 5.16992 53.1454 5.16992C40.8229 5.16992 30.8366 8.05399 30.8366 11.6148M75.4542 11.6148C75.4542 15.1755 65.4647 18.0596 53.1454 18.0596C40.8261 18.0596 30.8366 15.1755 30.8366 11.6148M30.8366 11.6148V44.3739" stroke="#AA9166" stroke-width="8.41112"/>
</svg>
