<svg width="73" height="66" viewBox="0 0 73 66" fill="none" xmlns="http://www.w3.org/2000/svg">
<path d="M58.2432 0.183594H49.9338C49.4931 0.183594 49.0704 0.358684 48.7587 0.670346C48.4471 0.982008 48.272 1.40471 48.272 1.84547V2.04157L59.9051 11.3481V1.84547C59.9051 1.40471 59.73 0.982008 59.4184 0.670346C59.1067 0.358684 58.684 0.183594 58.2432 0.183594Z" fill="#AA9166"/>
<path fill-rule="evenodd" clip-rule="evenodd" d="M32.4839 21.7885C32.4839 20.6866 32.9216 19.6298 33.7008 18.8507C34.4799 18.0715 35.5367 17.6338 36.6386 17.6338C37.7405 17.6338 38.7972 18.0715 39.5764 18.8507C40.3555 19.6298 40.7933 20.6866 40.7933 21.7885C40.7933 22.8904 40.3555 23.9471 39.5764 24.7263C38.7972 25.5054 37.7405 25.9432 36.6386 25.9432C35.5367 25.9432 34.4799 25.5054 33.7008 24.7263C32.9216 23.9471 32.4839 22.8904 32.4839 21.7885Z" fill="#AA9166"/>
<path fill-rule="evenodd" clip-rule="evenodd" d="M65.7223 26.6407L68.3215 28.7214C68.8389 29.1246 69.4944 29.3076 70.1459 29.2308C70.7974 29.1539 71.3923 28.8233 71.8016 28.3107C72.211 27.7982 72.4018 27.1449 72.3327 26.4925C72.2636 25.8402 71.9402 25.2414 71.4325 24.8259L44.427 3.22157C42.2168 1.45288 39.4703 0.489258 36.6395 0.489258C33.8087 0.489258 31.0622 1.45288 28.852 3.22157L1.84648 24.8259C1.32991 25.2389 0.99856 25.8402 0.925319 26.4975C0.852079 27.1548 1.04295 27.8143 1.45594 28.3308C1.86893 28.8474 2.47021 29.1788 3.1275 29.252C3.7848 29.3252 4.44427 29.1344 4.96083 28.7214L7.55668 26.6407V60.8421H3.40199C2.74086 60.8421 2.1068 61.1047 1.63931 61.5722C1.17181 62.0397 0.90918 62.6738 0.90918 63.3349C0.90918 63.9961 1.17181 64.6301 1.63931 65.0976C2.1068 65.5651 2.74086 65.8277 3.40199 65.8277H69.877C70.5381 65.8277 71.1722 65.5651 71.6397 65.0976C72.1072 64.6301 72.3698 63.9961 72.3698 63.3349C72.3698 62.6738 72.1072 62.0397 71.6397 61.5722C71.1722 61.1047 70.5381 60.8421 69.877 60.8421H65.7223V26.6407ZM27.4992 21.788C27.4992 19.3639 28.4622 17.039 30.1763 15.3249C31.8905 13.6107 34.2153 12.6477 36.6395 12.6477C39.0637 12.6477 41.3885 13.6107 43.1027 15.3249C44.8168 17.039 45.7798 19.3639 45.7798 21.788C45.7798 24.2122 44.8168 26.5371 43.1027 28.2512C41.3885 29.9654 39.0637 30.9284 36.6395 30.9284C34.2153 30.9284 31.8905 29.9654 30.1763 28.2512C28.4622 26.5371 27.4992 24.2122 27.4992 21.788ZM36.8057 34.2521C39.0127 34.2521 40.9172 34.2521 42.4428 34.4582C44.0781 34.6775 45.6435 35.1728 46.9132 36.4425C48.1829 37.7121 48.6781 39.2776 48.8975 40.9129C49.0903 42.3421 49.1036 44.1037 49.1036 46.1412V60.8421H44.1179V46.7162C44.1179 44.2965 44.1113 42.7277 43.9584 41.5777C43.8122 40.4974 43.5795 40.1584 43.3867 39.969C43.1973 39.7795 42.8582 39.5435 41.778 39.3973C40.6247 39.2444 39.0592 39.2377 36.6395 39.2377C34.2198 39.2377 32.651 39.2444 31.501 39.3973C30.4208 39.5435 30.0817 39.7795 29.8923 39.969C29.7028 40.1584 29.4668 40.4974 29.3206 41.5777C29.1677 42.731 29.1611 44.2965 29.1611 46.7162V60.8421H24.1754V46.55C24.1754 44.343 24.1754 42.4385 24.3815 40.9129C24.6009 39.2776 25.0961 37.7121 26.3658 36.4425C27.6355 35.1728 29.2043 34.6775 30.8362 34.4582C32.3618 34.2521 34.2663 34.2521 36.4766 34.2521H36.8024H36.8057Z" fill="#AA9166"/>
<path fill-rule="evenodd" clip-rule="evenodd" d="M32.4839 21.7885C32.4839 20.6866 32.9216 19.6298 33.7008 18.8507C34.4799 18.0715 35.5367 17.6338 36.6386 17.6338C37.7405 17.6338 38.7972 18.0715 39.5764 18.8507C40.3555 19.6298 40.7933 20.6866 40.7933 21.7885C40.7933 22.8904 40.3555 23.9471 39.5764 24.7263C38.7972 25.5054 37.7405 25.9432 36.6386 25.9432C35.5367 25.9432 34.4799 25.5054 33.7008 24.7263C32.9216 23.9471 32.4839 22.8904 32.4839 21.7885Z" fill="#AA9166"/>
</svg>
