<svg width="30" height="30" viewBox="0 0 30 30" fill="none" xmlns="http://www.w3.org/2000/svg">
<path d="M19 29.5H16C15.4697 29.4995 14.9613 29.2886 14.5864 28.9136C14.2114 28.5387 14.0005 28.0303 14 27.5V22.5H16V27.5H19V22.5H21V18.5C20.9997 18.2349 20.8943 17.9807 20.7068 17.7932C20.5193 17.6057 20.2651 17.5003 20 17.5H11.28L9.28 11.5H3C2.73486 11.5003 2.48066 11.6057 2.29319 11.7932C2.10571 11.9807 2.00026 12.2349 2 12.5V18.5H4V27.5H8V20.5H10V27.5C9.99947 28.0303 9.78859 28.5387 9.41363 28.9136C9.03867 29.2886 8.53027 29.4995 8 29.5H4C3.46973 29.4995 2.96133 29.2886 2.58637 28.9136C2.21141 28.5387 2.00053 28.0303 2 27.5V20.5C1.46973 20.4995 0.961329 20.2886 0.586371 19.9136C0.211413 19.5387 0.000529477 19.0303 0 18.5V12.5C0.000794215 11.7046 0.31712 10.942 0.879557 10.3796C1.44199 9.81712 2.20459 9.5008 3 9.5H9.28C9.69971 9.49974 10.1088 9.63165 10.4494 9.87703C10.7899 10.1224 11.0444 10.4688 11.177 10.867L12.72 15.5H20C20.7954 15.5008 21.558 15.8171 22.1204 16.3796C22.6829 16.942 22.9992 17.7046 23 18.5V22.5C22.9995 23.0303 22.7886 23.5387 22.4136 23.9136C22.0387 24.2886 21.5303 24.4995 21 24.5V27.5C20.9995 28.0303 20.7886 28.5387 20.4136 28.9136C20.0387 29.2886 19.5303 29.4995 19 29.5ZM27 29.5H25V18.5H28V12.5C27.9997 12.2349 27.8943 11.9807 27.7068 11.7932C27.5193 11.6057 27.2651 11.5003 27 11.5H23V9.5H27C27.7954 9.5008 28.558 9.81712 29.1204 10.3796C29.6829 10.942 29.9992 11.7046 30 12.5V18.5C29.9995 19.0303 29.7886 19.5387 29.4136 19.9136C29.0387 20.2886 28.5303 20.4995 28 20.5H27V29.5ZM6 8.5C5.20887 8.5 4.43552 8.26541 3.77772 7.82588C3.11992 7.38635 2.60723 6.76164 2.30448 6.03074C2.00173 5.29983 1.92252 4.49556 2.07686 3.71964C2.2312 2.94372 2.61216 2.23098 3.17157 1.67157C3.73098 1.11216 4.44371 0.731202 5.21964 0.576861C5.99556 0.42252 6.79983 0.501733 7.53073 0.804484C8.26164 1.10723 8.88635 1.61992 9.32588 2.27772C9.7654 2.93552 10 3.70888 10 4.5C9.99868 5.56046 9.57682 6.57711 8.82697 7.32697C8.07711 8.07683 7.06046 8.49868 6 8.5ZM6 2.5C5.60444 2.5 5.21776 2.6173 4.88886 2.83706C4.55996 3.05683 4.30362 3.36918 4.15224 3.73463C4.00087 4.10009 3.96126 4.50222 4.03843 4.89018C4.1156 5.27814 4.30608 5.63451 4.58579 5.91422C4.86549 6.19392 5.22186 6.3844 5.60982 6.46157C5.99778 6.53874 6.39991 6.49914 6.76537 6.34776C7.13082 6.19639 7.44318 5.94004 7.66294 5.61114C7.8827 5.28224 8 4.89556 8 4.5C7.99947 3.96973 7.78859 3.46133 7.41363 3.08637C7.03867 2.71142 6.53027 2.50053 6 2.5ZM24 8.5C23.2089 8.5 22.4355 8.26541 21.7777 7.82588C21.1199 7.38635 20.6072 6.76164 20.3045 6.03074C20.0017 5.29983 19.9225 4.49556 20.0769 3.71964C20.2312 2.94372 20.6122 2.23098 21.1716 1.67157C21.731 1.11216 22.4437 0.731202 23.2196 0.576861C23.9956 0.42252 24.7998 0.501733 25.5307 0.804484C26.2616 1.10723 26.8864 1.61992 27.3259 2.27772C27.7654 2.93552 28 3.70888 28 4.5C27.9987 5.56046 27.5768 6.57711 26.827 7.32697C26.0771 8.07683 25.0605 8.49868 24 8.5ZM24 2.5C23.6044 2.5 23.2178 2.6173 22.8889 2.83706C22.56 3.05683 22.3036 3.36918 22.1522 3.73463C22.0009 4.10009 21.9613 4.50222 22.0384 4.89018C22.1156 5.27814 22.3061 5.63451 22.5858 5.91422C22.8655 6.19392 23.2219 6.3844 23.6098 6.46157C23.9978 6.53874 24.3999 6.49914 24.7654 6.34776C25.1308 6.19639 25.4432 5.94004 25.6629 5.61114C25.8827 5.28224 26 4.89556 26 4.5C25.9995 3.96973 25.7886 3.46133 25.4136 3.08637C25.0387 2.71142 24.5303 2.50053 24 2.5Z" fill="#D2AB2D"/>
</svg>
