<svg width="30" height="30" viewBox="0 0 30 30" fill="none" xmlns="http://www.w3.org/2000/svg">
<path d="M15 12.5C13.625 12.5 12.4479 12.0104 11.4688 11.0312C10.4896 10.0521 10 8.875 10 7.5C10 6.125 10.4896 4.94792 11.4688 3.96875C12.4479 2.98958 13.625 2.5 15 2.5C16.375 2.5 17.5521 2.98958 18.5312 3.96875C19.5104 4.94792 20 6.125 20 7.5C20 8.875 19.5104 10.0521 18.5312 11.0312C17.5521 12.0104 16.375 12.5 15 12.5ZM15 10C15.6875 10 16.2762 9.75542 16.7663 9.26625C17.2563 8.77708 17.5008 8.18833 17.5 7.5C17.5 6.8125 17.2554 6.22417 16.7663 5.735C16.2771 5.24583 15.6883 5.00083 15 5C14.3125 5 13.7242 5.245 13.235 5.735C12.7458 6.225 12.5008 6.81333 12.5 7.5C12.5 8.1875 12.745 8.77625 13.235 9.26625C13.725 9.75625 14.3133 10.0008 15 10ZM5 27.5V19.0312C5 18.3229 5.17708 17.6721 5.53125 17.0788C5.88542 16.4854 6.375 16.0217 7 15.6875C8.0625 15.1458 9.26583 14.6875 10.61 14.3125C11.9542 13.9375 13.4175 13.75 15 13.75C16.5833 13.75 18.0471 13.9375 19.3912 14.3125C20.7354 14.6875 21.9383 15.1458 23 15.6875C23.625 16.0208 24.1146 16.4846 24.4688 17.0788C24.8229 17.6729 25 18.3238 25 19.0312V25C25 25.6875 24.7554 26.2763 24.2663 26.7663C23.7771 27.2563 23.1883 27.5008 22.5 27.5H12.1875C11.2292 27.5 10.4167 27.1667 9.75 26.5C9.08333 25.8333 8.75 25.0208 8.75 24.0625C8.75 23.1042 9.08333 22.2917 9.75 21.625C10.4167 20.9583 11.2292 20.625 12.1875 20.625H15.7188L17.6562 16.5C17.2396 16.4167 16.8125 16.3542 16.375 16.3125C15.9375 16.2708 15.4792 16.25 15 16.25C13.5 16.25 12.1667 16.4321 11 16.7963C9.83333 17.1604 8.88542 17.5408 8.15625 17.9375C7.94792 18.0417 7.78667 18.1929 7.6725 18.3913C7.55833 18.5896 7.50083 18.8029 7.5 19.0312V27.5H5ZM12.1875 25H13.6875L14.5625 23.125H12.1875C11.9375 23.125 11.7188 23.2188 11.5313 23.4062C11.3438 23.5938 11.25 23.8125 11.25 24.0625C11.25 24.3125 11.3438 24.5312 11.5313 24.7188C11.7188 24.9062 11.9375 25 12.1875 25ZM16.4375 25H22.5V19.0312C22.5 18.8021 22.4429 18.5888 22.3288 18.3913C22.2146 18.1938 22.0633 18.0425 21.875 17.9375C21.625 17.8125 21.3542 17.6825 21.0625 17.5475C20.7708 17.4125 20.4583 17.2821 20.125 17.1562L16.4375 25Z" fill="#D2AB2D"/>
</svg>
