<svg width="30" height="30" viewBox="0 0 30 30" fill="none" xmlns="http://www.w3.org/2000/svg">
<path d="M23.25 17.5V9.375L17 5L10.75 9.375V11.25H8.25V8.125L17 1.875L25.75 8.125V17.5H23.25ZM17.625 10H18.875V8.75H17.625V10ZM15.125 10H16.375V8.75H15.125V10ZM17.625 12.5H18.875V11.25H17.625V12.5ZM15.125 12.5H16.375V11.25H15.125V12.5ZM8.25 23.125L16.9375 25.5L24.375 23.1875C24.2708 23 24.1196 22.8383 23.9213 22.7025C23.7229 22.5667 23.4992 22.4992 23.25 22.5H16.9375C16.375 22.5 15.9271 22.4792 15.5938 22.4375C15.2604 22.3958 14.9167 22.3125 14.5625 22.1875L11.6562 21.2188L12.3438 18.7812L14.875 19.625C15.2292 19.7292 15.6458 19.8125 16.125 19.875C16.6042 19.9375 17.3125 19.9792 18.25 20C18.25 19.7708 18.1825 19.5521 18.0475 19.3438C17.9125 19.1354 17.7508 19 17.5625 18.9375L10.25 16.25H8.25V23.125ZM0.75 27.5V13.75H10.25C10.3958 13.75 10.5417 13.7658 10.6875 13.7975C10.8333 13.8292 10.9688 13.8654 11.0938 13.9062L18.4375 16.625C19.125 16.875 19.6825 17.3125 20.11 17.9375C20.5375 18.5625 20.7508 19.25 20.75 20H23.25C24.2917 20 25.1771 20.3438 25.9062 21.0312C26.6354 21.7188 27 22.625 27 23.75V25L17 28.125L8.25 25.6875V27.5H0.75ZM3.25 25H5.75V16.25H3.25V25Z" fill="#D2AB2D"/>
</svg>
