<svg width="30" height="30" viewBox="0 0 30 30" fill="none" xmlns="http://www.w3.org/2000/svg">
<path d="M25.75 23.75H28.25V26.25H0.75V23.75H3.25V5C3.25 4.66848 3.3817 4.35054 3.61612 4.11612C3.85054 3.8817 4.16848 3.75 4.5 3.75H17C17.3315 3.75 17.6495 3.8817 17.8839 4.11612C18.1183 4.35054 18.25 4.66848 18.25 5V23.75H23.25V13.75H20.75V11.25H24.5C24.8315 11.25 25.1495 11.3817 25.3839 11.6161C25.6183 11.8505 25.75 12.1685 25.75 12.5V23.75ZM5.75 6.25V23.75H15.75V6.25H5.75ZM8.25 13.75H13.25V16.25H8.25V13.75ZM8.25 8.75H13.25V11.25H8.25V8.75Z" fill="#D2AB2D"/>
</svg>
