<svg width="26" height="24" viewBox="0 0 26 24" fill="none" xmlns="http://www.w3.org/2000/svg">
<path d="M23.2985 4.825C20.9985 2.5125 17.561 2.0375 14.7735 3.3625L13.5735 2.1625C13.4579 2.04662 13.3205 1.95469 13.1693 1.89196C13.0181 1.82923 12.856 1.79694 12.6923 1.79694C12.5286 1.79694 12.3665 1.82923 12.2153 1.89196C12.064 1.95469 11.9267 2.04662 11.811 2.1625L11.711 2.275C11.536 1.0625 10.4985 0.125 9.24854 0.125C7.87354 0.125 6.74854 1.25 6.74854 2.625C6.74854 2.7375 6.74854 2.85 6.78604 2.95C6.02354 3.3875 5.49854 4.1875 5.49854 5.125C5.49854 5.7 5.69854 6.2125 6.02354 6.6375C5.86318 6.74787 5.73176 6.89522 5.64038 7.0671C5.549 7.23899 5.50035 7.43034 5.49854 7.625V9.3125C2.58604 10.3375 0.498535 13.1125 0.498535 16.375C0.498535 20.5125 3.86104 23.875 7.99854 23.875C12.136 23.875 15.4985 20.5125 15.4985 16.375C15.4986 14.8251 15.0177 13.3133 14.1221 12.0483C13.2265 10.7833 11.9604 9.82742 10.4985 9.3125V7.625C10.4967 7.43034 10.4481 7.23899 10.3567 7.0671C10.2653 6.89522 10.1339 6.74787 9.97354 6.6375C10.2985 6.2125 10.4985 5.7 10.4985 5.125C10.4985 5.0125 10.4985 4.9 10.461 4.8C10.686 4.675 10.8735 4.5 11.036 4.35C12.1985 4.975 12.9985 6.2 12.9985 7.625V7.725C13.161 7.8125 13.311 7.9375 13.4735 8.0375C13.711 7.5125 14.036 7 14.461 6.5875C15.4002 5.65106 16.6723 5.1252 17.9985 5.1252C19.3248 5.1252 20.5969 5.65106 21.536 6.5875C22.4725 7.52664 22.9983 8.79877 22.9983 10.125C22.9983 11.4512 22.4725 12.7234 21.536 13.6625C20.536 14.6625 19.2485 15.125 17.911 15.125C17.9985 15.525 17.9985 15.95 17.9985 16.375C17.9985 16.8 17.961 17.2125 17.911 17.625C19.8735 17.625 21.811 16.9125 23.2985 15.425C23.9968 14.7303 24.5509 13.9044 24.929 12.9949C25.3072 12.0853 25.5018 11.11 25.5018 10.125C25.5018 9.13999 25.3072 8.16469 24.929 7.25514C24.5509 6.34559 23.9968 5.51973 23.2985 4.825ZM9.24854 1.375C9.93604 1.375 10.4985 1.9375 10.4985 2.625C10.4985 3.0375 10.286 3.3875 9.97354 3.6125C9.52353 3.0125 8.81104 2.625 7.99854 2.625C7.99854 1.9375 8.56104 1.375 9.24854 1.375ZM7.27354 4.1375C7.72354 4.7375 8.43604 5.125 9.24854 5.125C9.24854 5.8125 8.68604 6.375 7.99854 6.375C7.31104 6.375 6.74854 5.8125 6.74854 5.125C6.74854 4.7125 6.96104 4.3625 7.27354 4.1375ZM12.9985 16.375C12.9985 19.1375 10.761 21.375 7.99854 21.375C5.23604 21.375 2.99854 19.1375 2.99854 16.375C2.99854 13.6125 5.23604 11.375 7.99854 11.375C10.761 11.375 12.9985 13.6125 12.9985 16.375Z" fill="#D2AB2D"/>
</svg>
