<svg width="121" height="120" viewBox="0 0 121 120" fill="none" xmlns="http://www.w3.org/2000/svg">
<path d="M50.5 77.885L78.385 60L50.5 42.115V77.885ZM60.515 105C54.295 105 48.445 103.82 42.965 101.46C37.4883 99.0967 32.7233 95.89 28.67 91.84C24.6167 87.7933 21.4083 83.0333 19.045 77.56C16.6817 72.0867 15.5 66.2383 15.5 60.015C15.5 53.795 16.68 47.945 19.04 42.465C21.4033 36.9883 24.61 32.2233 28.66 28.17C32.7067 24.1167 37.4667 20.9083 42.94 18.545C48.4133 16.1817 54.2617 15 60.485 15C66.705 15 72.555 16.18 78.035 18.54C83.5117 20.9033 88.2767 24.11 92.33 28.16C96.3833 32.2067 99.5917 36.9667 101.955 42.44C104.318 47.9133 105.5 53.7617 105.5 59.985C105.5 66.205 104.32 72.055 101.96 77.535C99.5967 83.0117 96.39 87.7767 92.34 91.83C88.2933 95.8833 83.5333 99.0917 78.06 101.455C72.5867 103.818 66.7383 105 60.515 105ZM60.5 100C71.6667 100 81.125 96.125 88.875 88.375C96.625 80.625 100.5 71.1667 100.5 60C100.5 48.8333 96.625 39.375 88.875 31.625C81.125 23.875 71.6667 20 60.5 20C49.3333 20 39.875 23.875 32.125 31.625C24.375 39.375 20.5 48.8333 20.5 60C20.5 71.1667 24.375 80.625 32.125 88.375C39.875 96.125 49.3333 100 60.5 100Z" fill="white"/>
</svg>
