<svg width="533" height="532" viewBox="0 0 533 532" fill="none" xmlns="http://www.w3.org/2000/svg">
<path d="M227.2 251.133C239.059 241.947 243.627 227.986 237.402 219.949C231.177 211.913 216.517 212.844 204.658 222.03C192.799 231.216 188.232 245.177 194.456 253.214C200.681 261.25 215.341 260.319 227.2 251.133Z" fill="#E3BF83"/>
<path d="M237.395 219.958C231.17 211.923 216.517 212.853 204.654 222.035C199.921 225.705 196.343 230.137 194.157 234.644C194.157 234.644 203.791 244.103 210.937 239.679C210.937 239.679 204.218 248.727 211.256 258.336C216.492 257.49 222.097 255.077 227.19 251.132C239.045 241.949 243.611 227.992 237.395 219.949V219.958Z" fill="#BC9561"/>
<path d="M206.062 244.991C205.475 245.443 204.771 245.527 204.495 245.167C204.218 244.807 204.47 244.145 205.056 243.692C205.643 243.24 206.346 243.156 206.623 243.517C206.899 243.877 206.648 244.539 206.062 244.991Z" fill="#BC9561"/>
<path d="M199.602 242.041C199.267 242.301 198.706 242.125 198.337 241.648C197.969 241.17 197.944 240.584 198.279 240.324C198.614 240.064 199.175 240.24 199.544 240.718C199.912 241.195 199.938 241.782 199.602 242.041Z" fill="#BC9561"/>
<path d="M201.32 246.574C200.7 247.051 199.979 247.152 199.694 246.792C199.418 246.431 199.694 245.753 200.306 245.275C200.926 244.798 201.646 244.697 201.931 245.057C202.208 245.418 201.931 246.096 201.32 246.574Z" fill="#BC9561"/>
<path d="M204.931 249.456C204.688 249.64 204.344 249.615 204.168 249.381C203.992 249.146 204.043 248.811 204.286 248.627C204.528 248.442 204.872 248.467 205.048 248.702C205.224 248.937 205.174 249.272 204.931 249.456Z" fill="#BC9561"/>
<path d="M203.012 242.519C202.618 242.82 202.183 242.912 202.024 242.711C201.873 242.519 202.065 242.108 202.459 241.807C202.853 241.505 203.289 241.413 203.448 241.614C203.599 241.807 203.406 242.217 203.012 242.519Z" fill="#BC9561"/>
<path d="M195.221 240.894C194.634 241.346 193.947 241.439 193.679 241.095C193.411 240.752 193.679 240.107 194.257 239.654C194.844 239.202 195.531 239.11 195.799 239.453C196.067 239.797 195.799 240.442 195.221 240.894Z" fill="#BC9561"/>
<path d="M197.072 245.042C196.628 245.385 196.159 245.511 196.025 245.335C195.883 245.159 196.134 244.732 196.57 244.388C197.014 244.045 197.483 243.919 197.617 244.095C197.759 244.271 197.508 244.698 197.072 245.042Z" fill="#BC9561"/>
<path d="M200.34 253.486C199.493 254.148 198.471 254.249 198.069 253.729C197.659 253.201 198.019 252.246 198.873 251.585C199.72 250.923 200.742 250.822 201.144 251.342C201.554 251.869 201.194 252.824 200.34 253.486Z" fill="#BC9561"/>
<path d="M196.871 248.509C196.318 248.936 195.673 249.037 195.43 248.727C195.187 248.417 195.447 247.814 196 247.386C196.553 246.959 197.198 246.859 197.441 247.169C197.684 247.479 197.424 248.082 196.871 248.509Z" fill="#BC9561"/>
<path d="M206.405 253.896C205.727 254.424 204.822 254.382 204.378 253.813C203.934 253.243 204.127 252.355 204.805 251.827C205.484 251.299 206.389 251.341 206.833 251.911C207.277 252.481 207.084 253.369 206.405 253.896Z" fill="#BC9561"/>
<path d="M202.769 250.469C202.434 250.729 201.839 250.537 201.445 250.025C201.052 249.514 201.01 248.894 201.353 248.635C201.697 248.375 202.283 248.568 202.677 249.079C203.071 249.59 203.113 250.21 202.769 250.469Z" fill="#BC9561"/>
<path d="M206.472 247.219C206.146 247.47 205.718 247.462 205.509 247.202C205.308 246.942 205.408 246.524 205.735 246.272C206.062 246.021 206.489 246.029 206.698 246.289C206.9 246.549 206.799 246.968 206.472 247.219Z" fill="#BC9561"/>
<path d="M208.19 242.594C207.863 242.845 207.453 242.862 207.277 242.636C207.101 242.41 207.218 242.016 207.545 241.756C207.871 241.497 208.282 241.488 208.458 241.714C208.634 241.941 208.516 242.334 208.19 242.594Z" fill="#BC9561"/>
<path d="M203.624 256.803C203.18 257.147 202.434 256.921 201.956 256.301C201.479 255.681 201.445 254.901 201.889 254.558C202.333 254.214 203.079 254.441 203.557 255.061C204.034 255.681 204.068 256.46 203.624 256.803Z" fill="#BC9561"/>
<path d="M208.307 256.686C208.013 256.912 207.569 256.828 207.318 256.502C207.067 256.175 207.1 255.723 207.394 255.496C207.687 255.27 208.131 255.354 208.382 255.681C208.633 256.007 208.6 256.46 208.307 256.686Z" fill="#BC9561"/>
<path d="M194.182 246.239C193.746 246.574 193.252 246.658 193.068 246.415C192.883 246.18 193.084 245.711 193.52 245.376C193.956 245.041 194.45 244.957 194.634 245.2C194.819 245.435 194.618 245.904 194.182 246.239Z" fill="#BC9561"/>
<path d="M195.422 237.802C195.112 238.045 194.726 238.062 194.567 237.853C194.4 237.643 194.517 237.275 194.827 237.032C195.137 236.789 195.522 236.772 195.682 236.981C195.849 237.191 195.732 237.559 195.422 237.802Z" fill="#BC9561"/>
<path d="M194.165 234.652C194.165 234.652 204.52 244.103 221.318 231.092C221.318 231.092 205.567 249.314 212.404 258.144L232.402 221.943L194.165 234.661V234.652Z" fill="#915B20"/>
<path d="M237.395 219.958C231.17 211.923 216.517 212.853 204.654 222.035C199.921 225.705 196.343 230.137 194.157 234.644C208.994 240.525 229.427 224.7 229.427 224.7C213.417 238.741 211.046 250.311 212.395 258.127C217.296 257.13 222.465 254.793 227.19 251.132C239.045 241.949 243.611 227.992 237.395 219.949V219.958Z" fill="#B7792E"/>
<path d="M196.846 232.718C196.846 232.718 205.157 235.13 214.942 230.372C224.727 225.605 236.9 218.199 232.041 217.127C227.182 216.054 206.958 216.431 196.838 232.718H196.846Z" fill="#CE8A41"/>
<path d="M214.188 256.577C214.188 256.577 213.862 243.826 223.186 233.555C232.502 223.292 238.383 219.145 238.601 225.68C238.819 232.215 229.126 251.71 214.197 256.569L214.188 256.577Z" fill="#CE8A41"/>
<path d="M199.217 231.678C199.217 231.678 206.422 233.773 214.909 229.643C223.395 225.512 233.943 219.087 229.737 218.157C225.532 217.227 207.988 217.553 199.217 231.678Z" fill="#EAA25C"/>
<path d="M215.386 254.827C215.386 254.827 215.093 243.391 223.454 234.175C231.815 224.968 237.085 221.248 237.278 227.113C237.47 232.977 228.774 250.47 215.386 254.827Z" fill="#EAA25C"/>
<path d="M252.811 188.016C256.246 173.414 251.01 159.689 241.115 157.361C231.219 155.033 220.413 164.983 216.977 179.585C213.542 194.186 218.778 207.911 228.673 210.239C238.569 212.567 249.375 202.617 252.811 188.016Z" fill="#E3BF83"/>
<path d="M228.673 210.24C238.567 212.569 249.375 202.625 252.81 188.022C254.184 182.191 254.167 176.503 253.027 171.618C253.027 171.618 239.589 170.328 236.816 178.262C236.816 178.262 236.347 167.002 224.836 163.961C221.301 167.907 218.461 173.319 216.986 179.586C213.551 194.188 218.787 207.911 228.682 210.24H228.673Z" fill="#BC9561"/>
<path d="M237.277 171.073C237.445 170.352 237.947 169.85 238.391 169.95C238.835 170.051 239.053 170.729 238.886 171.45C238.718 172.17 238.215 172.673 237.771 172.573C237.327 172.472 237.11 171.793 237.277 171.073Z" fill="#BC9561"/>
<path d="M244.155 169.297C244.248 168.887 244.801 168.669 245.387 168.803C245.973 168.937 246.367 169.381 246.267 169.792C246.175 170.202 245.622 170.42 245.035 170.286C244.449 170.152 244.055 169.708 244.155 169.297Z" fill="#BC9561"/>
<path d="M239.966 166.851C240.142 166.089 240.645 165.561 241.089 165.662C241.533 165.762 241.743 166.466 241.567 167.228C241.391 167.991 240.888 168.519 240.444 168.418C240 168.317 239.79 167.614 239.966 166.851Z" fill="#BC9561"/>
<path d="M235.342 166.885C235.409 166.583 235.694 166.399 235.979 166.466C236.263 166.533 236.431 166.826 236.364 167.128C236.297 167.429 236.012 167.614 235.727 167.547C235.442 167.48 235.275 167.186 235.342 166.885Z" fill="#BC9561"/>
<path d="M241.198 171.073C241.315 170.587 241.6 170.244 241.843 170.302C242.086 170.361 242.187 170.797 242.078 171.283C241.961 171.769 241.676 172.112 241.433 172.053C241.19 171.995 241.089 171.559 241.198 171.073Z" fill="#BC9561"/>
<path d="M248.277 167.429C248.445 166.709 248.931 166.206 249.35 166.298C249.769 166.399 249.978 167.06 249.81 167.789C249.643 168.51 249.157 169.012 248.738 168.92C248.319 168.82 248.11 168.158 248.277 167.429Z" fill="#BC9561"/>
<path d="M244.231 165.368C244.357 164.823 244.641 164.43 244.859 164.48C245.077 164.53 245.152 165.016 245.027 165.561C244.901 166.105 244.616 166.499 244.398 166.449C244.181 166.398 244.105 165.913 244.231 165.368Z" fill="#BC9561"/>
<path d="M236.373 160.869C236.615 159.822 237.344 159.102 237.989 159.252C238.635 159.403 238.961 160.375 238.71 161.422C238.467 162.469 237.738 163.19 237.093 163.039C236.448 162.888 236.121 161.917 236.373 160.869Z" fill="#BC9561"/>
<path d="M242.203 162.545C242.362 161.858 242.806 161.38 243.183 161.472C243.569 161.564 243.745 162.193 243.586 162.871C243.426 163.558 242.982 164.036 242.605 163.944C242.22 163.852 242.044 163.223 242.203 162.545Z" fill="#BC9561"/>
<path d="M231.405 164.363C231.597 163.533 232.326 162.989 233.03 163.156C233.734 163.324 234.144 164.128 233.951 164.966C233.759 165.795 233.03 166.34 232.326 166.172C231.622 166.005 231.212 165.2 231.405 164.363Z" fill="#BC9561"/>
<path d="M236.389 164.74C236.49 164.321 237.068 164.103 237.696 164.254C238.316 164.396 238.743 164.857 238.643 165.276C238.542 165.695 237.964 165.913 237.336 165.762C236.716 165.619 236.289 165.159 236.389 164.74Z" fill="#BC9561"/>
<path d="M235.56 169.591C235.652 169.189 235.995 168.921 236.314 169.005C236.64 169.08 236.825 169.465 236.724 169.868C236.632 170.27 236.289 170.538 235.97 170.454C235.652 170.37 235.459 169.993 235.56 169.591Z" fill="#BC9561"/>
<path d="M237.135 174.265C237.227 173.863 237.537 173.595 237.822 173.662C238.107 173.729 238.257 174.106 238.165 174.508C238.073 174.91 237.763 175.178 237.478 175.111C237.194 175.044 237.043 174.667 237.135 174.265Z" fill="#BC9561"/>
<path d="M231.739 160.35C231.865 159.805 232.586 159.512 233.356 159.688C234.119 159.864 234.638 160.45 234.504 160.995C234.378 161.539 233.658 161.832 232.887 161.657C232.125 161.481 231.605 160.894 231.739 160.35Z" fill="#BC9561"/>
<path d="M228.171 163.391C228.254 163.031 228.648 162.813 229.05 162.905C229.452 162.997 229.712 163.366 229.628 163.734C229.545 164.103 229.151 164.312 228.749 164.22C228.347 164.128 228.087 163.759 228.171 163.399V163.391Z" fill="#BC9561"/>
<path d="M245.722 162.629C245.848 162.092 246.183 161.715 246.476 161.791C246.769 161.858 246.903 162.344 246.778 162.88C246.652 163.416 246.317 163.793 246.024 163.718C245.731 163.651 245.597 163.165 245.722 162.629Z" fill="#BC9561"/>
<path d="M250.07 169.959C250.162 169.582 250.447 169.323 250.707 169.381C250.966 169.44 251.109 169.8 251.017 170.177C250.925 170.554 250.64 170.814 250.38 170.755C250.12 170.697 249.978 170.336 250.07 169.959Z" fill="#BC9561"/>
<path d="M253.028 171.618C253.028 171.618 239.037 170.796 234.169 191.473C234.169 191.473 234.94 167.395 224.082 164.84L231.321 205.556L253.036 171.618H253.028Z" fill="#915B20"/>
<path d="M228.673 210.239C238.568 212.568 249.375 202.624 252.81 188.021C254.184 182.19 254.167 176.502 253.028 171.618C237.797 176.384 231.874 201.543 231.874 201.543C235.476 180.557 230.039 170.076 224.074 164.84C220.89 168.694 218.344 173.771 216.978 179.585C213.543 194.187 218.779 207.91 228.673 210.239Z" fill="#B7792E"/>
<path d="M252.165 174.81C252.165 174.81 244.189 178.161 239.581 188.022C234.974 197.883 230.182 211.304 234.622 209.075C239.07 206.855 254.553 193.828 252.165 174.802V174.81Z" fill="#CE8A41"/>
<path d="M223.672 167.178C223.672 167.178 231.949 176.879 231.17 190.728C230.391 204.568 228.431 211.496 224.15 206.545C219.868 201.602 215.135 180.348 223.68 167.178H223.672Z" fill="#CE8A41"/>
<path d="M250.975 177.105C250.975 177.105 244.055 180.013 240.059 188.566C236.063 197.12 231.907 208.748 235.761 206.822C239.615 204.895 253.036 193.601 250.975 177.105Z" fill="#EAA25C"/>
<path d="M223.839 169.289C223.839 169.289 231.262 177.994 230.567 190.418C229.863 202.834 228.104 209.042 224.267 204.61C220.421 200.17 216.174 181.11 223.839 169.297V169.289Z" fill="#EAA25C"/>
<path d="M168.314 172.808C178.447 171.988 185.679 159.202 184.468 144.25C183.257 129.299 174.062 117.843 163.93 118.664C153.797 119.484 146.565 132.27 147.776 147.222C148.987 162.173 158.182 173.629 168.314 172.808Z" fill="#E3BF83"/>
<path d="M168.311 172.816C178.44 171.995 185.679 159.21 184.464 144.264C183.978 138.291 182.219 132.879 179.638 128.581C179.638 128.581 166.452 131.48 166.251 139.883C166.251 139.883 162.355 129.31 150.458 129.947C148.305 134.789 147.266 140.804 147.786 147.23C148.992 162.176 158.191 173.637 168.32 172.816H168.311Z" fill="#BC9561"/>
<path d="M164.474 132.895C164.416 132.158 164.734 131.521 165.186 131.488C165.639 131.454 166.058 132.024 166.116 132.761C166.175 133.498 165.857 134.135 165.404 134.169C164.952 134.202 164.533 133.632 164.474 132.895Z" fill="#BC9561"/>
<path d="M170.473 129.092C170.44 128.673 170.892 128.296 171.495 128.246C172.09 128.195 172.601 128.497 172.635 128.916C172.668 129.335 172.216 129.712 171.612 129.762C171.018 129.812 170.507 129.511 170.473 129.092Z" fill="#BC9561"/>
<path d="M165.74 128.053C165.672 127.274 165.991 126.612 166.443 126.578C166.896 126.545 167.315 127.14 167.382 127.919C167.449 128.698 167.13 129.36 166.678 129.393C166.225 129.427 165.807 128.832 165.74 128.053Z" fill="#BC9561"/>
<path d="M161.349 129.503C161.324 129.193 161.542 128.933 161.827 128.908C162.112 128.883 162.371 129.118 162.397 129.419C162.422 129.729 162.204 129.989 161.919 130.014C161.634 130.039 161.374 129.805 161.349 129.503Z" fill="#BC9561"/>
<path d="M168.211 131.689C168.169 131.195 168.337 130.776 168.588 130.759C168.831 130.743 169.066 131.128 169.108 131.614C169.149 132.108 168.982 132.527 168.731 132.544C168.488 132.561 168.253 132.184 168.211 131.689Z" fill="#BC9561"/>
<path d="M173.833 126.051C173.774 125.314 174.076 124.685 174.511 124.652C174.947 124.618 175.341 125.188 175.399 125.925C175.458 126.662 175.156 127.291 174.721 127.324C174.285 127.358 173.891 126.788 173.833 126.051Z" fill="#BC9561"/>
<path d="M169.35 125.33C169.309 124.777 169.451 124.308 169.677 124.291C169.903 124.275 170.121 124.71 170.171 125.263C170.213 125.816 170.071 126.285 169.845 126.302C169.619 126.319 169.401 125.883 169.35 125.33Z" fill="#BC9561"/>
<path d="M160.487 123.454C160.403 122.382 160.864 121.468 161.526 121.418C162.187 121.368 162.791 122.189 162.883 123.261C162.967 124.334 162.506 125.247 161.844 125.297C161.182 125.347 160.579 124.526 160.487 123.454Z" fill="#BC9561"/>
<path d="M166.552 123.269C166.493 122.566 166.77 121.979 167.155 121.946C167.549 121.912 167.909 122.457 167.968 123.152C168.027 123.856 167.75 124.442 167.365 124.476C166.971 124.509 166.611 123.965 166.552 123.269Z" fill="#BC9561"/>
<path d="M156.826 128.313C156.758 127.459 157.286 126.722 158.007 126.663C158.727 126.604 159.364 127.249 159.439 128.104C159.506 128.958 158.979 129.696 158.258 129.754C157.538 129.813 156.901 129.168 156.826 128.313Z" fill="#BC9561"/>
<path d="M161.684 127.14C161.651 126.713 162.137 126.327 162.774 126.277C163.41 126.227 163.955 126.528 163.988 126.956C164.022 127.383 163.536 127.768 162.899 127.818C162.263 127.869 161.718 127.567 161.684 127.14Z" fill="#BC9561"/>
<path d="M162.388 132.007C162.355 131.597 162.598 131.237 162.924 131.211C163.251 131.186 163.553 131.496 163.586 131.907C163.62 132.317 163.377 132.678 163.05 132.703C162.723 132.728 162.422 132.418 162.388 132.007Z" fill="#BC9561"/>
<path d="M165.321 135.978C165.287 135.568 165.496 135.216 165.79 135.191C166.083 135.166 166.343 135.484 166.376 135.895C166.41 136.305 166.2 136.657 165.907 136.682C165.614 136.707 165.354 136.389 165.321 135.978Z" fill="#BC9561"/>
<path d="M155.912 124.392C155.871 123.839 156.465 123.336 157.245 123.269C158.024 123.202 158.694 123.604 158.744 124.165C158.794 124.727 158.191 125.221 157.412 125.288C156.633 125.355 155.963 124.953 155.912 124.392Z" fill="#BC9561"/>
<path d="M153.458 128.371C153.424 128.003 153.734 127.676 154.153 127.642C154.563 127.609 154.924 127.885 154.949 128.254C154.974 128.623 154.672 128.949 154.254 128.983C153.835 129.016 153.483 128.74 153.458 128.371Z" fill="#BC9561"/>
<path d="M169.928 122.264C169.886 121.719 170.087 121.259 170.389 121.233C170.691 121.208 170.967 121.636 171.009 122.18C171.051 122.725 170.85 123.186 170.548 123.211C170.247 123.236 169.97 122.809 169.928 122.264Z" fill="#BC9561"/>
<path d="M176.312 127.911C176.279 127.526 176.471 127.191 176.739 127.166C177.008 127.14 177.251 127.442 177.284 127.827C177.318 128.213 177.125 128.548 176.857 128.573C176.589 128.598 176.346 128.297 176.312 127.911Z" fill="#BC9561"/>
<path d="M179.638 128.581C179.638 128.581 166.066 132.091 167.784 153.27C167.784 153.27 161.132 130.123 150.006 131.019L169.384 167.555L179.638 128.589V128.581Z" fill="#915B20"/>
<path d="M168.311 172.816C178.44 171.995 185.679 159.21 184.464 144.264C183.978 138.291 182.218 132.879 179.638 128.581C166.602 137.797 168.688 163.55 168.688 163.55C165.681 142.471 157.286 134.161 150.006 131.011C148.154 135.66 147.3 141.265 147.777 147.222C148.984 162.168 158.183 173.629 168.311 172.808V172.816Z" fill="#B7792E"/>
<path d="M179.798 131.882C179.798 131.882 173.229 137.52 171.872 148.319C170.515 159.118 170.071 173.36 173.615 169.884C177.167 166.407 187.907 149.257 179.798 131.882Z" fill="#CE8A41"/>
<path d="M150.333 133.365C150.333 133.365 161.19 140.059 164.692 153.48C168.194 166.902 168.454 174.081 162.858 170.688C157.261 167.295 146.236 148.521 150.324 133.365H150.333Z" fill="#CE8A41"/>
<path d="M179.362 134.438C179.362 134.438 173.673 139.322 172.492 148.688C171.311 158.055 170.925 170.403 174.009 167.387C177.083 164.371 186.399 149.501 179.37 134.438H179.362Z" fill="#EAA25C"/>
<path d="M151.146 135.325C151.146 135.325 160.889 141.332 164.031 153.371C167.172 165.41 167.407 171.852 162.389 168.811C157.37 165.77 147.476 148.931 151.146 135.334V135.325Z" fill="#EAA25C"/>
<path d="M192.159 209.087C196.619 194.765 192.368 180.704 182.662 177.682C172.957 174.659 161.473 183.818 157.012 198.14C152.551 212.462 156.803 226.523 166.508 229.546C176.214 232.569 187.698 223.409 192.159 209.087Z" fill="#E3BF83"/>
<path d="M182.663 177.684C172.961 174.659 161.475 183.816 157.018 198.142C155.234 203.864 154.849 209.545 155.636 214.496C155.636 214.496 168.948 216.733 172.283 209.017C172.283 209.017 171.948 220.285 183.224 224.13C187.036 220.444 190.245 215.25 192.163 209.101C196.62 194.783 192.373 180.725 182.671 177.701L182.663 177.684Z" fill="#BC9561"/>
<path d="M171.319 216.146C171.102 216.858 170.565 217.319 170.13 217.185C169.694 217.051 169.518 216.364 169.744 215.652C169.962 214.94 170.498 214.479 170.934 214.613C171.37 214.747 171.546 215.434 171.319 216.146Z" fill="#BC9561"/>
<path d="M164.333 217.436C164.207 217.838 163.646 218.023 163.067 217.838C162.498 217.662 162.129 217.193 162.255 216.791C162.38 216.389 162.942 216.205 163.52 216.389C164.09 216.565 164.458 217.034 164.333 217.436Z" fill="#BC9561"/>
<path d="M168.337 220.167C168.102 220.913 167.566 221.407 167.13 221.273C166.695 221.139 166.536 220.427 166.762 219.682C166.996 218.936 167.533 218.442 167.968 218.576C168.404 218.71 168.563 219.422 168.337 220.167Z" fill="#BC9561"/>
<path d="M172.945 220.46C172.853 220.754 172.559 220.921 172.283 220.838C172.006 220.754 171.856 220.444 171.948 220.151C172.04 219.857 172.333 219.69 172.61 219.774C172.886 219.857 173.037 220.167 172.945 220.46Z" fill="#BC9561"/>
<path d="M167.399 215.87C167.248 216.347 166.938 216.666 166.703 216.59C166.469 216.515 166.393 216.071 166.544 215.602C166.695 215.124 167.005 214.806 167.24 214.881C167.474 214.957 167.55 215.401 167.399 215.87Z" fill="#BC9561"/>
<path d="M160.085 219.003C159.867 219.715 159.348 220.184 158.937 220.05C158.527 219.916 158.367 219.246 158.585 218.534C158.803 217.822 159.323 217.353 159.733 217.487C160.144 217.612 160.303 218.291 160.085 219.003Z" fill="#BC9561"/>
<path d="M163.972 221.349C163.805 221.885 163.495 222.262 163.277 222.187C163.059 222.119 163.017 221.634 163.185 221.097C163.352 220.561 163.662 220.184 163.88 220.26C164.098 220.327 164.14 220.813 163.972 221.349Z" fill="#BC9561"/>
<path d="M171.495 226.393C171.177 227.415 170.406 228.093 169.77 227.892C169.133 227.691 168.882 226.703 169.2 225.68C169.518 224.658 170.289 223.98 170.926 224.181C171.562 224.382 171.814 225.37 171.495 226.393Z" fill="#BC9561"/>
<path d="M165.798 224.306C165.589 224.976 165.12 225.429 164.743 225.311C164.366 225.194 164.232 224.557 164.441 223.887C164.651 223.217 165.12 222.765 165.497 222.882C165.874 222.999 166.008 223.636 165.798 224.306Z" fill="#BC9561"/>
<path d="M176.698 223.259C176.447 224.08 175.676 224.566 174.989 224.348C174.302 224.13 173.942 223.293 174.202 222.48C174.453 221.659 175.224 221.173 175.911 221.391C176.598 221.609 176.958 222.447 176.698 223.259Z" fill="#BC9561"/>
<path d="M171.755 222.53C171.63 222.94 171.026 223.116 170.423 222.924C169.812 222.731 169.418 222.245 169.552 221.843C169.677 221.432 170.281 221.257 170.884 221.449C171.495 221.642 171.889 222.128 171.755 222.53Z" fill="#BC9561"/>
<path d="M172.928 217.746C172.802 218.14 172.45 218.383 172.132 218.282C171.814 218.182 171.654 217.78 171.78 217.386C171.906 216.992 172.258 216.749 172.576 216.85C172.894 216.95 173.054 217.353 172.928 217.746Z" fill="#BC9561"/>
<path d="M171.688 212.971C171.562 213.365 171.236 213.616 170.959 213.524C170.683 213.44 170.557 213.046 170.674 212.653C170.8 212.259 171.127 212.008 171.403 212.091C171.68 212.175 171.805 212.569 171.688 212.963V212.971Z" fill="#BC9561"/>
<path d="M176.087 227.23C175.919 227.766 175.182 228.009 174.428 227.774C173.682 227.54 173.205 226.92 173.372 226.392C173.54 225.856 174.277 225.613 175.031 225.847C175.777 226.082 176.254 226.702 176.087 227.23Z" fill="#BC9561"/>
<path d="M179.848 224.457C179.739 224.809 179.329 225.002 178.935 224.876C178.541 224.75 178.306 224.365 178.424 224.013C178.533 223.661 178.943 223.469 179.337 223.594C179.731 223.72 179.965 224.105 179.848 224.457Z" fill="#BC9561"/>
<path d="M162.297 223.98C162.137 224.499 161.769 224.851 161.484 224.767C161.199 224.675 161.098 224.181 161.258 223.661C161.417 223.142 161.785 222.79 162.07 222.874C162.355 222.957 162.456 223.46 162.297 223.98Z" fill="#BC9561"/>
<path d="M158.476 216.356C158.359 216.733 158.057 216.967 157.798 216.883C157.538 216.8 157.429 216.439 157.546 216.062C157.664 215.685 157.965 215.451 158.225 215.535C158.485 215.618 158.594 215.979 158.476 216.356Z" fill="#BC9561"/>
<path d="M155.645 214.488C155.645 214.488 169.543 216.297 175.86 196.015C175.86 196.015 173.389 219.975 184.037 223.293L179.697 182.166L155.636 214.488H155.645Z" fill="#915B20"/>
<path d="M182.663 177.684C172.961 174.659 161.475 183.816 157.018 198.142C155.234 203.864 154.849 209.545 155.636 214.496C171.168 210.818 178.851 186.145 178.851 186.145C173.774 206.822 178.457 217.663 184.028 223.301C187.48 219.682 190.37 214.798 192.147 209.092C196.604 194.775 192.356 180.717 182.654 177.692L182.663 177.684Z" fill="#B7792E"/>
<path d="M156.725 211.371C156.725 211.371 164.919 208.59 170.214 199.081C175.508 189.572 181.239 176.528 176.648 178.43C172.057 180.331 155.687 192.228 156.725 211.371Z" fill="#CE8A41"/>
<path d="M184.607 220.997C184.607 220.997 177.033 210.734 178.793 196.978C180.552 183.221 182.998 176.461 186.919 181.697C190.84 186.933 194.065 208.464 184.607 220.997Z" fill="#CE8A41"/>
<path d="M158.083 209.159C158.083 209.159 165.187 206.746 169.778 198.502C174.369 190.25 179.337 178.948 175.358 180.59C171.378 182.241 157.186 192.554 158.083 209.159Z" fill="#EAA25C"/>
<path d="M184.59 218.877C184.59 218.877 177.795 209.67 179.379 197.329C180.954 184.989 183.149 178.923 186.667 183.623C190.186 188.323 193.076 207.634 184.59 218.877Z" fill="#EAA25C"/>
<path d="M261.196 258.104C254.452 239.999 244.022 223.654 230.182 209.521C219.131 198.236 205.903 188.333 190.856 180.089C165.262 166.065 142.918 161.625 142.701 161.583C141.729 161.399 140.782 162.027 140.598 163.007C140.405 163.979 141.042 164.926 142.022 165.11C142.24 165.152 164.123 169.508 189.239 183.298C212.329 195.974 242.975 219.457 257.837 259.36C258.105 260.081 258.792 260.533 259.521 260.533C259.73 260.533 259.94 260.5 260.149 260.416C261.079 260.072 261.548 259.034 261.205 258.104H261.196Z" fill="#919F40"/>
<path d="M205.827 116.602C205.827 116.602 158.141 150.9 214.909 197.163C259.956 139.431 205.827 116.602 205.827 116.602Z" fill="#5D6631"/>
<path d="M214.909 197.163C234.647 171.862 235.343 153.272 229.897 140.361C230.215 146.251 231.087 177.735 213.954 179.67C196.972 181.58 188.62 157.251 187.095 152.291C187.355 164.917 194.141 180.24 214.909 197.163Z" fill="#505628"/>
<path d="M214.909 197.163L205.827 116.602C205.827 116.602 259.957 139.431 214.909 197.163Z" fill="#333917"/>
<path d="M227.953 149.912C227.953 149.636 227.736 149.401 227.459 149.393C227.174 149.393 226.948 149.61 226.94 149.887C226.655 166.768 215.387 172.088 212.706 173.119L209.43 144.031C210.318 143.914 212.069 143.47 213.644 141.76C216.283 138.895 217.221 133.894 216.434 126.89C216.4 126.613 216.149 126.412 215.873 126.446C215.596 126.479 215.395 126.731 215.429 127.007C216.174 133.592 215.303 138.451 212.924 141.057C211.55 142.556 210.05 142.933 209.321 143.034L206.531 118.311C206.498 118.034 206.247 117.833 205.97 117.867C205.694 117.9 205.493 118.152 205.526 118.428L210.092 158.943C197.693 158.742 194.492 135.971 194.459 135.737C194.425 135.46 194.166 135.251 193.889 135.301C193.613 135.335 193.42 135.594 193.454 135.871C193.588 136.859 196.83 159.915 210.201 159.957L213.15 186.154C209.69 184.362 196.193 176.285 194.224 158.7C194.191 158.424 193.94 158.223 193.663 158.256C193.387 158.29 193.186 158.541 193.219 158.818C195.38 178.103 211.047 186.28 213.292 187.361L214.071 194.281C214.105 194.557 214.356 194.758 214.633 194.725C214.909 194.691 215.11 194.44 215.077 194.164L212.823 174.157C215.253 173.269 227.643 167.882 227.953 149.904V149.912Z" fill="#889146"/>
<path d="M113.018 208.246C113.018 208.246 156.935 236.932 177.209 174.76C114.618 155.81 113.018 208.246 113.018 208.246Z" fill="#5D6631"/>
<path d="M177.209 174.76C149.78 166.458 134.071 171.861 125.065 180.549C129.866 178.396 155.82 167.53 162.941 181.178C170.004 194.708 152.419 209.503 148.774 212.36C159.213 208.079 169.794 197.498 177.209 174.752V174.76Z" fill="#505628"/>
<path d="M177.209 174.76L113.018 208.246C113.018 208.246 114.618 155.81 177.209 174.76Z" fill="#333917"/>
<path d="M133.644 179.091C133.409 179.175 133.292 179.435 133.376 179.669C133.46 179.904 133.719 180.021 133.954 179.937C148.104 174.743 156.172 182.417 157.889 184.319L134.716 196.408C134.339 195.704 133.401 194.389 131.466 193.627C128.232 192.353 123.758 193.183 118.179 196.09C117.961 196.207 117.869 196.475 117.986 196.701C118.103 196.927 118.371 197.011 118.597 196.894C123.842 194.154 128.165 193.317 131.105 194.456C132.798 195.118 133.602 196.249 133.912 196.818L114.216 207.09C113.998 207.207 113.906 207.475 114.023 207.701C114.14 207.919 114.409 208.011 114.635 207.894L146.923 191.055C150.743 201.451 132.806 211.438 132.622 211.547C132.404 211.664 132.312 211.949 132.446 212.158C132.563 212.376 132.84 212.46 133.058 212.334C133.845 211.907 152 201.787 147.727 190.627L168.605 179.736C168.219 183.196 165.84 197.036 151.824 204.342C151.606 204.459 151.514 204.727 151.631 204.953C151.748 205.171 152.016 205.263 152.243 205.146C167.616 197.137 169.384 181.454 169.56 179.242L175.072 176.368C175.29 176.251 175.382 175.983 175.265 175.757C175.148 175.539 174.88 175.447 174.653 175.564L158.71 183.883C157.194 182.141 148.716 173.553 133.636 179.083L133.644 179.091Z" fill="#889146"/>
<path d="M69.5287 134.597C69.5287 134.597 77.806 192.756 145.113 163.911C114.853 97.2323 69.5287 134.597 69.5287 134.597Z" fill="#5D6631"/>
<path d="M145.113 163.919C131.851 134.698 115.707 125.457 101.741 124.301C107.103 126.755 135.403 140.579 129.17 156.656C122.988 172.59 97.5609 168.703 92.4588 167.756C103.769 173.386 120.491 174.475 145.113 163.928V163.919Z" fill="#505628"/>
<path d="M145.113 163.92L69.5287 134.597C69.5287 134.597 114.853 97.2323 145.113 163.911V163.92Z" fill="#333917"/>
<path d="M109.298 130.442C109.055 130.308 108.745 130.4 108.611 130.643C108.477 130.886 108.569 131.196 108.812 131.33C123.633 139.414 123.13 151.864 122.795 154.712L95.5083 144.131C95.8183 143.293 96.2372 141.534 95.4496 139.347C94.1343 135.678 90.1381 132.528 83.5615 129.981C83.3018 129.88 83.0086 130.006 82.9081 130.274C82.8075 130.542 82.9332 130.827 83.2013 130.927C89.3757 133.324 93.2798 136.34 94.4862 139.657C95.1816 141.567 94.8213 143.075 94.5616 143.762L71.3718 134.765C71.1121 134.664 70.8189 134.79 70.7184 135.058C70.6178 135.317 70.7435 135.611 71.0116 135.711L109.03 150.456C103.099 161.347 81.442 153.623 81.2241 153.539C80.9644 153.447 80.6628 153.573 80.5707 153.841C80.4785 154.1 80.6126 154.394 80.8723 154.494C81.8106 154.838 103.735 162.654 109.977 150.825L134.557 160.359C131.357 162.596 117.952 170.806 101.457 164.397C101.197 164.296 100.904 164.422 100.803 164.69C100.703 164.95 100.828 165.243 101.096 165.344C119.192 172.372 133.694 162.286 135.688 160.794L142.181 163.316C142.441 163.417 142.734 163.291 142.835 163.023C142.935 162.755 142.809 162.47 142.541 162.369L123.767 155.089C124.11 152.525 125.082 139.046 109.298 130.442Z" fill="#889146"/>
<path d="M153.005 92.7588C153.005 92.7588 108.905 124.486 161.4 167.263C203.063 113.871 153.005 92.7588 153.005 92.7588Z" fill="#5D6631"/>
<path d="M161.409 167.271C179.664 143.872 180.309 126.681 175.274 114.742C175.567 120.188 176.371 149.309 160.529 151.093C144.82 152.861 137.096 130.358 135.689 125.767C135.923 137.446 142.207 151.621 161.409 167.271Z" fill="#505628"/>
<path d="M161.409 167.27L153.014 92.7666C153.014 92.7666 203.072 113.879 161.409 167.27Z" fill="#333917"/>
<path d="M173.472 123.564C173.472 123.304 173.271 123.095 173.012 123.086C172.752 123.086 172.542 123.288 172.534 123.547C172.266 139.155 161.852 144.081 159.373 145.036L156.34 118.135C157.161 118.026 158.778 117.616 160.235 116.032C162.673 113.385 163.545 108.752 162.816 102.276C162.791 102.016 162.556 101.832 162.296 101.865C162.037 101.891 161.852 102.125 161.886 102.385C162.573 108.476 161.769 112.966 159.574 115.379C158.309 116.77 156.909 117.121 156.239 117.205L153.659 94.3422C153.634 94.0825 153.399 93.8982 153.139 93.9317C152.88 93.9568 152.695 94.1914 152.729 94.4511L156.951 131.925C145.482 131.741 142.525 110.679 142.491 110.461C142.458 110.201 142.223 110.017 141.963 110.059C141.704 110.092 141.528 110.327 141.561 110.587C141.687 111.508 144.686 132.821 157.052 132.863L159.783 157.092C156.583 155.433 144.1 147.96 142.273 131.699C142.248 131.439 142.014 131.255 141.754 131.288C141.494 131.313 141.31 131.548 141.344 131.808C143.346 149.644 157.831 157.209 159.909 158.206L160.629 164.607C160.654 164.867 160.889 165.051 161.149 165.017C161.408 164.992 161.593 164.758 161.559 164.498L159.473 145.991C161.727 145.17 173.179 140.186 173.464 123.564H173.472Z" fill="#889146"/>
<path d="M334.93 342.283C334.93 342.283 353.729 368.765 384.711 347.008C413.145 327.035 393.608 302.748 393.608 302.748L334.93 342.283Z" fill="#492A08"/>
<path d="M381.058 349.362C376.66 344.26 381.444 331.199 381.444 331.199L363.683 322.896L334.922 342.274C334.922 342.274 352.255 366.654 381.058 349.354V349.362Z" fill="#351F08"/>
<path d="M374.011 336.959C390.215 326.042 398.99 310.717 393.61 302.732C388.23 294.747 370.732 297.124 354.528 308.042C338.323 318.96 329.548 334.284 334.928 342.269C340.308 350.255 357.806 347.877 374.011 336.959Z" fill="#9F6F01"/>
<path d="M377.673 323.759C385.28 312.776 386.964 305.002 379.701 301.114C375.872 299.062 381.762 298.752 388.196 298.919C380.321 296.314 367.05 299.623 354.525 308.059C338.323 318.976 329.551 334.299 334.93 342.283C340.308 350.267 357.81 347.896 374.012 336.98C376.71 335.162 379.198 333.218 381.452 331.207C381.452 331.207 370.066 334.743 377.673 323.759Z" fill="#825907"/>
<path d="M389.503 300.946C389.503 300.946 400.486 308.888 384.099 326.968C384.099 326.968 394.747 310.07 389.503 300.946Z" fill="#D19324"/>
<path d="M339.219 333.696C343.148 339.535 355.941 337.792 367.779 329.817C379.625 321.841 386.034 310.64 382.105 304.801C381.536 303.963 380.773 303.293 379.86 302.765L379.885 302.748C379.885 302.748 364.135 292.091 347.647 302.748C336.496 309.953 332.199 321.673 338.063 331.811L339.219 333.687V333.696Z" fill="#E2BB7D"/>
<path d="M333.849 292.82C333.849 292.82 315.049 319.302 284.068 297.545C255.633 277.572 275.17 253.285 275.17 253.285L333.849 292.82Z" fill="#492A08"/>
<path d="M287.72 299.908C292.119 294.806 287.335 281.745 287.335 281.745L305.096 273.442L333.857 292.82C333.857 292.82 316.523 317.2 287.72 299.899V299.908Z" fill="#351F08"/>
<path d="M333.852 292.834C339.232 284.849 330.457 269.525 314.252 258.607C298.048 247.689 280.55 245.312 275.17 253.297C269.789 261.282 278.565 276.607 294.769 287.524C310.974 298.442 328.472 300.82 333.852 292.834Z" fill="#9F6F01"/>
<path d="M291.114 274.297C283.507 263.313 281.823 255.539 289.086 251.651C292.915 249.599 287.025 249.289 280.591 249.456C288.466 246.851 301.737 250.16 314.261 258.597C330.464 269.513 339.236 284.836 333.857 292.82C328.479 300.804 310.977 298.433 294.775 287.517C292.077 285.699 289.589 283.755 287.335 281.744C287.335 281.744 298.721 285.28 291.114 274.297Z" fill="#825907"/>
<path d="M279.284 251.484C279.284 251.484 268.301 259.427 284.688 277.506C284.688 277.506 274.039 260.608 279.284 251.484Z" fill="#D19324"/>
<path d="M329.559 284.233C325.63 290.072 312.837 288.329 300.999 280.354C289.162 272.378 282.744 261.177 286.673 255.338C287.243 254.5 288.005 253.83 288.919 253.302L288.893 253.285C288.893 253.285 304.644 242.629 321.131 253.285C332.282 260.49 336.58 272.211 330.715 282.348L329.559 284.224V284.233Z" fill="#E2BB7D"/>
<path d="M304.51 248.561C305.205 248.527 332.433 251.493 335.432 268.123C338.231 283.63 339.295 309.417 340.769 306.133C344.79 297.177 362.509 293.583 370.963 297.554C378.938 301.299 373.216 316.086 368.709 317.586C364.202 319.085 345.335 328.343 343.584 339.82C341.783 351.667 345.151 404.187 348.761 415.003C352.255 425.483 347.756 436.483 342.57 436.483C337.384 436.483 330.054 428.256 334.502 415.187C338.951 402.118 339.186 356.266 337.611 340.491C336.036 324.715 329.735 319.42 333.338 313.958C336.932 308.496 334.117 290.793 327.415 286.236C320.713 281.678 298.629 278.453 295.252 268.123C291.876 257.793 295.965 249.013 304.51 248.561Z" fill="#FDB336"/>
<path d="M295.252 268.123C298.629 278.453 320.713 281.678 327.415 286.236C334.117 290.793 336.94 308.496 333.338 313.958C329.744 319.42 336.036 324.715 337.611 340.491C339.186 356.266 338.951 402.118 334.502 415.187C330.054 428.257 337.611 436.484 342.57 436.484C345.193 436.484 347.63 433.669 348.954 429.53C340.258 430.862 337.552 408.812 338.289 401.104C339.194 391.637 340.543 354.239 340.543 342.518C340.543 330.797 340.995 315.248 337.167 316.153C333.338 317.058 337.845 309.166 334.93 294.522C332.014 279.877 321.626 271.985 315.091 269.061C308.556 266.129 317.118 272.664 306.303 271.315C295.529 269.966 296.157 253.412 296.166 253.303C296.157 253.319 296.149 253.328 296.14 253.336C296.132 253.353 296.124 253.361 296.099 253.403C293.828 257.031 293.367 262.334 295.261 268.131L295.252 268.123Z" fill="#DD962F"/>
<path d="M368.709 317.577C373.216 316.078 378.938 301.291 370.963 297.546C362.912 293.768 346.458 296.851 341.439 304.893C341.012 305.672 340.769 306.133 340.769 306.133C340.769 306.133 345.251 310.222 343.207 317.586C343.207 317.586 347.363 309.736 346.567 305.17C345.771 300.604 364.981 294.354 360.759 299.423C356.536 304.491 374.113 300.286 372.932 306.108C371.75 311.931 349.817 322.227 347.773 331.526C354.065 324.104 365.358 318.7 368.709 317.577Z" fill="#DD962F"/>
<path d="M346.29 329.675C346.29 329.675 351.962 321.825 357.86 317.586C363.758 313.338 372.094 307.34 370.854 306.117C369.614 304.894 362.401 305.354 360.147 302.757C357.893 300.16 358.798 305.689 362.736 306.142C366.682 306.586 346.734 322.923 346.29 329.684V329.675Z" fill="url(#paint0_linear_234_1448)"/>
<path d="M297.958 252.607C297.958 252.607 295.814 265.836 302.692 268.123C309.57 270.41 311.731 269.732 310.592 266.69C309.453 263.649 323.77 266.238 331.419 282.466C331.419 282.466 319.481 252.272 297.958 252.607Z" fill="url(#paint1_linear_234_1448)"/>
<path d="M449.186 92.7003C448.616 91.6028 447.267 91.1672 446.17 91.7369C445.877 91.8877 416.37 107.194 383.588 131.397C364.31 145.631 347.664 160.125 334.117 174.476C328.99 179.913 324.306 185.325 320.067 190.721C308.891 173.069 335.047 122.76 346.575 104.111C347.228 103.055 346.901 101.681 345.846 101.028C344.79 100.374 343.416 100.701 342.763 101.757C342.654 101.933 331.536 119.978 322.974 140.253C311.79 166.735 309.863 184.94 317.202 194.44C308.791 205.658 302.348 216.742 297.967 227.566C297.59 228.488 297.874 229.518 298.603 230.122C298.779 230.264 298.98 230.39 299.198 230.482C300.346 230.943 301.653 230.39 302.114 229.25C317.47 191.366 356.301 157.109 386.185 135.042C418.691 111.031 447.929 95.8671 448.214 95.7163C449.312 95.1467 449.747 93.7978 449.178 92.7003H449.186Z" fill="#414F15"/>
<path d="M301.854 223.378C301.854 223.378 327.976 222.598 347.345 228.438C366.715 234.277 409.517 212.629 426.424 194.516C426.424 194.516 379.047 173.421 345.494 191.073C311.941 208.733 301.854 223.369 301.854 223.369V223.378Z" fill="#7A923A"/>
<path d="M306.512 221.283C306.512 221.283 336.756 195.513 332.182 203.296C327.607 211.079 341.104 201.553 345.15 196.728C349.197 191.902 365.425 187.663 360.708 193.285C355.991 198.906 391.379 184.295 387.668 189.406C383.956 194.516 428.593 191.198 419.738 194.834C410.883 198.47 382.465 194.801 386.051 198.278C389.637 201.754 406.007 213.199 398.525 212.453C391.044 211.699 362.199 203.447 367.117 205.943C372.035 208.44 383.554 224.023 367.737 219.767C351.911 215.511 329.886 215.327 338.197 218.393C346.508 221.459 313.541 218.468 306.52 221.283H306.512Z" fill="#64772B"/>
<path d="M423.139 195.002C423.198 194.734 423.031 194.466 422.762 194.407C412.701 192.196 401.382 192.288 390.064 193.662C389.972 193.662 389.905 193.662 389.871 193.662C389.787 193.662 389.712 193.687 389.645 193.72C380.153 194.902 370.678 196.979 361.931 199.359H361.914C361.847 199.359 361.789 199.384 361.73 199.409C356.729 200.775 351.962 202.241 347.588 203.698C347.195 203.832 346.809 203.958 346.424 204.092C351.291 201.034 357.893 195.714 359.569 188.551C359.627 188.283 359.468 188.015 359.2 187.956C358.932 187.898 358.664 188.057 358.605 188.325C356.042 199.275 340.744 206.061 340.585 206.128C321.039 213.149 306.78 220.387 306.621 220.462C306.378 220.588 306.277 220.89 306.403 221.133C306.437 221.191 306.478 221.25 306.529 221.292C306.68 221.417 306.889 221.451 307.073 221.35C307.165 221.3 312.511 218.594 321.081 214.899C322.455 214.606 345.234 209.906 361.026 221.283C361.253 221.443 361.563 221.392 361.722 221.174C361.881 220.948 361.831 220.638 361.604 220.479C349.18 211.532 332.567 212.294 324.935 213.266C331.419 210.568 339.286 207.51 347.907 204.645C352.297 203.187 357.08 201.713 362.099 200.339C363.758 200.222 386.017 198.973 396.297 211.867C396.473 212.076 396.783 212.118 396.992 211.942C397.21 211.775 397.244 211.456 397.068 211.238C388.899 201.001 373.534 199.401 366.12 199.266C373.803 197.306 381.937 195.647 390.072 194.65C391.882 194.742 404.155 195.58 410.489 202.333C410.673 202.534 410.992 202.542 411.193 202.358C411.394 202.174 411.402 201.855 411.218 201.654C406.719 196.837 399.564 194.918 394.781 194.148C404.44 193.293 413.957 193.486 422.545 195.371C422.813 195.429 423.081 195.262 423.139 194.994V195.002Z" fill="#444F19"/>
<path d="M316.297 167.648C316.297 167.648 304.962 150.448 292.412 140.604C279.87 130.76 274.425 93.3451 278.446 74.2354C278.446 74.2354 313.524 95.2301 317.344 124.871C321.165 154.512 316.297 167.656 316.297 167.656V167.648Z" fill="#7A923A"/>
<path d="M315.527 163.685C315.527 163.685 318.442 132.503 315.493 138.979C312.544 145.455 312.569 132.436 313.851 127.644C315.133 122.852 310.508 110.461 309.025 116.049C307.542 121.637 300.924 92.1975 299.307 96.9058C297.69 101.614 279.602 71.3284 281.27 78.6841C282.937 86.0398 298.176 102.703 294.314 101.974C290.452 101.246 275.648 95.867 279.519 100.357C283.389 104.848 301.787 119.702 297.958 117.666C294.13 115.63 278.849 115.262 288.768 123.531C298.687 131.808 308.791 145.924 303.044 141.953C297.296 137.982 314.169 157.88 315.535 163.694L315.527 163.685Z" fill="#64772B"/>
<path d="M279.628 76.5723C279.77 76.4131 280.021 76.4047 280.181 76.5472C286.171 82.0346 291.239 89.3736 295.478 97.2906C295.52 97.3493 295.554 97.3912 295.571 97.4079C295.612 97.4582 295.629 97.5168 295.638 97.5839C299.181 104.236 302.139 111.29 304.56 118.017V118.026C304.585 118.068 304.602 118.118 304.61 118.168C305.993 122.014 307.207 125.75 308.255 129.235C308.347 129.545 308.439 129.855 308.531 130.165C308.296 125.641 308.741 118.972 312.594 114.649C312.737 114.49 312.988 114.474 313.147 114.616C313.306 114.758 313.323 115.01 313.181 115.169C307.274 121.787 309.846 134.723 309.872 134.857C314.203 150.641 315.996 163.123 316.021 163.257C316.054 163.475 315.904 163.668 315.686 163.702C315.635 163.702 315.577 163.702 315.527 163.693C315.376 163.651 315.258 163.534 315.242 163.366C315.233 163.283 314.555 158.608 313.055 151.411C312.628 150.389 305.322 133.575 290.829 128.54C290.628 128.473 290.519 128.247 290.586 128.037C290.653 127.836 290.879 127.719 291.088 127.794C302.491 131.749 309.528 142.807 312.36 148.169C311.162 142.765 309.562 136.306 307.509 129.445C306.462 125.951 305.247 122.206 303.856 118.344C303.178 117.221 293.895 102.301 280.918 101.513C280.7 101.496 280.541 101.312 280.549 101.094C280.566 100.876 280.75 100.717 280.968 100.726C291.273 101.354 299.265 110.536 302.717 115.253C300.497 109.413 297.883 103.415 294.833 97.7179C293.954 96.5953 287.846 89.0552 280.625 88.0331C280.415 88.008 280.264 87.8069 280.289 87.5891C280.315 87.3713 280.516 87.2289 280.734 87.254C285.877 87.9745 290.36 91.7194 293.024 94.4505C289.203 87.8321 284.763 81.7833 279.653 77.1001C279.494 76.9577 279.485 76.7063 279.628 76.5472V76.5723Z" fill="#444F19"/>
<path d="M354.509 153.565C354.509 153.565 365.199 130.492 376.551 140.763C387.902 151.035 372.571 167.539 358.94 166.391C358.94 166.391 381.049 169.717 381.736 182.301C382.423 194.884 362.049 207.392 352.64 193.82C343.232 180.248 350.646 170.379 350.646 170.379C350.646 170.379 339.026 195.965 328.579 188.282C318.132 180.6 319.741 158.792 341.389 162.345C341.389 162.345 322.907 159.061 323.519 146.779C324.131 134.497 340.3 135.996 344.204 142.682C344.204 142.682 344.229 122.776 354.282 127.811C364.336 132.846 354.509 153.565 354.509 153.565Z" fill="#96B534"/>
<path d="M362.233 190.871C370.183 192.957 370.183 177.383 370.183 177.383C373.099 177.458 376.458 173.269 376.458 173.269C369.723 168.008 358.94 166.383 358.94 166.383C364.621 166.86 370.586 164.272 374.8 160.351C371.222 159.572 376.517 153.682 375.411 149.602C374.305 145.522 364.663 150.373 365.417 147.558C366.162 144.743 361.579 142.967 361.579 142.967C357.466 147.332 354.71 153.112 354.509 153.531C354.509 153.548 354.5 153.556 354.5 153.556C354.5 153.556 354.5 153.548 354.509 153.531C354.735 153.054 358.245 145.463 358.739 138.476C356.88 130.124 349.172 142.674 349.231 144.089C349.289 145.505 344.196 142.674 344.196 142.674C332.877 134.706 330.422 145.38 332.885 143.394C335.349 141.408 337.644 154.017 334.854 153.297C332.073 152.576 327.39 155.835 327.39 155.835C332.651 160.786 341.372 162.345 341.372 162.345C333.966 161.13 328.906 162.881 325.865 166.022C327.767 167.564 328.889 172.406 328.805 176.805C328.688 183.415 340.995 185.132 340.995 185.132C344.405 181.605 347.27 176.813 348.963 173.663C349.733 171.56 350.621 170.379 350.621 170.379C350.621 170.379 350.018 171.711 348.963 173.663C347.505 177.643 346.458 184.94 352.615 193.812C352.892 194.205 353.177 194.582 353.47 194.934C353.746 191.424 356.234 189.304 362.208 190.871H362.233Z" fill="#839928"/>
<path d="M355.505 184.621C355.505 184.621 361.152 188.55 365.056 185.635C365.056 185.635 369.865 182.032 368.34 176.511C368.34 176.511 374.305 175.766 374.867 172.138C368.156 167.782 358.949 166.391 358.949 166.391C363.121 166.743 367.452 165.436 371.13 163.165C371.13 163.165 373.593 157.041 373.233 155.232L367.017 150.138C367.017 150.138 364.687 149.124 363.372 149.3C363.372 149.3 362.568 145.354 360.532 144.165C357.013 148.32 354.701 153.162 354.525 153.548C354.525 153.564 354.517 153.573 354.517 153.573C354.517 153.573 354.517 153.564 354.525 153.548C354.71 153.162 357.055 148.085 358.203 142.447L357.734 142.095C357.734 142.095 352.255 141.333 349.172 146.125C349.172 146.125 342.955 143.168 339.696 145.128C339.696 145.128 335.725 149.618 336.446 154.117C336.446 154.117 330.841 155.458 330.322 158.072C335.374 161.28 341.397 162.353 341.397 162.353C336.496 161.548 332.634 162.043 329.693 163.375C329.693 163.375 330.791 168.066 333.857 168.577C333.857 168.577 329.207 173.797 332.123 178.061C335.038 182.317 339.562 182.091 341.213 181.571L342.52 183.465C345.268 180.197 347.555 176.335 348.996 173.663C349.767 171.56 350.655 170.379 350.655 170.379C350.655 170.379 350.051 171.711 348.996 173.663C347.848 176.788 346.968 181.957 349.616 188.332C349.691 188.324 354.391 187.553 355.505 184.621Z" fill="#5B6812"/>
<path d="M363.456 171.115C361.655 169.197 360.105 167.823 358.781 166.851C360.398 166.549 362.392 165.988 364.847 165.05C376.224 160.702 372.63 152.692 372.63 152.692C372.63 152.692 366.991 145.957 358.111 154.293C356.192 156.094 354.818 157.644 353.847 158.967C353.545 157.35 352.984 155.357 352.045 152.902C347.697 141.525 339.688 145.119 339.688 145.119C339.688 145.119 332.952 150.757 341.288 159.638C343.09 161.556 344.639 162.93 345.963 163.902C344.346 164.204 342.352 164.765 339.898 165.703C328.521 170.051 332.115 178.06 332.115 178.06C332.115 178.06 337.753 184.796 346.633 176.46C348.552 174.659 349.926 173.109 350.898 171.785C351.199 173.402 351.761 175.396 352.699 177.851C357.047 189.228 365.056 185.634 365.056 185.634C365.056 185.634 371.792 179.996 363.456 171.115Z" fill="#C68F2E"/>
<path d="M364.269 161.598C361.638 161.515 359.577 161.64 357.943 161.883C358.873 160.526 359.887 158.725 360.968 156.32C365.936 145.203 357.726 142.078 357.726 142.078C357.726 142.078 348.979 141.307 348.594 153.472C348.51 156.103 348.636 158.164 348.879 159.797C347.521 158.867 345.72 157.854 343.316 156.773C332.198 151.805 329.074 160.015 329.074 160.015C329.074 160.015 328.303 168.761 340.467 169.147C343.098 169.231 345.159 169.105 346.793 168.862C345.863 170.219 344.849 172.02 343.768 174.425C338.8 185.542 347.01 188.667 347.01 188.667C347.01 188.667 355.757 189.438 356.142 177.273C356.226 174.643 356.1 172.582 355.857 170.948C357.215 171.878 359.016 172.892 361.42 173.972C372.538 178.94 375.663 170.73 375.663 170.73C375.663 170.73 376.433 161.984 364.269 161.598Z" fill="#F0BB49"/>
<path d="M361.361 162.52C359.376 162.461 357.818 162.554 356.586 162.738C357.29 161.716 358.061 160.35 358.865 158.532C362.618 150.138 356.418 147.775 356.418 147.775C356.418 147.775 349.808 147.189 349.524 156.387C349.465 158.373 349.557 159.931 349.741 161.163C348.719 160.459 347.354 159.688 345.536 158.884C337.141 155.131 334.779 161.33 334.779 161.33C334.779 161.33 334.192 167.94 343.391 168.225C345.377 168.284 346.935 168.192 348.166 168.007C347.463 169.03 346.692 170.395 345.888 172.213C342.134 180.608 348.334 182.97 348.334 182.97C348.334 182.97 354.944 183.557 355.229 174.358C355.287 172.372 355.195 170.814 355.011 169.583C356.033 170.286 357.399 171.057 359.217 171.861C367.611 175.615 369.974 169.415 369.974 169.415C369.974 169.415 370.56 162.805 361.361 162.52Z" fill="#EFD3A0"/>
<path d="M358.948 166.382C358.127 169.951 354.567 172.188 350.998 171.367C347.429 170.546 345.192 166.985 346.013 163.416C346.834 159.847 350.395 157.61 353.964 158.431C357.533 159.253 359.769 162.813 358.948 166.382Z" fill="white"/>
<path d="M354.249 164.682C353.486 159.781 349.39 167.036 350.772 162.646C352.146 158.264 358.664 162.529 358.689 162.537C357.927 160.535 356.217 158.943 353.972 158.432C350.403 157.611 346.843 159.839 346.022 163.417C345.201 166.986 347.429 170.546 351.006 171.367C351.802 171.552 352.59 171.577 353.352 171.476C354.416 169.809 354.659 167.262 354.257 164.69L354.249 164.682Z" fill="#EFE6B6"/>
<path d="M400.963 125.474C400.963 125.474 377.899 141.601 391.287 151.973C404.675 162.345 419.679 142.447 415.792 127.82C415.792 127.82 423.701 151.261 437.541 149.56C451.381 147.859 461.057 123.245 444.453 115.63C427.848 108.006 418.532 118.001 418.532 118.001C418.532 118.001 444.151 100.382 433.754 90.4883C423.366 80.5941 399.908 86.5758 407.984 109.472C407.984 109.472 400.821 89.9772 387.559 93.0267C374.297 96.0763 379.064 113.393 387.107 116.359C387.107 116.359 365.425 120.246 372.856 130.224C380.287 140.202 400.955 125.474 400.955 125.474H400.963Z" fill="#96B534"/>
<path d="M443.104 126.656C446.916 134.908 429.951 137.932 429.951 137.932C430.596 141.099 426.692 145.564 426.692 145.564C419.655 139.248 415.793 127.82 415.793 127.82C417.418 133.911 415.759 140.915 412.299 146.268C410.757 142.523 405.371 149.435 400.704 149.025C396.038 148.614 399.464 137.17 396.54 138.527C393.616 139.884 390.802 135.235 390.802 135.235C394.756 129.906 400.52 125.784 400.939 125.491C400.955 125.483 400.964 125.474 400.964 125.474C400.964 125.474 400.955 125.474 400.939 125.491C400.461 125.826 392.879 131.121 385.364 133.023C375.906 132.621 388.079 121.788 389.637 121.57C391.195 121.361 387.124 116.359 387.124 116.359C376.249 105.577 387.4 100.835 385.716 103.902C384.032 106.968 398.207 107.018 396.884 104.128C395.56 101.237 398.199 95.5071 398.199 95.4987C404.617 100.266 408.001 109.473 408.001 109.473C405.236 101.64 406.166 95.7835 408.998 91.8711C411.051 93.6388 416.538 93.9237 421.313 92.9853C428.493 91.5779 432.749 104.647 432.749 104.647C429.566 109.046 424.908 113.092 421.799 115.555C419.655 116.803 418.54 118.001 418.54 118.001C418.54 118.001 419.873 117.088 421.799 115.555C425.854 113.193 433.595 110.646 444.461 115.631C444.947 115.857 445.408 116.091 445.852 116.343C442.082 117.323 440.256 120.448 443.121 126.656H443.104Z" fill="#839928"/>
<path d="M434.994 120.531C434.994 120.531 440.365 125.918 437.952 130.744C437.952 130.744 434.961 136.684 428.652 136.089C428.652 136.089 429.004 142.732 425.151 144.048C419.102 137.58 415.809 127.828 415.809 127.828C416.999 132.302 416.421 137.27 414.662 141.719C414.662 141.719 408.47 145.589 406.435 145.547L399.674 139.767C399.674 139.767 398.124 137.429 398.057 135.963C398.057 135.963 393.6 135.854 391.916 133.869C395.761 129.227 400.587 125.776 400.972 125.508C400.989 125.499 400.997 125.491 400.997 125.491C400.997 125.491 400.989 125.491 400.972 125.508C400.587 125.776 395.51 129.328 389.587 131.665L389.118 131.221C389.118 131.221 387.224 125.399 391.849 121.109C391.849 121.109 387.417 114.91 388.925 110.98C388.925 110.98 393.047 105.778 398.09 105.694C398.09 105.694 398.459 99.3269 401.215 98.2545C405.689 103.139 408.026 109.498 408.026 109.498C406.2 104.32 405.991 100.005 406.87 96.5454C406.87 96.5454 412.19 96.8303 413.346 100.072C413.346 100.072 418.13 93.9902 423.341 96.3444C428.544 98.6985 429.18 103.667 428.929 105.56L431.25 106.624C428.225 110.252 424.464 113.485 421.825 115.58C419.68 116.828 418.566 118.026 418.566 118.026C418.566 118.026 419.898 117.113 421.825 115.58C425.008 113.728 430.47 111.768 437.918 113.418C437.918 113.502 437.994 118.772 435.02 120.556L434.994 120.531Z" fill="#5B6812"/>
<path d="M421.824 131.808C419.386 130.216 417.594 128.801 416.27 127.544C416.253 129.37 416.035 131.649 415.491 134.506C412.961 147.734 403.536 145.38 403.536 145.38C403.536 145.38 395.107 140.546 402.463 129.261C404.055 126.823 405.471 125.031 406.727 123.707C404.901 123.69 402.622 123.472 399.766 122.928C386.537 120.398 388.891 110.973 388.891 110.973C388.891 110.973 393.734 102.545 405.01 109.9C407.448 111.492 409.241 112.908 410.565 114.165C410.581 112.338 410.799 110.059 411.344 107.203C413.874 93.9741 423.299 96.3282 423.299 96.3282C423.299 96.3282 431.727 101.171 424.371 112.447C422.779 114.885 421.364 116.678 420.107 118.002C421.933 118.018 424.212 118.236 427.069 118.781C440.297 121.311 437.943 130.736 437.943 130.736C437.943 130.736 433.109 139.164 421.824 131.808Z" fill="#C68F2E"/>
<path d="M411.612 134.539C411.009 131.691 410.749 129.42 410.699 127.594C409.4 128.876 407.633 130.325 405.228 131.967C394.086 139.541 389.084 131.205 389.084 131.205C389.084 131.205 386.546 121.822 399.724 119.048C402.573 118.445 404.843 118.186 406.669 118.135C405.387 116.837 403.938 115.069 402.296 112.665C394.723 101.522 403.058 96.5206 403.058 96.5206C403.058 96.5206 412.442 93.9821 415.215 107.16C415.818 110.009 416.078 112.279 416.128 114.106C417.426 112.824 419.194 111.374 421.599 109.732C432.741 102.159 437.743 110.495 437.743 110.495C437.743 110.495 440.281 119.878 427.103 122.651C424.254 123.254 421.984 123.514 420.158 123.564C421.439 124.863 422.889 126.63 424.531 129.035C432.104 140.177 423.768 145.179 423.768 145.179C423.768 145.179 414.385 147.717 411.612 134.539Z" fill="#F0BB49"/>
<path d="M412.056 131.197C411.604 129.043 411.403 127.326 411.369 125.952C410.389 126.916 409.048 128.021 407.23 129.253C398.811 134.975 395.041 128.675 395.041 128.675C395.041 128.675 393.122 121.587 403.083 119.493C405.236 119.04 406.954 118.839 408.328 118.806C407.364 117.826 406.259 116.485 405.027 114.667C399.305 106.247 405.605 102.477 405.605 102.477C405.605 102.477 412.693 100.559 414.787 110.52C415.24 112.673 415.441 114.391 415.474 115.765C416.454 114.801 417.795 113.695 419.613 112.464C428.032 106.742 431.802 113.042 431.802 113.042C431.802 113.042 433.721 120.13 423.76 122.224C421.607 122.676 419.889 122.877 418.515 122.911C419.479 123.891 420.585 125.232 421.816 127.05C427.538 135.469 421.238 139.239 421.238 139.239C421.238 139.239 414.15 141.158 412.056 131.197Z" fill="#EFD3A0"/>
<path d="M415.792 127.82C419.52 126.237 421.263 121.922 419.671 118.185C418.088 114.457 413.773 112.715 410.037 114.307C406.309 115.89 404.566 120.205 406.158 123.941C407.741 127.669 412.056 129.412 415.792 127.82Z" fill="white"/>
<path d="M413.028 123.028C407.54 123.153 414.644 117.28 410.137 119.635C405.63 121.989 411.536 128.255 411.553 128.272C409.232 127.828 407.163 126.27 406.166 123.932C404.583 120.204 406.317 115.89 410.045 114.298C413.773 112.715 418.088 114.449 419.679 118.185C420.031 119.015 420.216 119.869 420.249 120.724C418.632 122.207 415.909 122.961 413.028 123.028Z" fill="#EFE6B6"/>
<path d="M338.214 110.662C338.214 110.662 324.675 125.776 335.784 130.853C346.885 135.93 354.148 119.492 349.013 109.875C349.013 109.875 358.421 125.03 367.854 121.562C377.288 118.093 380.036 99.2266 367.125 96.6043C354.215 93.9904 349.322 102.527 349.322 102.527C349.322 102.527 364.411 85.9477 355.489 80.7116C346.566 75.4755 331.092 83.5349 340.526 98.2715C340.526 98.2715 332.29 85.7634 323.485 90.0864C314.68 94.4093 320.871 105.778 327.004 106.532C327.004 106.532 312.427 112.824 319.28 118.604C326.141 124.385 338.222 110.646 338.222 110.646L338.214 110.662Z" fill="#96B534"/>
<path d="M367.988 104.564C372.018 109.733 360.607 114.642 360.607 114.642C361.579 116.753 359.577 120.54 359.577 120.54C353.595 117.264 349.013 109.875 349.013 109.875C351.149 113.88 351.141 119.074 349.599 123.397C347.898 121.018 345.259 126.756 341.917 127.234C338.574 127.711 339.093 119.116 337.267 120.548C335.441 121.981 332.693 119.183 332.693 119.183C334.594 114.793 337.962 110.947 338.205 110.671C338.214 110.663 338.222 110.654 338.222 110.654C338.222 110.654 338.222 110.654 338.205 110.671C337.929 110.981 333.472 115.949 328.512 118.521C321.801 119.794 328.571 110.185 329.626 109.783C330.682 109.381 327.004 106.541 327.004 106.541C317.604 100.76 324.642 95.5993 323.963 98.0288C323.284 100.458 333.246 98.1629 331.838 96.3533C330.431 94.5437 331.344 90.0867 331.344 90.0783C336.63 92.3738 340.517 98.2718 340.517 98.2718C337.292 93.2284 336.982 88.9641 338.322 85.7554C340.057 86.6602 343.952 85.9564 347.153 84.5154C351.962 82.3456 357.097 90.8239 357.097 90.8239C355.589 94.4348 352.984 98.0456 351.208 100.282C349.909 101.514 349.323 102.536 349.323 102.536C349.323 102.536 350.102 101.673 351.208 100.282C353.662 97.9618 358.681 94.8955 367.125 96.6046C367.502 96.68 367.863 96.7722 368.214 96.8727C365.726 98.1796 364.964 100.676 367.988 104.555V104.564Z" fill="#839928"/>
<path d="M361.286 101.598C361.286 101.598 365.944 104.497 365.04 108.275C365.04 108.275 363.917 112.933 359.385 113.561C359.385 113.561 360.725 118.169 358.237 119.728C352.925 116.184 349.013 109.875 349.013 109.875C350.588 112.824 350.998 116.402 350.487 119.811C350.487 119.811 346.776 123.548 345.343 123.849L339.646 120.9C339.646 120.9 338.172 119.518 337.887 118.496C337.887 118.496 334.737 119.149 333.229 118.035C335.164 114.14 337.988 110.922 338.205 110.671C338.214 110.663 338.222 110.654 338.222 110.654C338.222 110.654 338.222 110.654 338.205 110.671C337.979 110.922 334.997 114.248 331.227 116.862L330.825 116.628C330.825 116.628 328.537 112.849 331.076 109.088C331.076 109.088 326.946 105.469 327.356 102.461C327.356 102.461 329.392 98.1379 332.919 97.2415C332.919 97.2415 332.132 92.7091 333.891 91.5027C337.837 94.2004 340.518 98.272 340.518 98.272C338.381 94.9376 337.527 91.9467 337.577 89.3748C337.577 89.3748 341.355 88.6962 342.704 90.7822C342.704 90.7822 345.067 85.7304 349.105 86.5179C353.143 87.3138 354.408 90.6985 354.542 92.0724L356.343 92.4327C354.819 95.4738 352.707 98.3641 351.199 100.266C349.901 101.497 349.314 102.52 349.314 102.52C349.314 102.52 350.094 101.657 351.199 100.266C353.126 98.4395 356.637 96.1692 362.141 96.1021C362.158 96.1608 363.079 99.847 361.278 101.59L361.286 101.598Z" fill="#5B6812"/>
<path d="M353.897 111.684C351.928 110.972 350.428 110.269 349.297 109.607C349.591 110.889 349.808 112.522 349.892 114.617C350.294 124.318 343.291 124.209 343.291 124.209C343.291 124.209 336.58 122.199 339.889 113.067C340.601 111.098 341.305 109.598 341.967 108.467C340.685 108.761 339.051 108.978 336.957 109.062C327.255 109.464 327.364 102.46 327.364 102.46C327.364 102.46 329.375 95.7498 338.507 99.0591C340.476 99.7712 341.975 100.475 343.106 101.137C342.813 99.8549 342.595 98.2213 342.511 96.1268C342.109 86.4253 349.113 86.5342 349.113 86.5342C349.113 86.5342 355.824 88.5449 352.515 97.6767C351.802 99.6455 351.099 101.145 350.437 102.276C351.719 101.983 353.352 101.765 355.447 101.681C365.148 101.279 365.039 108.283 365.039 108.283C365.039 108.283 363.029 114.994 353.897 111.684Z" fill="#C68F2E"/>
<path d="M347.178 115.279C346.29 113.377 345.728 111.827 345.393 110.554C344.69 111.668 343.693 112.975 342.268 114.525C335.692 121.671 330.816 116.644 330.816 116.644C330.816 116.644 327.49 110.478 336.287 106.356C338.188 105.468 339.738 104.907 341.012 104.572C339.897 103.868 338.591 102.871 337.041 101.447C329.894 94.8705 334.921 89.9946 334.921 89.9946C334.921 89.9946 341.087 86.6686 345.209 95.4653C346.097 97.3671 346.658 98.9169 346.993 100.19C347.697 99.0761 348.694 97.7692 350.118 96.2193C356.695 89.073 361.571 94.0997 361.571 94.0997C361.571 94.0997 364.897 100.266 356.1 104.388C354.198 105.276 352.648 105.837 351.375 106.172C352.489 106.876 353.796 107.873 355.346 109.297C362.492 115.874 357.466 120.75 357.466 120.75C357.466 120.75 351.3 124.076 347.178 115.279Z" fill="#F0BB49"/>
<path d="M346.935 112.857C346.265 111.424 345.837 110.251 345.586 109.288C345.058 110.126 344.296 111.123 343.224 112.287C338.256 117.682 334.569 113.887 334.569 113.887C334.569 113.887 332.056 109.229 338.7 106.121C340.132 105.451 341.305 105.023 342.269 104.772C341.431 104.244 340.434 103.482 339.269 102.41C333.874 97.4416 337.669 93.7553 337.669 93.7553C337.669 93.7553 342.327 91.242 345.435 97.8856C346.106 99.3182 346.533 100.491 346.784 101.455C347.312 100.617 348.074 99.6198 349.147 98.4553C354.115 93.06 357.801 96.8551 357.801 96.8551C357.801 96.8551 360.314 101.513 353.671 104.621C352.238 105.292 351.065 105.719 350.102 105.97C350.94 106.498 351.937 107.26 353.101 108.333C358.496 113.301 354.701 116.987 354.701 116.987C354.701 116.987 350.043 119.5 346.935 112.857Z" fill="#EFD3A0"/>
<path d="M351.12 106.42C351.57 103.531 349.593 100.823 346.703 100.373C343.814 99.9224 341.107 101.9 340.656 104.789C340.206 107.678 342.183 110.386 345.072 110.836C347.962 111.286 350.669 109.309 351.12 106.42Z" fill="white"/>
<path d="M346.281 106.958C342.453 107.947 346.474 102.66 343.693 105.056C340.92 107.444 346.097 110.879 346.106 110.887C344.405 110.963 342.696 110.209 341.607 108.726C339.881 106.372 340.392 103.054 342.746 101.328C345.1 99.6023 348.418 100.113 350.144 102.468C350.529 102.995 350.797 103.565 350.965 104.151C350.077 105.458 348.284 106.439 346.273 106.958H346.281Z" fill="#EFE6B6"/>
<path d="M437.608 251.694L445.885 253.093C445.885 253.093 423.676 384.239 422.729 389.852C421.782 395.465 420.408 397.71 417.275 399.654C414.142 401.598 415.231 403.927 414.661 407.295C414.091 410.663 410.456 412.028 410.456 412.028C410.456 412.028 407.473 409.54 408.043 406.172C408.612 402.804 410.414 400.961 408.093 398.096C405.772 395.231 405.219 392.659 406.166 387.045C407.113 381.432 429.322 250.286 429.322 250.286L437.6 251.685L437.608 251.694Z" fill="#BBE1D2"/>
<path d="M432.757 330.646L414.938 335.262L429.331 250.286L445.885 253.093L432.757 330.646Z" fill="url(#paint2_linear_234_1448)"/>
<path d="M417.275 399.654C414.142 401.597 415.231 403.926 414.661 407.294C414.092 410.662 410.456 412.028 410.456 412.028C410.456 412.028 407.473 409.539 408.043 406.172C408.613 402.804 410.414 400.961 408.093 398.095C405.772 395.23 405.22 392.658 406.166 387.045C406.317 386.174 406.97 382.27 407.984 376.305H425.016C423.743 383.836 422.897 388.846 422.721 389.843C421.774 395.456 420.4 397.702 417.267 399.645L417.275 399.654Z" fill="#F5B132"/>
<path d="M412.55 404.27C412.349 400.751 414.46 399.252 417.267 397.073C420.082 394.895 421.188 383.686 421.288 380.167C421.389 376.648 408.638 377.251 408.638 377.251C410.246 376.648 425.025 376.305 425.025 376.305C423.751 383.836 422.905 388.846 422.729 389.843C421.783 395.456 420.409 397.702 417.275 399.645C414.142 401.589 415.231 403.918 414.662 407.286C414.092 410.654 410.456 412.019 410.456 412.019C411.972 410.737 412.751 407.78 412.55 404.27Z" fill="#DD9624"/>
<path opacity="0.55" d="M430.219 256.929L407.766 385.52C407.766 385.52 405.739 392.289 408.679 397.065C408.679 397.065 407.624 395.716 409.827 384.607C412.031 373.498 431.819 257.214 431.819 257.214C431.819 257.214 431.467 254.893 430.227 256.929H430.219Z" fill="white"/>
<path d="M462.34 234.813L458.779 256.386C458.628 257.315 449.329 256.561 438.01 254.693C426.7 252.825 417.652 250.555 417.803 249.625L421.364 228.052L462.331 234.813H462.34Z" fill="#7F6F29"/>
<path d="M458.779 256.385C458.628 257.315 449.329 256.561 438.01 254.693C434.936 254.182 432.037 253.646 429.44 253.118C437.307 250.722 445.048 248.024 447.368 246.223C452.47 242.26 427.563 230.33 427.563 230.33L427.538 229.065L462.339 234.813L458.779 256.385Z" fill="#6B5D22"/>
<path d="M455.956 247.111C457.858 242.085 441.579 233.12 441.579 233.12L441.646 231.395L462.34 234.813L458.779 256.386C458.628 257.315 449.329 256.561 438.011 254.693C437.139 254.551 436.276 254.4 435.439 254.258C444.043 252.657 454.825 250.085 455.947 247.111H455.956Z" fill="#5E5220"/>
<path d="M462.323 234.793C462.476 233.862 453.43 231.594 442.118 229.727C430.805 227.86 421.51 227.102 421.356 228.033C421.203 228.965 430.249 231.233 441.561 233.1C452.874 234.966 462.169 235.725 462.323 234.793Z" fill="#A38E36"/>
<path d="M462.34 234.813C462.189 235.743 452.889 234.989 441.571 233.121C436.368 232.258 431.652 231.319 428.074 230.457C428.116 230.457 444.453 231.772 437.164 228.974C438.756 229.2 440.415 229.46 442.124 229.744C453.434 231.613 462.482 233.883 462.331 234.813H462.34Z" fill="#8E7B2D"/>
<path d="M429.314 228.654C429.943 228.185 431.895 226.568 432.246 224.44C432.665 221.902 435.765 203.127 435.765 203.127C435.765 203.127 437.189 192.68 447.963 194.456C458.737 196.232 456.726 206.587 456.726 206.587C456.726 206.587 453.627 225.37 453.208 227.9C452.856 230.028 454.188 232.19 454.632 232.835C454.732 232.91 454.783 232.977 454.774 233.036C454.674 233.622 448.86 233.145 441.78 231.98C434.701 230.808 429.038 229.392 429.13 228.805C429.138 228.747 429.205 228.696 429.323 228.663L429.314 228.654Z" fill="#1E1D1A"/>
<path d="M447.963 194.456C458.737 196.232 456.726 206.587 456.726 206.587C456.726 206.587 453.627 225.37 453.208 227.9C452.856 230.028 454.188 232.19 454.632 232.835C454.732 232.91 454.783 232.977 454.774 233.036C454.674 233.622 448.86 233.145 441.78 231.98C434.701 230.807 429.038 229.391 429.13 228.805C429.138 228.746 429.205 228.696 429.323 228.663C437.901 230.078 443.28 227.406 443.28 227.406C443.28 227.406 446.69 206.738 447.762 200.245C448.834 193.744 439.828 196.065 439.828 196.065C441.646 194.699 444.243 193.861 447.963 194.473V194.456Z" fill="#191816"/>
<path d="M441.211 197.815C441.211 197.815 437.616 199.357 436.611 205.464C435.606 211.571 433.503 224.306 433.503 224.306L441.219 197.807L441.211 197.815Z" fill="#2D2B27"/>
<path d="M410.388 414.433C410.388 414.433 421.841 437.966 409.735 437.631C397.629 437.296 410.388 414.433 410.388 414.433Z" fill="#F5B132"/>
<path d="M409.743 437.622C408.377 437.58 407.347 437.245 406.559 436.701C414.812 432.872 410.38 415.052 410.38 415.052C410.38 415.052 410.48 415.027 410.656 414.985C412.29 418.529 420.743 437.932 409.743 437.622Z" fill="#DD9624"/>
<path d="M73.3071 374.203L73.5166 374.304C73.5166 374.304 101.13 444.82 168.806 419.929L168.596 419.829C145.557 351.508 73.3071 374.203 73.3071 374.203Z" fill="#839928"/>
<path d="M168.58 419.778C164.399 416.963 101.859 375.125 73.3072 374.203L73.5166 374.304C73.5166 374.304 101.13 444.82 168.806 419.929L168.596 419.829C168.596 419.829 168.588 419.795 168.58 419.778Z" fill="#637016"/>
<path d="M165.916 417.457C165.782 417.365 162.539 415.187 157.261 411.844C157.228 411.811 157.178 411.786 157.136 411.76C153.558 409.498 149.051 406.709 143.941 403.676C143.924 403.659 143.915 403.642 143.89 403.626C131.868 394.628 129.832 379.38 129.816 379.229C129.782 378.978 129.556 378.794 129.305 378.827C129.053 378.861 128.869 379.087 128.902 379.338C128.919 379.481 130.578 391.947 139.718 401.196C133.971 397.853 127.646 394.326 121.128 390.95C121.094 390.908 121.052 390.875 121.002 390.849C120.717 390.699 120.424 390.556 120.123 390.431C114.677 387.632 109.106 384.943 103.643 382.572C103.61 382.547 103.585 382.522 103.543 382.505C96.539 379.33 96.6898 373.323 96.6982 373.055C96.7065 372.804 96.5139 372.586 96.2541 372.577C96.0028 372.569 95.785 372.762 95.7766 373.021C95.7766 373.072 95.6426 377.261 99.2366 380.737C91.0767 377.428 83.2937 374.957 76.7003 374.035C76.449 374.002 76.2144 374.178 76.1809 374.429C76.1474 374.68 76.3233 374.915 76.5747 374.948C87.7172 376.515 102.253 382.505 116.336 389.551C107.363 388.763 96.0615 395.583 95.4918 395.926C95.2739 396.06 95.2069 396.345 95.341 396.563C95.475 396.781 95.7598 396.848 95.9777 396.714C96.1369 396.622 111.091 387.599 119.838 391.335C133.008 398.113 145.482 405.586 154.036 410.931C139.542 408.007 125.292 419.242 125.141 419.359C124.94 419.518 124.906 419.812 125.065 420.004C125.225 420.205 125.518 420.23 125.711 420.08C125.87 419.954 141.721 407.454 156.7 412.607C162.003 415.966 165.262 418.153 165.396 418.245C165.539 418.345 165.723 418.345 165.874 418.27C165.941 418.236 165.991 418.186 166.041 418.119C166.184 417.91 166.125 417.625 165.916 417.482V417.457Z" fill="#A1B725"/>
<path d="M92.0397 286.939L92.2324 287.199C92.2324 287.199 80.0176 392.399 179.915 406.122L179.722 405.862C196.151 306.376 92.0397 286.939 92.0397 286.939Z" fill="#839928"/>
<path d="M179.739 405.787C176.429 399.563 126.69 306.829 92.0397 286.948L92.2324 287.208C92.2324 287.208 80.0176 392.408 179.915 406.131L179.722 405.871C179.722 405.871 179.722 405.821 179.73 405.796L179.739 405.787Z" fill="#637016"/>
<path d="M177.979 401.171C177.871 400.969 175.307 396.152 170.976 388.554C170.951 388.487 170.917 388.428 170.867 388.369C167.935 383.217 164.206 376.816 159.892 369.72C159.883 369.687 159.883 369.653 159.867 369.628C150.928 350.619 158.434 330.47 158.509 330.269C158.635 329.934 158.468 329.565 158.141 329.44C157.806 329.314 157.437 329.482 157.311 329.808C157.244 329.993 151.103 346.48 156.314 363.898C151.413 355.997 145.918 347.486 140.087 339.032C140.07 338.965 140.045 338.89 140.003 338.831C139.752 338.454 139.483 338.094 139.19 337.742C134.306 330.705 129.196 323.734 124.01 317.225C123.985 317.175 123.968 317.116 123.934 317.074C117.366 308.554 121.505 301.232 121.689 300.913C121.873 300.603 121.764 300.21 121.463 300.034C121.153 299.849 120.759 299.958 120.583 300.26C120.541 300.327 117.634 305.412 119.787 312.056C111.879 302.606 103.903 294.454 96.3629 288.975C96.078 288.765 95.6675 288.833 95.4581 289.117C95.2486 289.402 95.3157 289.813 95.6005 290.022C108.326 299.271 122.342 316.211 135.102 334.156C124.537 327.295 106.106 328.284 105.185 328.334C104.833 328.351 104.556 328.661 104.582 329.012C104.598 329.364 104.908 329.632 105.26 329.616C105.511 329.599 129.908 328.284 138.26 338.639C150.065 355.662 160.562 373.071 167.616 385.295C151.64 372.158 126.665 376.674 126.397 376.724C126.045 376.791 125.819 377.126 125.886 377.478C125.953 377.83 126.288 378.056 126.64 377.989C126.917 377.939 154.698 372.912 169.811 389.115C174.159 396.747 176.74 401.589 176.84 401.791C176.957 402.008 177.184 402.134 177.41 402.134C177.51 402.134 177.611 402.109 177.711 402.059C178.03 401.891 178.147 401.497 177.979 401.187V401.171Z" fill="#A1B725"/>
<path d="M270.513 345.76C233.198 344.705 256.438 316.564 256.438 307.474H182.613C182.613 316.555 205.853 344.696 168.538 345.76C131.223 346.816 130.218 361.108 130.218 361.108V450.642H308.833V361.108C308.833 361.108 307.827 346.824 270.513 345.76Z" fill="#97CDD3"/>
<path d="M219.525 458.585C268.848 458.585 308.833 455.029 308.833 450.642C308.833 446.256 268.848 442.7 219.525 442.7C170.202 442.7 130.218 446.256 130.218 450.642C130.218 455.029 170.202 458.585 219.525 458.585Z" fill="#5DAEB2"/>
<path d="M308.833 366.663V446.403C308.833 450.785 268.846 454.345 219.526 454.345C170.205 454.345 130.218 450.793 130.218 446.403V366.663H308.833Z" fill="#E5C04A"/>
<path d="M219.526 454.345C268.849 454.345 308.833 450.789 308.833 446.403C308.833 442.017 268.849 438.461 219.526 438.461C170.202 438.461 130.218 442.017 130.218 446.403C130.218 450.789 170.202 454.345 219.526 454.345Z" fill="#D3AC40"/>
<path d="M229.847 438.519L272.926 435.729V373.021L272.222 366.654H308.841V446.394C308.841 450.776 268.854 454.336 219.534 454.336C218.914 454.336 218.302 454.336 217.682 454.336C217.749 454.336 249.811 450.893 267.958 447.374C286.129 443.847 229.847 438.519 229.847 438.519Z" fill="#DD9014"/>
<path d="M229.847 438.52C229.847 438.52 290.888 436.526 301.603 439.307V370.902L304.116 445.658C304.116 445.658 287.671 449.905 264.95 450.642C264.95 450.642 305.968 444.468 299.885 442.089C293.803 439.709 229.847 438.528 229.847 438.528V438.52Z" fill="#B77311"/>
<path d="M219.525 374.605C268.848 374.605 308.833 371.049 308.833 366.663C308.833 362.277 268.848 358.721 219.525 358.721C170.202 358.721 130.218 362.277 130.218 366.663C130.218 371.049 170.202 374.605 219.525 374.605Z" fill="#EFC859"/>
<path d="M130.218 446.403V366.663C130.218 366.663 134.893 441.762 139.878 441.904L164.55 440.145C164.55 440.145 127.353 445.607 138.814 447.375C150.266 449.134 180.56 453.541 180.619 453.549C150.786 452.268 130.218 449.545 130.218 446.403Z" fill="#DD9014"/>
<path d="M219.526 281.805H189.366L193.596 324.414C193.596 325.688 205.2 326.718 219.517 326.718C233.835 326.718 245.438 325.688 245.438 324.414L249.669 281.805H219.509H219.526Z" fill="#93653B"/>
<path d="M189.365 281.805L193.596 324.414C193.596 325.688 205.199 326.718 219.517 326.718C233.835 326.718 245.438 325.688 245.438 324.414L246.083 317.888C236.482 317.57 226.739 316.497 222.952 313.649C216.669 308.94 230.76 290.844 238.468 281.805H189.357H189.365Z" fill="#845732"/>
<path d="M193.605 324.406C193.605 325.679 205.208 326.71 219.526 326.71C224.159 326.71 228.498 326.601 232.26 326.417C225.792 324.079 219.015 321.8 212.731 319.999C190.84 313.716 212.731 281.805 212.731 281.805H189.366L193.596 324.414L193.605 324.406Z" fill="#6D4526"/>
<path d="M198.715 294.355C199.309 295.896 199.318 297.337 198.723 297.563C198.128 297.789 197.173 296.725 196.57 295.176C195.975 293.634 195.967 292.193 196.561 291.967C197.156 291.741 198.111 292.805 198.715 294.355Z" fill="#513710"/>
<path d="M225.834 298.091C225.122 299.59 224.083 300.579 223.513 300.311C222.943 300.043 223.052 298.602 223.764 297.111C224.476 295.611 225.515 294.622 226.085 294.891C226.655 295.159 226.546 296.6 225.834 298.091Z" fill="#513710"/>
<path d="M236.172 316.431C235.46 317.93 234.421 318.919 233.851 318.651C233.281 318.383 233.39 316.942 234.102 315.451C234.815 313.951 235.853 312.962 236.423 313.23C236.993 313.498 236.884 314.939 236.172 316.431Z" fill="#513710"/>
<path d="M241.215 289.043C241.424 290.685 241.081 292.084 240.453 292.159C239.824 292.235 239.146 290.97 238.945 289.328C238.735 287.686 239.079 286.287 239.707 286.211C240.335 286.136 241.014 287.401 241.215 289.043Z" fill="#513710"/>
<path d="M206.104 307.893C206.313 309.536 205.97 310.935 205.341 311.01C204.713 311.085 204.035 309.82 203.833 308.178C203.624 306.536 203.968 305.137 204.596 305.062C205.224 304.986 205.903 306.251 206.104 307.893Z" fill="#513710"/>
<path d="M201.504 318.55C201.714 320.192 201.37 321.591 200.742 321.666C200.114 321.742 199.435 320.477 199.234 318.835C199.024 317.193 199.368 315.793 199.996 315.718C200.625 315.643 201.303 316.908 201.504 318.55Z" fill="#513710"/>
<path d="M249.686 281.804C249.686 283.287 236.181 284.485 219.525 284.485C202.87 284.485 189.365 283.287 189.365 281.804C189.365 280.321 202.87 279.123 219.525 279.123C236.181 279.123 249.686 280.321 249.686 281.804Z" fill="#BC7846"/>
<path d="M203.775 281.142C203.775 280.363 207.487 279.668 213.418 279.182C199.695 279.433 189.374 280.514 189.374 281.804C189.374 283.287 202.879 284.485 219.534 284.485C227.459 284.485 234.673 284.217 240.051 283.764C238.074 283.798 236.03 283.823 233.935 283.823C217.28 283.823 203.775 282.625 203.775 281.142Z" fill="#AF6A3C"/>
<path d="M223.145 279.727C223.145 279.727 238.317 280.011 243.964 281.318C243.964 281.318 231.573 281.586 223.145 279.727Z" fill="#EFB086"/>
<path d="M182.613 307.474C182.613 316.555 205.853 344.696 168.538 345.76C131.223 346.816 130.218 361.108 130.218 361.108V450.642C130.218 455.024 170.205 458.584 219.526 458.584C234.17 458.584 247.993 458.274 260.191 457.713C228.691 447.174 198.145 431.524 189.365 418.27C172.886 393.396 274.124 368.523 290 358.729C305.876 348.935 230.19 353.175 213.259 345.76C196.319 338.354 232.436 307.474 232.436 307.474H182.613Z" fill="url(#paint3_linear_234_1448)"/>
<path d="M247.348 305.32V305.345C247.348 306.669 234.89 307.75 219.525 307.75C204.16 307.75 191.711 306.678 191.711 305.345V305.32C186.048 305.898 182.621 306.652 182.621 307.473C182.621 309.283 199.151 310.758 219.534 310.758C239.917 310.758 256.446 309.291 256.446 307.473C256.446 306.652 253.011 305.898 247.356 305.32H247.348Z" fill="#BDEDEF"/>
<g opacity="0.55">
<path d="M146.044 356.341C146.044 356.341 235.209 367.551 287.31 353.652C287.31 353.652 284.361 349.329 267.782 349.982C267.782 349.982 287.897 345.123 306.596 360.605C306.596 360.605 204.621 377.504 146.052 356.333L146.044 356.341Z" fill="white"/>
<path d="M306.588 363.396V442.7C306.588 442.7 308.288 375.418 283.632 374.597C258.977 373.784 249.686 369.042 249.686 369.042C249.686 369.042 281.89 371.162 306.588 363.396Z" fill="white"/>
</g>
<path d="M97.921 419.494C90.7161 426.146 78.6772 428.76 78.5264 431.122C78.3756 433.485 89.9705 437.623 96.2622 445.147C102.554 452.67 140.698 455.133 150.911 454.438C161.123 453.742 163.586 436.61 163.586 436.61C163.586 436.61 163.352 419.309 153.307 417.307C143.27 415.305 105.126 412.842 97.9127 419.494H97.921Z" fill="#84431B"/>
<path d="M146.135 449.721C146.135 449.721 108.871 449.352 107.112 445.163C105.344 440.983 122.485 448.531 120.449 443.312C118.413 438.093 82.9667 435.805 96.7566 432.295C110.546 428.785 138.193 425.476 121.027 423.691C103.869 421.907 134.901 413.738 145.758 418.849C156.616 423.959 157.362 428.073 147.66 426.087C137.959 424.102 108.862 433.753 117.349 433.619C125.828 433.485 172.634 433.124 152.117 435.864C131.6 438.604 119.251 440.857 128.006 441.762C136.761 442.667 161.09 443.898 146.135 449.713V449.721Z" fill="#683113"/>
<path d="M163.586 436.61C163.586 436.61 163.352 419.309 153.307 417.307C146.026 415.858 123.984 414.165 109.658 415.874C111.594 415.682 127.017 414.517 143.287 424.897C160.688 435.998 126.02 453.323 126.02 453.323C136.333 454.429 146.378 454.739 150.911 454.429C161.123 453.734 163.586 436.601 163.586 436.601V436.61Z" fill="#703616"/>
<path d="M146.906 436.584C148.573 436.349 150.307 436.115 152.109 435.872C161.534 434.615 156.75 434.012 147.995 433.735C147.794 434.682 147.417 435.637 146.906 436.584Z" fill="#4F250F"/>
<path d="M141.351 443.127C138.696 445.489 135.646 447.626 132.982 449.327C140.212 449.662 146.135 449.72 146.135 449.72C155.552 446.059 149.394 444.216 141.351 443.127Z" fill="#4F250F"/>
<path d="M143.287 424.897C143.764 425.199 144.192 425.509 144.594 425.819C145.742 425.819 146.78 425.911 147.66 426.087C157.362 428.073 156.608 423.951 145.758 418.849C141.435 416.813 133.904 416.888 127.495 417.827C132.337 419.175 137.766 421.37 143.295 424.906L143.287 424.897Z" fill="#4F250F"/>
<path opacity="0.65" d="M129.371 453.658C129.665 453.683 129.95 453.708 130.234 453.734C130.611 453.767 130.988 453.801 131.365 453.834C131.659 453.859 131.943 453.884 132.237 453.901C132.605 453.926 132.974 453.96 133.343 453.985C133.627 454.01 133.912 454.027 134.197 454.043C134.557 454.069 134.926 454.094 135.278 454.119C135.563 454.136 135.839 454.152 136.124 454.169C136.476 454.194 136.828 454.211 137.171 454.236C137.448 454.253 137.724 454.27 137.992 454.278C138.587 454.312 139.173 454.337 139.743 454.362C140.053 454.379 140.372 454.387 140.673 454.404C140.95 454.412 141.209 454.42 141.477 454.429C141.779 454.437 142.089 454.454 142.382 454.462C142.642 454.462 142.885 454.479 143.136 454.479C143.429 454.479 143.723 454.496 143.999 454.504C144.242 454.504 144.477 454.513 144.703 454.521C144.988 454.521 145.264 454.529 145.532 454.529C145.75 454.529 145.968 454.529 146.177 454.529C146.445 454.529 146.705 454.529 146.956 454.529C147.158 454.529 147.35 454.529 147.543 454.529C147.803 454.529 148.046 454.529 148.289 454.521C148.456 454.521 148.624 454.521 148.791 454.513C149.051 454.513 149.285 454.496 149.528 454.488C149.654 454.488 149.797 454.488 149.914 454.471C150.249 454.454 150.567 454.437 150.861 454.42C150.869 454.42 150.886 454.42 150.894 454.42C152.167 454.337 153.324 453.993 154.371 453.457C154.89 453.189 155.385 452.871 155.854 452.519C161.944 447.903 163.57 436.601 163.57 436.601C163.57 436.601 163.335 419.301 153.29 417.298C153.005 417.24 152.695 417.19 152.377 417.131C152.285 417.114 152.193 417.097 152.092 417.081C151.832 417.039 151.556 416.988 151.271 416.947C151.179 416.93 151.095 416.921 151.003 416.905C150.634 416.846 150.241 416.796 149.838 416.737C149.755 416.729 149.662 416.712 149.57 416.704C149.235 416.662 148.9 416.611 148.548 416.57C148.406 416.553 148.255 416.536 148.104 416.519C147.752 416.477 147.392 416.436 147.032 416.394C146.915 416.377 146.797 416.368 146.68 416.352C146.219 416.301 145.75 416.251 145.264 416.201C145.08 416.184 144.887 416.167 144.694 416.142C144.368 416.109 144.033 416.075 143.698 416.05C143.48 416.033 143.262 416.008 143.036 415.991C142.642 415.958 142.248 415.924 141.846 415.891C141.519 415.866 141.193 415.841 140.866 415.816C140.539 415.79 140.204 415.765 139.869 415.74C139.576 415.715 139.274 415.698 138.972 415.673C138.704 415.656 138.428 415.64 138.151 415.614C137.833 415.598 137.506 415.573 137.18 415.556C136.945 415.539 136.71 415.531 136.467 415.514C135.839 415.48 135.202 415.447 134.557 415.413C134.339 415.405 134.113 415.388 133.895 415.38C133.51 415.363 133.116 415.346 132.723 415.33C132.547 415.33 132.362 415.313 132.178 415.304C131.298 415.271 130.41 415.237 129.522 415.212C129.489 415.212 129.447 415.212 129.413 415.212C128.969 415.204 128.525 415.187 128.073 415.179C127.922 415.179 127.763 415.179 127.612 415.17C126.154 415.145 124.697 415.129 123.247 415.137C123.172 415.137 123.088 415.137 123.013 415.137C122.544 415.137 122.083 415.137 121.622 415.154C121.513 415.154 121.396 415.154 121.287 415.154C119.863 415.179 118.447 415.212 117.073 415.279C116.956 415.279 116.838 415.288 116.713 415.296C116.269 415.313 115.833 415.338 115.397 415.363C115.313 415.363 115.238 415.372 115.154 415.38C114.258 415.43 113.387 415.497 112.524 415.564C112.482 415.564 112.44 415.564 112.398 415.573C111.996 415.606 111.602 415.648 111.217 415.681C111.074 415.698 110.932 415.707 110.789 415.723C110.404 415.765 110.027 415.807 109.65 415.849C109.65 415.849 129.078 438.871 127.838 453.491C127.956 453.499 128.081 453.516 128.199 453.524C128.592 453.566 128.978 453.599 129.363 453.633L129.371 453.658Z" fill="#230F07"/>
<path d="M128.86 392.919C119.058 393.187 108.276 387.239 106.6 388.923C104.933 390.598 110.94 401.347 110.731 411.158C110.521 420.968 137.632 447.911 145.783 454.102C153.935 460.293 167.055 449.017 167.055 449.017C167.055 449.017 178.256 435.83 172.014 427.712C165.773 419.602 138.662 392.651 128.86 392.919Z" fill="#84431B"/>
<path d="M145.289 447.4C145.289 447.4 117.467 422.61 118.891 418.295C120.315 413.989 128.257 430.946 130.151 425.676C132.053 420.407 106.86 395.365 119.553 401.791C132.245 408.208 155.242 423.917 143.488 411.283C131.734 398.649 160.478 412.917 165.296 423.9C170.113 434.892 167.968 438.486 161.97 430.611C155.963 422.736 127.704 410.864 134.18 416.343C140.657 421.822 176.145 452.334 158.887 440.907C141.628 429.48 130.846 423.054 136.845 429.488C142.843 435.931 160.353 452.862 145.273 447.4H145.289Z" fill="#683113"/>
<path d="M167.063 449.017C167.063 449.017 178.264 435.831 172.023 427.712C167.499 421.831 152.008 406.056 140.087 397.921C141.67 399.052 154.053 408.318 159.481 426.841C165.287 446.655 127.771 436.886 127.771 436.886C134.817 444.502 142.173 451.346 145.792 454.094C153.944 460.285 167.063 449.009 167.063 449.009V449.017Z" fill="#703616"/>
<path d="M154.513 438.017C155.921 438.939 157.387 439.902 158.903 440.907C166.829 446.16 163.62 442.558 157.211 436.593C156.432 437.171 155.527 437.64 154.513 438.017Z" fill="#4F250F"/>
<path d="M146.027 439.29C142.466 439.323 138.771 438.93 135.646 438.452C140.874 443.462 145.289 447.4 145.289 447.4C154.79 450.835 151.363 445.397 146.027 439.29Z" fill="#4F250F"/>
<path d="M159.473 426.841C159.632 427.386 159.749 427.897 159.85 428.391C160.713 429.153 161.442 429.899 161.978 430.603C167.985 438.478 170.121 434.884 165.304 423.892C163.385 419.51 157.663 414.618 152.218 411.107C154.974 415.313 157.621 420.532 159.464 426.833L159.473 426.841Z" fill="#4F250F"/>
<defs>
<linearGradient id="paint0_linear_234_1448" x1="358.631" y1="302.062" x2="358.631" y2="329.675" gradientUnits="userSpaceOnUse">
<stop stop-color="white"/>
<stop offset="1" stop-color="#FDB336" stop-opacity="0"/>
</linearGradient>
<linearGradient id="paint1_linear_234_1448" x1="297.64" y1="267.537" x2="331.419" y2="267.537" gradientUnits="userSpaceOnUse">
<stop stop-color="white"/>
<stop offset="1" stop-color="#FDB336" stop-opacity="0"/>
</linearGradient>
<linearGradient id="paint2_linear_234_1448" x1="421.72" y1="251.864" x2="437.901" y2="330.553" gradientUnits="userSpaceOnUse">
<stop stop-color="#5F8E83" stop-opacity="0.5"/>
<stop offset="1" stop-color="#BBE1D2" stop-opacity="0"/>
</linearGradient>
<linearGradient id="paint3_linear_234_1448" x1="130.218" y1="383.025" x2="292.178" y2="383.025" gradientUnits="userSpaceOnUse">
<stop stop-color="#71C5C9" stop-opacity="0.7"/>
<stop offset="0.99" stop-color="#97CDD3" stop-opacity="0"/>
</linearGradient>
</defs>
</svg>
