<svg width="29" height="23" viewBox="0 0 29 23" fill="none" xmlns="http://www.w3.org/2000/svg">
<path d="M9.70105 22.7901C20.1881 22.7901 25.9249 14.1007 25.9249 6.57843C25.9249 6.33527 25.9249 6.08864 25.9145 5.84548C27.0314 5.03696 27.9953 4.03595 28.7612 2.88938C27.7179 3.34938 26.6123 3.65255 25.4803 3.78906C26.6727 3.07633 27.5657 1.9549 27.9935 0.633217C26.8732 1.29691 25.647 1.76281 24.3687 2.01053C23.5093 1.09526 22.372 0.488917 21.1331 0.285428C19.8942 0.081939 18.6227 0.29266 17.5157 0.884951C16.4087 1.47724 15.5278 2.41805 15.0096 3.56164C14.4914 4.70523 14.3648 5.98778 14.6493 7.21064C12.3823 7.09696 10.1645 6.50803 8.1397 5.48203C6.11494 4.45604 4.32845 3.01589 2.8961 1.25501C2.16895 2.51089 1.94704 3.99644 2.27543 5.41C2.60382 6.82355 3.45789 8.05914 4.66421 8.86585C3.76025 8.83514 2.87616 8.5924 2.08326 8.15722V8.23538C2.08482 9.551 2.54058 10.8257 3.37351 11.8441C4.20644 12.8625 5.36545 13.5621 6.65463 13.8245C6.16529 13.9593 5.65982 14.0265 5.15226 14.0243C4.79444 14.0254 4.43734 13.9922 4.08584 13.9253C4.4502 15.0578 5.15968 16.048 6.1149 16.7572C7.07012 17.4663 8.22323 17.859 9.41273 17.8801C7.39201 19.4672 4.8959 20.328 2.32642 20.3238C1.87366 20.3257 1.42121 20.2996 0.97168 20.2456C3.57957 21.9083 6.60825 22.7911 9.70105 22.7901Z" fill="black"/>
</svg>
